SplineFontDB: 3.2
FontName: icons8-win10
FullName: icons8-win10
FamilyName: icons8-win10
Weight: Regular
ItalicAngle: 0
UnderlinePosition: -51.2
UnderlineWidth: 25.6
Ascent: 448
Descent: 64
InvalidEm: 0
LayerCount: 2
Layer: 0 0 "Back" 1
Layer: 1 0 "Fore" 0
XUID: [1021 121 -459131268 26702]
OS2Version: 0
OS2_WeightWidthSlopeOnly: 0
OS2_UseTypoMetrics: 0
CreationTime: 1504054542
ModificationTime: 1614420075
PfmFamily: 17
TTFWeight: 400
TTFWidth: 5
LineGap: 46
VLineGap: 46
Panose: 2 0 5 9 0 0 0 0 0 0
OS2TypoAscent: 0
OS2TypoAOffset: 1
OS2TypoDescent: 0
OS2TypoDOffset: 1
OS2TypoLinegap: 46
OS2WinAscent: 0
OS2WinAOffset: 1
OS2WinDescent: 0
OS2WinDOffset: 1
HheadAscent: 0
HheadAOffset: 1
HheadDescent: 0
HheadDOffset: 1
OS2Vendor: 'PfEd'
DEI: 91125
Encoding: Custom
UnicodeInterp: none
NameList: AGL For New Fonts
DisplaySize: -48
AntiAlias: 1
FitToEm: 0
WinInfo: 48 16 6
BeginChars: 1317 276

StartChar: uniF101
Encoding: 1 61697 0
Width: 512
LayerCount: 2
Fore
SplineSet
224 384 m 5
 285.6641 384 336 333.6641 336 272 c 4
 336 233.4404 316.3203 199.1523 286.4961 179.0078 c 5
 294.27247 175.67968 301.9199 171.95214 308.9922 167.5195 c 5
 330.0801 182.7998 356.0479 192 384 192 c 4
 454.4961 192 512 134.4961 512 64 c 4
 512 -6.4961 454.4961 -64 384 -64 c 4
 313.5039 -64 256 -6.4961 256 64 c 4
 256 94.3682 266.7197 122.5283 284.4805 144.4805 c 5
 266.4639 154.27249 246.0157 160 224 160 c 4
 153.1201 160 96 102.8799 96 32 c 5
 64 32 l 5
 64 97.9199 104.4316 154.512 161.5039 178.992 c 5
 131.6797 199.1678 112 233.4402 112 271.9998 c 4
 112 333.6639 162.3359 383.9998 224 383.9998 c 5
 224 384 l 5
224 352 m 4
 179.6318 352 144 316.3682 144 272 c 4
 144 227.6318 179.6318 192 224 192 c 4
 268.3682 192 304 227.6318 304 272 c 4
 304 316.3682 268.3682 352 224 352 c 4
384 160 m 4
 330.7842 160 288 117.2158 288 64 c 4
 288 10.7842 330.7842 -32 384 -32 c 4
 437.2158 -32 480 10.7842 480 64 c 4
 480 117.2158 437.2158 160 384 160 c 4
368 128 m 5
 400 128 l 5
 400 80 l 5
 448 80 l 5
 448 48 l 5
 400 48 l 5
 400 0 l 5
 368 0 l 5
 368 48 l 5
 320 48 l 5
 320 80 l 5
 368 80 l 5
 368 128 l 5
EndSplineSet
Validated: 1
EndChar

StartChar: uniF199
Encoding: 2 61849 1
Width: 512
Flags: HW
LayerCount: 2
Fore
SplineSet
98 94 m 1
 124 94 l 1
 124 66 l 1
 98 66 l 1
 98 94 l 1
48.919921875 305.655273438 m 1
 172.620117188 305.655273438 l 1
 172.620117188 20.53515625 l 1
 48.919921875 20.53515625 l 1
 48.919921875 305.655273438 l 1
74.83984375 279.735351562 m 1
 74.83984375 46.455078125 l 1
 146.700195312 46.455078125 l 1
 146.700195312 279.735351562 l 1
 74.83984375 279.735351562 l 1
189.629882812 103.10546875 m 9
 189.629882812 73.1845703125 l 1
 274.6796875 73.1845703125 l 1
 274.6796875 49.2646484375 l 1
 209.879882812 49.2646484375 l 1
 209.879882812 21.3447265625 l 1
 365.400390625 21.3447265625 l 1
 365.400390625 49.2646484375 l 1
 300.599609375 49.2646484375 l 1
 300.599609375 73.1845703125 l 1
 469.080078125 73.1845703125 l 1
 469.080078125 306.46484375 l 1
 189.629882812 306.46484375 l 1
 189.629882812 277.974609375 l 1
 443.16015625 277.974609375 l 1
 443.16015625 103.10546875 l 1
 189.629882812 103.10546875 l 9
189.629882812 73.1845703125 m 1025
189.629882812 306.46484375 m 1025
189.629882812 280.544921875 m 1025
189.629882812 99.10546875 m 1025
EndSplineSet
EndChar

StartChar: uniF160
Encoding: 3 61792 2
Width: 512
VWidth: 2048
Flags: HW
LayerCount: 2
Fore
SplineSet
343.650390625 166.5234375 m 5
 343.650390625 134.248046875 l 5
 226.549804688 134.248046875 l 5
 226.549804688 279.624023438 l 5
 258.825195312 279.624023438 l 5
 258.825195312 166.5234375 l 5
 343.650390625 166.5234375 l 5
258.825195312 364.440429688 m 5
 300.407226562 363.645507812 337.588867188 351.849609375 370.370117188 329.051757812 c 5
 416.536132812 375.21875 l 5
 439.241210938 352.513671875 l 5
 395.4921875 308.543945312 l 5
 414.897460938 288.310546875 429.8828125 266.681640625 440.44921875 243.655273438 c 4
 451.182617188 219.190429688 456.616210938 192.813476562 456.751953125 164.5234375 c 4
 456.40625 128.006835938 447.294921875 94.3505859375 429.416992188 63.5546875 c 4
 411.212890625 33.4248046875 387.337890625 9.5498046875 357.793945312 -8.068359375 c 4
 326.330078125 -26.1171875 292.673828125 -35.228515625 256.825195312 -35.40234375 c 4
 220.307617188 -35.056640625 186.651367188 -25.9453125 155.856445312 -8.068359375 c 4
 125.7265625 10.1357421875 101.8515625 34.0107421875 84.2333984375 63.5546875 c 4
 66.18359375 95.01953125 57.072265625 128.67578125 56.8984375 164.5234375 c 4
 57.3779296875 214.333007812 73.6669921875 257.956054688 105.765625 295.390625 c 4
 138.66796875 332.345703125 178.9296875 354.610351562 226.549804688 362.185546875 c 5
 226.549804688 388.725585938 l 5
 170 388.725585938 l 5
 170 421 l 5
 315.375976562 421 l 5
 315.375976562 388.725585938 l 5
 258.825195312 388.725585938 l 5
 258.825195312 364.440429688 l 5
256.825195312 -3.1279296875 m 4
 280.232421875 -2.859375 301.947265625 1.541015625 321.969726562 10.0732421875 c 4
 363.439453125 28.7060546875 393.208984375 58.474609375 411.276367188 99.37890625 c 4
 419.943359375 120.069335938 424.34375 141.784179688 424.4765625 164.5234375 c 4
 424.208007812 187.930664062 419.80859375 209.645507812 411.276367188 229.66796875 c 4
 392.641601562 271.139648438 362.873046875 300.909179688 321.969726562 318.974609375 c 4
 301.279296875 327.641601562 279.564453125 332.041992188 256.825195312 332.174804688 c 4
 233.41796875 331.90625 211.703125 327.506835938 191.680664062 318.974609375 c 4
 150.2109375 300.341796875 120.442382812 270.573242188 102.374023438 229.66796875 c 4
 93.70703125 208.977539062 89.306640625 187.262695312 89.173828125 164.5234375 c 4
 89.4423828125 141.116210938 93.841796875 119.401367188 102.374023438 99.37890625 c 4
 121.008789062 57.908203125 150.77734375 28.1396484375 191.680664062 10.0732421875 c 4
 212.37109375 1.4052734375 234.0859375 -2.9951171875 256.825195312 -3.1279296875 c 4
EndSplineSet
EndChar

StartChar: uniF14B
Encoding: 4 61771 3
Width: 512
VWidth: 2048
Flags: HW
LayerCount: 2
Fore
SplineSet
198.104492188 288 m 4
 230.59375 287.50390625 258.041992188 276.751953125 280.447265625 255.745117188 c 4
 303.053710938 233.171875 314.48828125 206.072265625 314.751953125 174.4453125 c 4
 314.255859375 141.958007812 303.50390625 114.510742188 282.497070312 92.103515625 c 4
 259.923828125 69.4970703125 232.82421875 58.0625 201.197265625 57.798828125 c 4
 168.708007812 58.294921875 141.259765625 69.046875 118.854492188 90.0537109375 c 4
 96.248046875 112.626953125 84.8134765625 139.7265625 84.5498046875 171.353515625 c 4
 85.0458984375 203.842773438 95.7978515625 231.290039062 116.8046875 253.6953125 c 4
 139.377929688 276.301757812 166.477539062 287.736328125 198.104492188 288 c 4
282.4765625 171.353515625 m 4
 281.999023438 194.967773438 274.375 214.833007812 259.60546875 230.94921875 c 4
 243.336914062 247.203125 223.8671875 255.461914062 201.197265625 255.724609375 c 4
 177.584960938 255.247070312 157.71875 247.624023438 141.600585938 232.854492188 c 4
 125.346679688 216.5859375 117.087890625 197.116210938 116.825195312 174.4453125 c 4
 117.302734375 150.83203125 124.926757812 130.966796875 139.6953125 114.849609375 c 4
 155.959960938 98.591796875 175.4296875 90.3330078125 198.104492188 90.07421875 c 4
 221.716796875 90.5517578125 241.583007812 98.17578125 257.701171875 112.944335938 c 4
 273.958984375 129.209960938 282.217773438 148.6796875 282.4765625 171.353515625 c 4
395.577148438 271.862304688 m 4
 396.75390625 281.97265625 402.133789062 287.3515625 411.71484375 288 c 4
 416.263671875 287.469726562 420.048828125 285.875976562 423.069335938 283.216796875 c 4
 425.993164062 279.560546875 427.587890625 275.775390625 427.852539062 271.862304688 c 4
 426.67578125 261.751953125 421.295898438 256.373046875 411.71484375 255.724609375 c 4
 407.166015625 256.254882812 403.380859375 257.848632812 400.360351562 260.5078125 c 4
 397.436523438 264.165039062 395.841796875 267.94921875 395.577148438 271.862304688 c 4
425.852539062 344.55078125 m 6
 442.068359375 344.041015625 455.8671875 338.323242188 467.249023438 327.397460938 c 4
 478.424804688 315.34765625 484.142578125 301.547851562 484.40234375 286 c 6
 484.40234375 59.798828125 l 6
 483.892578125 43.5830078125 478.174804688 29.783203125 467.249023438 18.4013671875 c 4
 455.19921875 7.2255859375 441.400390625 1.5078125 425.852539062 1.248046875 c 6
 86.5498046875 1.248046875 l 6
 70.333984375 1.7578125 56.53515625 7.4755859375 45.1533203125 18.4013671875 c 4
 33.9775390625 30.451171875 28.259765625 44.2509765625 28 59.798828125 c 6
 28 286 l 6
 28.509765625 302.215820312 34.2275390625 316.015625 45.1533203125 327.397460938 c 4
 57.203125 338.573242188 71.001953125 344.291015625 86.5498046875 344.55078125 c 6
 425.852539062 344.55078125 l 6
452.127929688 286 m 6
 451.875976562 289.956054688 451.194335938 293.373046875 450.083984375 296.249023438 c 4
 448.314453125 299.615234375 446.4296875 302.390625 444.4296875 304.577148438 c 4
 441.5703125 307.033203125 438.793945312 308.91796875 436.1015625 310.231445312 c 4
 432.551757812 311.474609375 429.135742188 312.155273438 425.852539062 312.275390625 c 6
 86.5498046875 312.275390625 l 6
 82.59375 312.0234375 79.177734375 311.341796875 76.30078125 310.231445312 c 4
 72.9345703125 308.461914062 70.1591796875 306.577148438 67.97265625 304.577148438 c 4
 65.5166015625 301.717773438 63.6318359375 298.94140625 62.318359375 296.249023438 c 4
 61.0751953125 292.700195312 60.39453125 289.284179688 60.2744140625 286 c 6
 60.2744140625 59.798828125 l 6
 60.5263671875 55.8427734375 61.2080078125 52.42578125 62.318359375 49.5498046875 c 4
 64.087890625 46.18359375 65.97265625 43.408203125 67.97265625 41.2216796875 c 4
 70.83203125 38.765625 73.6083984375 36.880859375 76.30078125 35.5673828125 c 4
 79.8505859375 34.32421875 83.2666015625 33.6435546875 86.5498046875 33.5234375 c 6
 425.852539062 33.5234375 l 6
 429.80859375 33.775390625 433.224609375 34.45703125 436.1015625 35.5673828125 c 4
 439.467773438 37.3369140625 442.243164062 39.2216796875 444.4296875 41.2216796875 c 4
 446.885742188 44.0810546875 448.770507812 46.857421875 450.083984375 49.5498046875 c 4
 451.327148438 53.0986328125 452.0078125 56.5146484375 452.127929688 59.798828125 c 6
 452.127929688 286 l 6
EndSplineSet
EndChar

StartChar: uniF107
Encoding: 5 61703 4
Width: 512
LayerCount: 2
Fore
SplineSet
48 336 m 1
 464 336 l 1
 464 304 l 1
 48 304 l 1
 48 336 l 1
48 272 m 1
 336 272 l 1
 336 240 l 1
 48 240 l 1
 48 272 l 1
48 208 m 1
 464 208 l 1
 464 176 l 1
 48 176 l 1
 48 208 l 1
48 144 m 1
 336 144 l 1
 336 112 l 1
 48 112 l 1
 48 144 l 1
48 80 m 1
 464 80 l 1
 464 48 l 1
 48 48 l 1
 48 80 l 1
EndSplineSet
Validated: 1
EndChar

StartChar: uniF17F
Encoding: 6 61823 5
Width: 512
LayerCount: 2
Fore
SplineSet
32 336 m 2
 448 336 l 2
 465.4883 336 480 321.4883 480 304 c 2
 480 80 l 2
 480 62.5117 465.4883 48 448 48 c 2
 32 48 l 2
 14.5117 48 0 62.5117 0 80 c 2
 0 304 l 2
 0 321.4883 14.5117 336 32 336 c 2
32 304 m 1
 32 80 l 1
 448 80 l 1
 448 304 l 1
 32 304 l 1
64 272 m 1
 96 272 l 1
 96 240 l 1
 64 240 l 1
 64 272 l 1
128 272 m 1
 160 272 l 1
 160 240 l 1
 128 240 l 1
 128 272 l 1
192 272 m 1
 224 272 l 1
 224 240 l 1
 192 240 l 1
 192 272 l 1
256 272 m 1
 288 272 l 1
 288 240 l 1
 256 240 l 1
 256 272 l 1
320 272 m 1
 352 272 l 1
 352 240 l 1
 320 240 l 1
 320 272 l 1
384 272 m 1
 416 272 l 1
 416 240 l 1
 384 240 l 1
 384 272 l 1
64 208 m 1
 128 208 l 1
 128 176 l 1
 64 176 l 1
 64 208 l 1
160 208 m 1
 192 208 l 1
 192 176 l 1
 160 176 l 1
 160 208 l 1
224 208 m 1
 256 208 l 1
 256 176 l 1
 224 176 l 1
 224 208 l 1
288 208 m 1
 320 208 l 1
 320 176 l 1
 288 176 l 1
 288 208 l 1
352 208 m 1
 416 208 l 1
 416 176 l 1
 352 176 l 1
 352 208 l 1
64 144 m 1
 128 144 l 1
 128 112 l 1
 64 112 l 1
 64 144 l 1
160 144 m 1
 320 144 l 1
 320 112 l 1
 160 112 l 1
 160 144 l 1
352 144 m 1
 416 144 l 1
 416 112 l 1
 352 112 l 1
 352 144 l 1
EndSplineSet
Validated: 1
EndChar

StartChar: uniF173
Encoding: 7 61811 6
Width: 512
LayerCount: 2
Fore
SplineSet
80 368 m 5
 432 368 l 5
 432 16 l 5
 80 16 l 5
 80 368 l 5
112 336 m 5
 112 48 l 5
 400 48 l 5
 400 336 l 5
 112 336 l 5
176 288 m 5
 208 288 l 5
 208 208 l 5
 304 208 l 5
 304 288 l 5
 336 288 l 5
 336 96 l 5
 304 96 l 5
 304 176 l 5
 208 176 l 5
 208 96 l 5
 176 96 l 5
 176 288 l 5
EndSplineSet
Validated: 1
EndChar

StartChar: uniF1B5
Encoding: 8 61877 7
Width: 512
Flags: HW
LayerCount: 2
Fore
SplineSet
170 218 m 1
 410 218 l 1
 410 186 l 1
 170 186 l 1
 170 218 l 1
74 218 m 1
 74 186 l 1
 106 186 l 1
 106 218 l 1
 74 218 l 1
42 250 m 1
 138 250 l 1
 138 154 l 1
 42 154 l 1
 42 250 l 1
170 346 m 1
 410 346 l 1
 410 314 l 1
 170 314 l 1
 170 346 l 1
74 346 m 1
 74 314 l 1
 106 314 l 1
 106 346 l 1
 74 346 l 1
42 378 m 1
 138 378 l 1
 138 282 l 1
 42 282 l 1
 42 378 l 1
74 90 m 1
 74 58 l 1
 106 58 l 1
 106 90 l 1
 74 90 l 1
42 122 m 1
 138 122 l 1
 138 26 l 1
 42 26 l 1
 42 122 l 1
395.13671875 105.223632812 m 0
 386.755859375 122.23046875 373.430664062 130.938476562 355.161132812 131.346679688 c 0
 349.001953125 130.96875 343.119140625 129.751953125 337.510742188 127.696289062 c 0
 320.50390625 119.315429688 311.795898438 105.990234375 311.387695312 87.7216796875 c 0
 311.765625 81.5625 312.982421875 75.6796875 315.038085938 70.0712890625 c 0
 323.418945312 53.064453125 336.744140625 44.35546875 355.012695312 43.947265625 c 0
 361.171875 44.3251953125 367.0546875 45.5419921875 372.663085938 47.59765625 c 0
 389.669921875 55.978515625 398.37890625 69.3037109375 398.787109375 87.5732421875 c 0
 398.409179688 93.732421875 397.192382812 99.615234375 395.13671875 105.223632812 c 0
355.205078125 158.8671875 m 2
 367.176757812 158.359375 377.900390625 155.7734375 387.376953125 151.110351562 c 0
 412.908203125 137.165039062 425.885742188 116.010742188 426.307617188 87.6474609375 c 2
 426.307617188 87.51953125 l 2
 425.66796875 73.2744140625 421.583007812 60.2001953125 414.05078125 48.2958984375 c 1
 474.6328125 -12.2646484375 l 1
 454.999023438 -31.8984375 l 1
 394.475585938 28.6396484375 l 1
 382.350585938 21.0927734375 369.290039062 17.0234375 355.293945312 16.4296875 c 2
 354.96875 16.4296875 l 2
 342.993164062 16.9384765625 332.26953125 19.5224609375 322.796875 24.18359375 c 0
 306.435618096 33.1205462262 295.229741809 45.0182128545 289.180017229 59.876850665 c 1
 170 60 l 1
 170 90 l 1
 283.987035464 90 l 1
 284.707020355 101.075480159 287.253008533 111.054436114 291.625 119.938476562 c 0
 305.569335938 145.46875 326.723632812 158.4453125 355.086914062 158.8671875 c 2
 355.205078125 158.8671875 l 2
EndSplineSet
EndChar

StartChar: uniF1D9
Encoding: 9 61913 8
Width: 512
VWidth: 1024
Flags: HW
LayerCount: 2
Fore
SplineSet
260 296.780273438 m 4
 295.15234375 296.780273438 324 267.932617188 324 232.780273438 c 4
 324 197.627929688 295.15234375 168.780273438 260 168.780273438 c 4
 224.84765625 168.780273438 196 197.627929688 196 232.780273438 c 4
 196 267.932617188 224.84765625 296.780273438 260 296.780273438 c 4
260 264.780273438 m 4
 242.143554688 264.780273438 228 250.63671875 228 232.780273438 c 4
 228 214.923828125 242.143554688 200.780273438 260 200.780273438 c 4
 277.856445312 200.780273438 292 214.923828125 292 232.780273438 c 4
 292 250.63671875 277.856445312 264.780273438 260 264.780273438 c 4
260 358.560546875 m 4
 300.8984375 358.560546875 332.197265625 341.9296875 354.384765625 320.22265625 c 4
 376.318359375 298.765625 393.198242188 268.05859375 393.198242188 227.94140625 c 4
 393.198242188 188.083984375 376.296875 157.572265625 354.791015625 136.065429688 c 6
 259.9921875 42.916015625 l 5
 165.615234375 136.057617188 l 6
 143.678710938 157.516601562 126.801757812 187.838867188 126.801757812 227.94140625 c 4
 126.801757812 268.01953125 143.708984375 298.791992188 165.614257812 320.221679688 c 4
 187.692382812 341.821289062 219.40625 358.560546875 260 358.560546875 c 4
260 391.42578125 m 4
 209.830078125 391.42578125 169.002929688 372.21875 142.487304688 343.680664062 c 4
 110.106445312 308.831054688 95.7119140625 278.8984375 93.9365234375 227.94140625 c 5
 93.9365234375 184.41015625 109.98828125 146.12890625 142.53515625 112.548828125 c 5
 260 -2.98828125 l 5
 377.549804688 112.634765625 l 5
 410.109375 146.48828125 426.063476562 184.744140625 426.063476562 228.139648438 c 4
 426.063476562 271.5078125 410.03125 309.842773438 377.512695312 343.680664062 c 4
 349.328125 370.959960938 310.600585938 391.42578125 260 391.42578125 c 4
EndSplineSet
EndChar

StartChar: uniF164
Encoding: 10 61796 9
Width: 512
LayerCount: 2
Fore
SplineSet
240 368 m 5
 301.6641 368 352 317.6641 352 256 c 4
 352 217.4404 332.3203 183.168 302.4961 163.0078 c 5
 359.5684 138.5283 400 81.9199 400 15.9998 c 5
 368 15.9998 l 5
 368 86.8797 310.8799 143.9998 240 143.9998 c 4
 169.1201 143.9998 112 86.8797 112 15.9998 c 5
 80 15.9998 l 5
 80 81.9197 120.4316 138.5118 177.5039 162.9918 c 5
 147.6797 183.1676 128 217.44 128 255.9996 c 4
 128 317.6637 178.3359 367.9996 240 367.9996 c 5
 240 368 l 5
240 336 m 4
 195.6318 336 160 300.3682 160 256 c 4
 160 211.6318 195.6318 176 240 176 c 4
 284.3682 176 320 211.6318 320 256 c 4
 320 300.3682 284.3682 336 240 336 c 4
EndSplineSet
Validated: 1
EndChar

StartChar: uniF145
Encoding: 11 61765 10
Width: 512
LayerCount: 2
Fore
SplineSet
96 352 m 1
 131.1523 352 160 323.1523 160 288 c 0
 160 283.59961 159.360352 279.16797 158.49609 275.0078 c 0
 157.824215 271.69628 156.67187 268.60839 155.51953 265.50389 c 2
 252.48043 210.49609 l 1
 416.00043 303.99999 l 1
 480.00043 303.99999 l 1
 155.52043 118.49599 l 1
 158.16105 111.51943 160.0009 103.90419 160.0009 95.99989 c 0
 160.0009 60.84759 131.1532 31.99989 96.0009 31.99989 c 0
 60.8486 31.99989 32.0009 60.84759 32.0009 95.99989 c 0
 32.0009 131.15219 60.8486 159.99989 96.0009 159.99989 c 0
 111.7128 159.99989 125.8251 154.01551 136.9931 144.49599 c 1
 219.5204 191.48819 l 1
 136.0009 239.00769 l 1
 124.9609 229.9198 111.3124 223.99989 96.0009 223.99989 c 0
 60.8486 223.99989 32.0009 252.84759 32.0009 287.99989 c 0
 32.0009 323.15219 60.8486 351.99989 96.0009 351.99989 c 1
 96 352 l 1
96 320 m 1
 80.3838 320 67.4717 309.168 64.4805 294.4961 c 0
 64.080109 292.4004 64.000031 290.24024 64.000031 288.00001 c 0
 64.000031 270.14361 78.143631 256.00001 96.000031 256.00001 c 0
 113.856431 256.00001 128.000031 270.14361 128.000031 288.00001 c 0
 128.000031 305.85641 113.856431 320.00001 96.000031 320.00001 c 1
 96 320 l 1
305.504 178.992 m 1
 305.504 179.007625 l 1
 480 79.999825 l 1
 416 79.999825 l 1
 273.504 161.503725 l 1
 305.504 178.992 l 1
96 128 m 1
 80.3838 128 67.4717 117.168 64.4805 102.4961 c 0
 64.080109 100.4004 64.000031 98.24024 64.000031 96.00001 c 0
 64.000031 78.14361 78.143631 64.00001 96.000031 64.00001 c 0
 113.856431 64.00001 128.000031 78.14361 128.000031 96.00001 c 0
 128.000031 113.85641 113.856431 128.00001 96.000031 128.00001 c 1
 96 128 l 1
EndSplineSet
Validated: 1
EndChar

StartChar: uniF16F
Encoding: 12 61807 11
Width: 512
Flags: HW
LayerCount: 2
Fore
SplineSet
355.9609375 244.383789062 m 5
 348.123046875 253.458984375 341.650390625 267.029296875 341.650390625 282.751953125 c 4
 341.650390625 300.306640625 349.59765625 314.721679688 358.915039062 324.0390625 c 4
 368.319335938 333.442382812 382.438476562 341.302734375 400.201171875 341.302734375 c 4
 417.756835938 341.302734375 432.168945312 333.357421875 441.487304688 324.0390625 c 4
 450.815429688 314.7109375 458.751953125 300.322265625 458.751953125 282.751953125 c 4
 458.751953125 267.037109375 452.264648438 253.438476562 444.432617188 244.373046875 c 5
 463.095703125 233.27734375 477.3828125 215.518554688 483.859375 192.6171875 c 4
 485.970703125 185.151367188 487.026367188 177.491210938 487.026367188 169.651367188 c 6
 487.026367188 167.651367188 l 5
 454.751953125 167.651367188 l 5
 454.751953125 169.651367188 l 6
 454.751953125 186.001953125 447.3046875 199.463867188 438.659179688 208.109375 c 4
 430.004882812 216.764648438 416.564453125 224.202148438 400.201171875 224.202148438 c 4
 383.63671875 224.202148438 370.47265625 216.83984375 361.743164062 208.109375 c 4
 353.088867188 199.455078125 345.650390625 186.013671875 345.650390625 169.651367188 c 4
 345.650390625 140.071289062 330.594726562 115.807617188 312.889648438 101.712890625 c 5
 339.625976562 87.251953125 360.225585938 63.3369140625 369.427734375 31.818359375 c 4
 372.426757812 21.548828125 373.92578125 10.9375 373.92578125 0 c 6
 373.92578125 -2 l 5
 341.650390625 -2 l 5
 341.650390625 0 l 6
 341.650390625 25.099609375 330.546875 45.177734375 317.275390625 58.4501953125 c 4
 303.989257812 71.734375 283.942382812 82.826171875 258.825195312 82.826171875 c 4
 233.7265625 82.826171875 213.647460938 71.720703125 200.375 58.4501953125 c 4
 187.090820312 45.1640625 176 25.1181640625 176 0 c 6
 176 -2 l 5
 143.724609375 -2 l 5
 143.724609375 0 l 6
 143.724609375 24.3466796875 151.104492188 44.6171875 161.034179688 60.5869140625 c 4
 171.606445312 77.5869140625 186.764648438 91.978515625 204.760742188 101.712890625 c 5
 187.034179688 115.82421875 172 140.048828125 172 169.651367188 c 4
 172 186.000976562 164.552734375 199.463867188 155.907226562 208.109375 c 4
 147.252929688 216.763671875 133.811523438 224.202148438 117.44921875 224.202148438 c 4
 100.884765625 224.202148438 87.720703125 216.83984375 78.9912109375 208.109375 c 4
 70.3369140625 199.455078125 62.8984375 186.014648438 62.8984375 169.651367188 c 6
 62.8984375 167.651367188 l 5
 30.6240234375 167.651367188 l 5
 30.6240234375 169.651367188 l 6
 30.6240234375 197.174804688 42.5009765625 217.564453125 56.84375 231.711914062 c 4
 61.8173828125 236.620117188 67.279296875 240.842773438 73.2177734375 244.373046875 c 5
 65.375 253.450195312 58.8984375 267.022460938 58.8984375 282.751953125 c 4
 58.8984375 300.307617188 66.845703125 314.720703125 76.1630859375 324.0390625 c 4
 85.5673828125 333.442382812 99.6865234375 341.302734375 117.44921875 341.302734375 c 4
 135.002929688 341.302734375 149.416992188 333.356445312 158.735351562 324.0390625 c 4
 168.063476562 314.7109375 176 300.3203125 176 282.751953125 c 4
 176 267.04296875 169.517578125 253.447265625 161.689453125 244.383789062 c 5
 172.221679688 238.20703125 181.059570312 230.064453125 188.15625 220.00390625 c 5
 202.364257812 239.693359375 227.229492188 256.4765625 258.825195312 256.4765625 c 4
 290.3984375 256.4765625 315.301757812 239.671875 329.494140625 220.00390625 c 5
 336.590820312 230.064453125 345.428710938 238.20703125 355.9609375 244.383789062 c 5
91.173828125 282.751953125 m 4
 91.173828125 270.500976562 98.509765625 262.298828125 107.200195312 258.520507812 c 4
 110.325195312 257.162109375 113.725585938 256.4765625 117.44921875 256.4765625 c 4
 129.701171875 256.4765625 137.901367188 263.8125 141.680664062 272.502929688 c 4
 143.0390625 275.627929688 143.724609375 279.028320312 143.724609375 282.751953125 c 4
 143.724609375 295.00390625 136.388671875 303.205078125 127.698242188 306.983398438 c 4
 124.573242188 308.341796875 121.172851562 309.02734375 117.44921875 309.02734375 c 4
 105.197265625 309.02734375 96.99609375 301.69140625 93.2177734375 293.000976562 c 4
 91.859375 289.876953125 91.173828125 286.4765625 91.173828125 282.751953125 c 4
258.825195312 115.100585938 m 4
 275.174804688 115.100585938 288.637695312 122.547851562 297.283203125 131.193359375 c 4
 306.021484375 139.931640625 313.375976562 153.075195312 313.375976562 169.651367188 c 4
 313.375976562 186.000976562 305.928710938 199.463867188 297.283203125 208.109375 c 4
 288.62890625 216.763671875 275.1875 224.202148438 258.825195312 224.202148438 c 4
 242.260742188 224.202148438 229.096679688 216.83984375 220.3671875 208.109375 c 4
 211.712890625 199.455078125 204.274414062 186.013671875 204.274414062 169.651367188 c 4
 204.274414062 153.086914062 211.63671875 139.922851562 220.3671875 131.193359375 c 4
 229.10546875 122.455078125 242.249023438 115.100585938 258.825195312 115.100585938 c 4
373.92578125 282.751953125 m 4
 373.92578125 270.500976562 381.26171875 262.298828125 389.952148438 258.520507812 c 4
 393.077148438 257.162109375 396.477539062 256.4765625 400.201171875 256.4765625 c 4
 412.453125 256.4765625 420.653320312 263.8125 424.432617188 272.502929688 c 4
 425.791015625 275.627929688 426.4765625 279.028320312 426.4765625 282.751953125 c 4
 426.4765625 295.00390625 419.140625 303.205078125 410.450195312 306.983398438 c 4
 407.325195312 308.341796875 403.924804688 309.02734375 400.201171875 309.02734375 c 4
 387.94921875 309.02734375 379.748046875 301.69140625 375.969726562 293.000976562 c 4
 374.611328125 289.876953125 373.92578125 286.4765625 373.92578125 282.751953125 c 4
EndSplineSet
EndChar

StartChar: uniF10F
Encoding: 13 61711 12
Width: 512
LayerCount: 2
Fore
SplineSet
256 342.496 m 1
 267.5195 331.5194 l 1
 467.5195 131.5194 l 1
 444.4804 108.5282 l 1
 256.0004 297.0072 l 1
 67.5204 108.4632 l 1
 44.4813 131.5032 l 1
 244.4813 331.5032 l 1
 256 342.496 l 1
EndSplineSet
Validated: 1
EndChar

StartChar: uniF142
Encoding: 14 61762 13
Width: 512
VWidth: 2048
Flags: HW
LayerCount: 2
Fore
SplineSet
155 125.825195312 m 1
 187.274414062 125.825195312 l 1
 187.274414062 93.55078125 l 1
 155 93.55078125 l 1
 155 125.825195312 l 1
239.825195312 125.825195312 m 1
 272.100585938 125.825195312 l 1
 272.100585938 93.55078125 l 1
 239.825195312 93.55078125 l 1
 239.825195312 125.825195312 l 1
324.651367188 125.825195312 m 1
 356.92578125 125.825195312 l 1
 356.92578125 93.55078125 l 1
 324.651367188 93.55078125 l 1
 324.651367188 125.825195312 l 1
155 41 m 1
 187.274414062 41 l 1
 187.274414062 8.724609375 l 1
 155 8.724609375 l 1
 155 41 l 1
239.825195312 41 m 1
 272.100585938 41 l 1
 272.100585938 8.724609375 l 1
 239.825195312 8.724609375 l 1
 239.825195312 41 l 1
324.651367188 41 m 1
 356.92578125 41 l 1
 356.92578125 8.724609375 l 1
 324.651367188 8.724609375 l 1
 324.651367188 41 l 1
411.4765625 178.375976562 m 2
 354.92578125 178.375976562 l 1
 341.786132812 179.1484375 332.483398438 185.334960938 327.01953125 196.935546875 c 0
 325.564453125 201.022460938 324.775390625 204.927734375 324.651367188 208.651367188 c 2
 324.651367188 234.926757812 l 1
 187.274414062 234.926757812 l 1
 187.274414062 208.651367188 l 1
 186.501953125 195.51171875 180.31640625 186.208984375 168.715820312 180.744140625 c 0
 164.62890625 179.2890625 160.723632812 178.5 157 178.375976562 c 2
 100.44921875 178.375976562 l 1
 87.30859375 179.1484375 78.005859375 185.334960938 72.5419921875 196.935546875 c 0
 71.0869140625 201.022460938 70.2978515625 204.927734375 70.173828125 208.651367188 c 2
 70.173828125 236.926757812 l 2
 70.8310546875 263.658203125 83.302734375 287.040039062 107.590820312 307.07421875 c 0
 138.475585938 331.23046875 177.962890625 345.696289062 226.051757812 350.470703125 c 0
 269.345703125 354.520507812 310.201171875 349.99609375 348.620117188 336.896484375 c 0
 383.184570312 324.598632812 408.80078125 307.275390625 425.467773438 284.927734375 c 0
 436.108398438 269.489257812 441.536132812 253.489257812 441.751953125 236.926757812 c 2
 441.751953125 208.651367188 l 1
 440.979492188 195.510742188 434.79296875 186.208007812 423.192382812 180.744140625 c 0
 419.482421875 179.165039062 415.577148438 178.375976562 411.4765625 178.375976562 c 2
102.44921875 210.651367188 m 1
 155 210.651367188 l 1
 155 236.926757812 l 2
 155.256835938 241.439453125 156.047851562 245.385742188 157.374023438 248.767578125 c 0
 159.345703125 252.591796875 161.510742188 255.780273438 163.869140625 258.33203125 c 0
 167.083007812 261.140625 170.270507812 263.305664062 173.43359375 264.827148438 c 0
 177.4765625 266.287109375 181.423828125 267.079101562 185.274414062 267.201171875 c 2
 326.651367188 267.201171875 l 2
 331.1640625 266.944335938 335.110351562 266.153320312 338.4921875 264.827148438 c 0
 342.31640625 262.85546875 345.504882812 260.690429688 348.056640625 258.33203125 c 0
 350.865234375 255.118164062 353.030273438 251.930664062 354.551757812 248.767578125 c 0
 356.01171875 244.724609375 356.803710938 240.77734375 356.92578125 236.926757812 c 2
 356.92578125 210.651367188 l 1
 409.4765625 210.651367188 l 1
 409.4765625 236.926757812 l 2
 409.211914062 243.404296875 408.014648438 249.249023438 405.88671875 254.462890625 c 0
 403.11328125 260.287109375 399.935546875 265.428710938 396.354492188 269.88671875 c 0
 377.87890625 290.758789062 350.377929688 305.297851562 313.849609375 313.502929688 c 0
 294.8828125 317.669921875 275.586914062 319.752929688 255.962890625 319.751953125 c 0
 225.34375 319.751953125 196.634765625 314.932617188 169.834960938 305.29296875 c 0
 137.124023438 292.854492188 115.858398438 275.911132812 106.0390625 254.462890625 c 0
 103.774414062 248.579101562 102.577148438 242.733398438 102.44921875 236.926757812 c 2
 102.44921875 210.651367188 l 1
EndSplineSet
EndChar

StartChar: uniF154
Encoding: 15 61780 14
Width: 512
LayerCount: 2
Fore
SplineSet
302 384 m 1
 325.0078 361.9844 l 1
 228.4805 259.5044 l 1
 344.4805 189.5044 l 1
 361.9844 178.9927 l 1
 347.5039 164.481 l 1
 214.9919 32.001 l 1
 287.9997 32.001 l 1
 287.9997 0.001 l 1
 159.9997 0.001 l 1
 159.9997 128.001 l 1
 191.9997 128.001 l 1
 191.9997 54.9932 l 1
 309.9837 173.0092 l 1
 194.9917 242.5131 l 1
 177.9839 252.49748 l 1
 191.5034 266.99358 l 1
 302 384 l 1
EndSplineSet
Validated: 1
EndChar

StartChar: uniF152
Encoding: 16 61778 15
Width: 512
LayerCount: 2
Fore
SplineSet
256 368 m 1
 310.0479 368 354.2402 333.8721 373.504 287.0078 c 1
 429.9356 284.09569 474.784 239.2324 478.496 183.0078 c 1
 498.3202 165.376 511.9999 140.1601 511.9999 112 c 0
 511.9999 58.8164 469.1835 16 415.9999 16 c 2
 95.9999 16 l 2
 42.8163 16 -9.99999999749e-05 58.8164 -9.99999999749e-05 112 c 0
 -9.99999999749e-05 156.0322 30.1435 191.1357 69.5038 202.4805 c 1
 79.05556 229.6797 102.288 249.2002 130.9921 254 c 1
 138.24015 317.9199 190.08 368 256.0001 368 c 1
 256 368 l 1
256 336 m 1
 202.0801 336 160 293.9199 160 240 c 2
 160 224 l 1
 144 224 l 2
 120.8965 224 101.792 208.5918 96.9922 187.0078 c 2
 94.9922 176.4961 l 1
 84.4805 174.4961 l 2
 55.2002 169.40821 32 144.3203 32 112 c 0
 32 75.584 59.584 48 96 48 c 2
 416 48 l 2
 452.416 48 480 75.584 480 112 c 0
 480 132.2725 469.5996 151.6797 454.4961 162.9922 c 2
 448.00001 168.00001 l 1
 448.00001 176.00001 l 2
 448.00001 220.08011 412.08011 256.00001 368.00001 256.00001 c 2
 351.51951 256.00001 l 1
 347.99998 267.51951 l 2
 335.51948 307.67971 300.19238 336.00001 255.99998 336.00001 c 1
 256 336 l 1
240 256 m 1
 272 256 l 1
 272 150.992 l 1
 308.4805 187.5193 l 1
 331.5196 164.4802 l 1
 267.5196 100.4802 l 1
 256.0001 89.488 l 1
 244.4806 100.4636 l 1
 180.4806 164.4636 l 1
 203.5197 187.5036 l 1
 240.0002 150.9919 l 1
 240.0002 255.9999 l 1
 240 256 l 1
EndSplineSet
Validated: 5
EndChar

StartChar: uniF162
Encoding: 17 61794 16
Width: 512
LayerCount: 2
Fore
SplineSet
256 400 m 0
 370.688 400 464 306.6885 464 192 c 0
 464 77.3115 370.6885 -16 256 -16 c 0
 141.3115 -16 48 77.3115 48 192 c 0
 48 306.6885 141.3115 400 256 400 c 0
256 368 m 0
 246.43164 368 237.1523 366.94434 228 365.50391 c 1
 256 345.50391 l 1
 284 365.50391 l 1
 274.7998 366.99219 265.6318 368 256 368 c 0
188.992 354.496 m 1
 189.0242266 354.511625 l 1
 162.9754266 343.791925 139.9998266 327.152225 122.0154266 306.032125 c 1
 144.4959266 238.032125 l 1
 148.0154566 227.039925 l 1
 138.5115466 220.511605 l 1
 81.0242466 178.511605 l 1
 83.1677966 150.095605 91.5037466 123.536005 105.5037466 100.496005 c 1
 189.0242466 100.496005 l 1
 192.4959266 89.488205 l 1
 214.4959266 21.007705 l 1
 227.8074266 17.791885 241.6795266 15.999895 255.9998266 15.999895 c 0
 269.7596266 15.999895 283.1678266 17.519425 295.9998266 20.480365 c 1
 318.4803266 90.015565 l 1
 321.9676266 101.024365 l 1
 406.4803266 101.024365 l 1
 420.2401266 123.919865 428.8475266 150.320265 430.9920266 178.511665 c 1
 372.9920266 221.007765 l 1
 363.5037466 227.536085 l 1
 366.9920266 238.528285 l 1
 388.9920266 307.039985 l 1
 371.1522266 327.648385 348.5916266 343.919885 322.9920266 354.528285 c 1
 265.5037266 312.511685 l 1
 255.9998166 305.519495 l 1
 246.4959066 312.496055 l 1
 188.992 354.496 l 1
256 286.496 m 1
 256.0322266 286.4637734 l 1
 265.5361366 279.4881834 l 1
 338.5283366 226.4803834 l 1
 347.5517766 219.5038234 l 1
 344.0322466 208.4638234 l 1
 316.0322466 122.9755234 l 1
 312.5117366 111.9677234 l 1
 199.5357366 111.9677234 l 1
 196.0152266 122.9755234 l 1
 168.0152266 208.4482234 l 1
 164.4956966 219.4882234 l 1
 173.5035066 226.4804134 l 1
 246.4957066 279.5038134 l 1
 256 286.496 l 1
412 273.504 m 1
 400.9922 239.4884 l 1
 429.5039 219.0079 l 1
 426.51171 238.4005 420.75195 256.752 412 273.504 c 1
99.5195 272.496 m 1
 99.503875 272.511625 l 1
 91.024385 256.047725 85.423775 238.047725 82.496075 219.007725 c 1
 110.496075 239.536025 l 1
 99.5195 272.496 l 1
256 246.512 m 1
 256 246.48075 l 1
 202 207.51985 l 1
 222.4805 144.00035 l 1
 289.5196 144.00035 l 1
 310.0001 207.51985 l 1
 256 246.512 l 1
345.504 69.0078 m 1
 345.504 69.0244016 l 1
 334.4962 34.5117016 l 1
 352.2237 43.3603316 367.8566 54.9756016 381.504 69.0078016 c 1
 345.504 69.0078016 l 1
 345.504 69.0078 l 1
130.496 68.5283 m 1
 130.511625 68.5116984 l 2
 143.824125 55.0077984 159.408125 43.6796984 176.496025 35.0077984 c 1
 165.503825 68.5282984 l 1
 130.496025 68.5282984 l 1
 130.496 68.5283 l 1
EndSplineSet
Validated: 5
EndChar

StartChar: uniF1E7
Encoding: 18 61927 17
Width: 512
Flags: HW
LayerCount: 2
Fore
SplineSet
335.474609375 152.215820312 m 1
 338.751953125 155.4921875 351.5859375 168.053710938 373.977539062 189.899414062 c 2
 412.479492188 227.172851562 l 1
 306.393554688 242.737304688 l 1
 258.470703125 338.993164062 l 1
 210.95703125 242.737304688 l 1
 104.4609375 227.172851562 l 1
 181.875 152.215820312 l 1
 163.443359375 46.12890625 l 1
 258.470703125 96.5107421875 l 1
 353.497070312 46.12890625 l 1
 335.474609375 152.215820312 l 1
468.185546875 242.328125 m 1
 468.185546875 238.778320312 466.000976562 234.818359375 461.631835938 230.44921875 c 2
 370.291015625 141.15625 l 1
 392 15 l 2
 392.272460938 13.9072265625 392.409179688 12.26953125 392.409179688 10.0849609375 c 0
 392.409179688 1.619140625 388.859375 -2.61328125 381.759765625 -2.61328125 c 0
 378.755859375 -2.61328125 375.479492188 -1.6572265625 371.9296875 0.25390625 c 2
 258.879882812 60.0556640625 l 1
 145.420898438 0.25390625 l 2
 141.87109375 -1.6572265625 138.45703125 -2.61328125 135.180664062 -2.61328125 c 128
 131.904296875 -2.61328125 129.377929688 -1.384765625 127.602539062 1.0732421875 c 128
 125.828125 3.53125 124.940429688 6.53515625 124.940429688 10.0849609375 c 0
 124.940429688 10.904296875 125.077148438 12.5419921875 125.350585938 15 c 2
 147.059570312 141.15625 l 1
 55.30859375 230.44921875 l 2
 51.212890625 234.818359375 49.1650390625 238.778320312 49.1650390625 242.328125 c 0
 48.8916015625 248.608398438 53.533203125 252.430664062 63.0908203125 253.796875 c 2
 189.657226562 272.228515625 l 1
 246.182617188 386.916992188 l 2
 249.458984375 394.016601562 253.623046875 397.56640625 258.674804688 397.56640625 c 128
 263.7265625 397.56640625 267.890625 394.016601562 271.16796875 386.916992188 c 2
 327.692382812 272.228515625 l 1
 454.258789062 253.796875 l 2
 463.81640625 252.430664062 468.594726562 248.608398438 468.594726562 242.328125 c 1
 468.185546875 242.328125 l 1
EndSplineSet
EndChar

StartChar: uniF1AF
Encoding: 19 61871 18
Width: 512
LayerCount: 2
Fore
SplineSet
256 414.496 m 1
 267.5195 403.5194 l 1
 395.5195 275.5194 l 1
 372.4804 252.4803 l 1
 272.0004 352.9923 l 1
 272.0004 30.9923 l 1
 372.4804 131.5683 l 1
 395.5195 108.5283 l 1
 267.5195 -19.4717 l 1
 256 -30.4639 l 1
 244.4805 -19.4883 l 1
 116.4805 108.5117 l 1
 139.5196 131.5039 l 1
 239.9996 31.0249 l 1
 239.9996 353.0249 l 1
 139.5196 252.4639 l 1
 116.4805 275.5039 l 1
 244.4805 403.5039 l 1
 256 414.496 l 1
EndSplineSet
Validated: 1
EndChar

StartChar: uniF10D
Encoding: 20 61709 19
Width: 512
LayerCount: 2
Fore
SplineSet
304.48 379.52 m 1
 327.4712 356.4809 l 1
 162.9922 192.0009 l 1
 327.5362 27.5209 l 1
 304.4962 4.4818 l 1
 128.4962 180.4818 l 1
 117.504 192.0013 l 1
 128.4806 203.5208 l 1
 304.48 379.52 l 1
EndSplineSet
Validated: 1
EndChar

StartChar: uniF137
Encoding: 21 61751 20
Width: 512
Flags: HW
LayerCount: 2
Fore
SplineSet
325.592773438 298.889648438 m 4
 325.592773438 320.483398438 315.749023438 335.754882812 303.9921875 346.990234375 c 5
 326.442382812 370.196289062 l 5
 343.6796875 353.499023438 357.868164062 330.546875 357.868164062 298.889648438 c 4
 357.868164062 267.235351562 343.66796875 244.26953125 326.442382812 227.58203125 c 5
 303.9921875 250.7890625 l 5
 315.751953125 262.025390625 325.592773438 277.3046875 325.592773438 298.889648438 c 4
414.41796875 298.889648438 m 4
 414.41796875 262.391601562 402.651367188 234.083007812 387.224609375 211.821289062 c 4
 380.932617188 202.744140625 373.703125 194.571289062 365.756835938 186.942382812 c 5
 343.318359375 210.137695312 l 5
 364.754882812 230.798828125 382.143554688 259.669921875 382.143554688 298.889648438 c 4
 382.143554688 338.094726562 364.737304688 366.998046875 343.318359375 387.641601562 c 5
 365.756835938 410.8359375 l 5
 387.173828125 390.276367188 404.221679688 364.087890625 411.28515625 329.778320312 c 4
 413.374023438 319.631835938 414.41796875 309.333984375 414.41796875 298.889648438 c 4
155.057617188 298.889648438 m 4
 155.057617188 330.54296875 169.2578125 353.509765625 186.483398438 370.196289062 c 5
 208.93359375 346.990234375 l 5
 197.174804688 335.752929688 187.333007812 320.474609375 187.333007812 298.889648438 c 4
 187.333007812 277.295898438 197.176757812 262.022460938 208.93359375 250.7890625 c 5
 186.483398438 227.58203125 l 5
 169.24609375 244.28125 155.057617188 267.231445312 155.057617188 298.889648438 c 4
98.5078125 298.889648438 m 4
 98.5078125 335.38671875 110.274414062 363.697265625 125.702148438 385.95703125 c 4
 131.993164062 395.03515625 139.223632812 403.208007812 147.169921875 410.8359375 c 5
 169.607421875 387.641601562 l 5
 148.170898438 366.981445312 130.782226562 338.108398438 130.782226562 298.889648438 c 4
 130.782226562 259.682617188 148.188476562 230.78125 169.607421875 210.137695312 c 5
 147.169921875 186.942382812 l 5
 125.751953125 207.504882812 108.704101562 233.689453125 101.640625 268.000976562 c 4
 99.5517578125 278.147460938 98.5078125 288.4453125 98.5078125 298.889648438 c 4
228.057617188 264.83984375 m 5
 219.245117188 272.087890625 212.049804688 283.916992188 212.049804688 298.889648438 c 4
 212.049804688 319.518554688 224.368164062 333.509765625 239.109375 339.827148438 c 4
 244.517578125 342.145507812 250.317382812 343.301757812 256.462890625 343.301757812 c 4
 277.091796875 343.301757812 291.084960938 330.984375 297.40234375 316.243164062 c 4
 299.719726562 310.834960938 300.875976562 305.03515625 300.875976562 298.889648438 c 4
 300.875976562 283.928710938 293.670898438 272.079101562 284.868164062 264.83984375 c 5
 373 0 l 5
 339.1875 0 l 5
 320.189453125 56.5498046875 l 5
 192.736328125 56.5498046875 l 5
 173.73828125 0 l 5
 139.92578125 0 l 5
 228.057617188 264.83984375 l 5
268.600585938 298.889648438 m 4
 268.600585938 305.384765625 262.958007812 311.02734375 256.462890625 311.02734375 c 4
 249.967773438 311.02734375 244.325195312 305.383789062 244.325195312 298.889648438 c 4
 244.325195312 292.39453125 249.96875 286.751953125 256.462890625 286.751953125 c 4
 262.958007812 286.751953125 268.600585938 292.395507812 268.600585938 298.889648438 c 4
281.297851562 173.651367188 m 5
 256.462890625 247.95703125 l 5
 231.627929688 173.651367188 l 5
 281.297851562 173.651367188 l 5
203.357421875 88.8251953125 m 5
 309.568359375 88.8251953125 l 5
 291.915039062 141.375976562 l 5
 221.010742188 141.375976562 l 5
 203.357421875 88.8251953125 l 5
EndSplineSet
EndChar

StartChar: uniF1A6
Encoding: 22 61862 21
Width: 512
LayerCount: 2
Fore
SplineSet
272 400 m 0
 307.3604 400 336 371.3604 336 336 c 1
 432 336 l 1
 432 224 l 1
 400 224 l 2
 380.96 224 368 211.04 368 192 c 0
 368 172.96 380.96 160 400 160 c 2
 432 160 l 1
 432 48 l 1
 336 48 l 1
 336 12.6396 307.3604 -16 272 -16 c 0
 236.6396 -16 208 12.6396 208 48 c 1
 112 48 l 1
 112 128 l 1
 76.6396 128 48 156.6396 48 192 c 0
 48 227.3604 76.6396 256 112 256 c 1
 112 336 l 1
 208 336 l 1
 208 371.3604 236.6396 400 272 400 c 0
272 368 m 0
 252.96 368 240 355.04 240 336 c 2
 240 304 l 1
 144 304 l 1
 144 224 l 1
 112 224 l 2
 92.96 224 80 211.04 80 192 c 0
 80 172.96 92.96 160 112 160 c 2
 144 160 l 1
 144 80 l 1
 240 80 l 1
 240 48 l 2
 240 28.96 252.96 16 272 16 c 0
 291.04 16 304 28.96 304 48 c 2
 304 80 l 1
 400 80 l 1
 400 128 l 1
 364.6396 128 336 156.6396 336 192 c 0
 336 227.3604 364.6396 256 400 256 c 1
 400 304 l 1
 304 304 l 1
 304 336 l 2
 304 355.04 291.04 368 272 368 c 0
EndSplineSet
Validated: 1
EndChar

StartChar: uniF13D
Encoding: 23 61757 22
Width: 512
LayerCount: 2
Fore
SplineSet
80 368 m 1
 432 368 l 1
 432 16 l 1
 80 16 l 1
 80 368 l 1
112 336 m 1
 112 48 l 1
 240 48 l 1
 240 336 l 1
 112 336 l 1
272 336 m 1
 272 48 l 1
 400 48 l 1
 400 336 l 1
 272 336 l 1
EndSplineSet
Validated: 1
EndChar

StartChar: uniF17A
Encoding: 24 61818 23
Width: 512
LayerCount: 2
Fore
SplineSet
80 352 m 6
 432 352 l 6
 458.3203 352 480 330.3203 480 304 c 6
 480 80 l 6
 480 53.6797 458.3203 32 432 32 c 6
 80 32 l 6
 53.6797 32 32 53.6797 32 80 c 6
 32 304 l 6
 32 330.3203 53.6797 352 80 352 c 6
80 320 m 6
 71.12012 320 64 312.87988 64 304 c 6
 64 80 l 6
 64 71.12012 71.12012 64 80 64 c 6
 432 64 l 6
 440.87988 64 448 71.12012 448 80 c 6
 448 304 l 6
 448 312.87988 440.87988 320 432 320 c 6
 80 320 l 6
96 208 m 4
 104.83203 208 112 200.83203 112 192 c 4
 112 183.16797 104.83203 176 96 176 c 4
 87.16797 176 80 183.16797 80 192 c 4
 80 200.83203 87.16797 208 96 208 c 4
EndSplineSet
Validated: 1
EndChar

StartChar: uniF15A
Encoding: 25 61786 24
Width: 512
LayerCount: 2
Fore
SplineSet
192 368 m 1
 384 368 l 1
 384 288 l 1
 448 288 l 1
 448 32 l 1
 192 32 l 1
 192 16 l 2
 192 -10.3203 170.3203 -32 144 -32 c 0
 117.6797 -32 96 -10.3203 96 16 c 2
 96 32 l 1
 64 32 l 1
 64 320 l 1
 160 320 l 1
 160 288 l 1
 192 288 l 1
 192 368 l 1
224 336 m 1
 224 256 l 1
 352 256 l 1
 352 336 l 1
 224 336 l 1
96 288 m 1
 96 64 l 1
 128 64 l 1
 128 288 l 1
 96 288 l 1
160 256 m 1
 160 64 l 1
 416 64 l 1
 416 256 l 1
 384 256 l 1
 384 224 l 1
 192 224 l 1
 192 256 l 1
 160 256 l 1
208 192 m 1
 240 192 l 1
 240 160 l 1
 208 160 l 1
 208 192 l 1
272 192 m 1
 304 192 l 1
 304 160 l 1
 272 160 l 1
 272 192 l 1
336 192 m 1
 368 192 l 1
 368 160 l 1
 336 160 l 1
 336 192 l 1
208 128 m 1
 240 128 l 1
 240 96 l 1
 208 96 l 1
 208 128 l 1
272 128 m 1
 304 128 l 1
 304 96 l 1
 272 96 l 1
 272 128 l 1
336 128 m 1
 368 128 l 1
 368 96 l 1
 336 96 l 1
 336 128 l 1
128 32 m 1
 128 16 l 2
 128 7.12012 135.12012 0 144 0 c 0
 152.87988 0 160 7.12012 160 16 c 2
 160 32 l 1
 128 32 l 1
EndSplineSet
Validated: 1
EndChar

StartChar: uniF1A9
Encoding: 26 61865 25
Width: 512
LayerCount: 2
Fore
SplineSet
256 384.48 m 1
 256.015625 384.4633984 l 1
 272.879925 384.4633984 289.904325 376.2231684 300.015625 360.4633984 c 2
 350.015625 279.5033984 l 1
 373.007825 293.0072984 l 1
 373.007825 207.9994984 l 1
 298.975625 249.4877984 l 1
 322.975625 263.5033984 l 1
 272.975625 343.5033984 l 2
 264.511755 356.6713984 248.143625 356.3832984 239.503925 343.5033984 c 2
 194.511725 270.0150984 l 1
 166.992225 286.4955984 l 1
 212.000025 360.4799984 l 2
 222.112325 376.2397984 239.135725 384.4799984 256.000025 384.4799984 c 1
 256 384.48 l 1
166.496 254.496 m 5
 166.480375 254.496 l 5
 166.480375 169.5038 l 5
 141.999875 184.4804 l 5
 99.999875 116.4804 l 5
 99.999875 115.999931 l 5
 99.519406 115.519462 l 6
 88.864106 99.999962 99.727414 79.999962 119.999906 79.999962 c 6
 207.999906 79.999962 l 5
 207.999906 47.999962 l 5
 119.999906 47.999962 l 6
 76.608306 47.999962 49.471606 97.343762 72.992106 133.024362 c 4
 73.183512 133.280221 72.799723 133.711862 72.992106 133.984323 c 5
 73.503825 133.503854 l 5
 114.496025 200.992154 l 5
 94.496025 212.992154 l 5
 166.496 254.496 l 5
400.992 197.504 m 1
 400.992 197.488375 l 1
 440.992 133.488375 l 1
 440.992 133.007906 l 1
 462.7518 96.000106 435.6961 48.000106 393.5037 48.000106 c 2
 303.9998 48.000106 l 1
 303.9998 16.000106 l 1
 225.5037 64.015706 l 1
 303.9998 112.015706 l 1
 303.9998 80.015706 l 1
 393.5037 80.015706 l 2
 412.1121 80.015706 423.7439 99.103606 413.5037 116.496206 c 2
 373.5037 180.496206 l 1
 400.992 197.504 l 1
EndSplineSet
Validated: 37
EndChar

StartChar: uniF185
Encoding: 27 61829 26
Width: 512
LayerCount: 2
Fore
SplineSet
336 382.496 m 1
 336 382.511625 l 1
 347.5195 371.536025 l 1
 443.5195 275.536025 l 1
 420.4804 252.496025 l 1
 351.9999 321.007725 l 1
 351.9999 15.999725 l 1
 79.9999 15.999725 l 1
 79.9999 47.999725 l 1
 319.9999 47.999725 l 1
 319.9999 321.023725 l 1
 251.5194 252.463225 l 1
 228.4803 275.503225 l 1
 324.4803 371.503225 l 1
 336 382.496 l 1
EndSplineSet
Validated: 1
EndChar

StartChar: uniF1C4
Encoding: 28 61892 27
Width: 512
VWidth: 2048
Flags: HW
LayerCount: 2
Fore
SplineSet
239.926757812 185.375976562 m 1
 42 185.375976562 l 1
 42 328.751953125 l 2
 42.2568359375 333.264648438 43.0478515625 337.2109375 44.3740234375 340.592773438 c 0
 46.345703125 344.416992188 48.5107421875 347.60546875 50.8701171875 350.157226562 c 0
 54.083984375 352.966796875 57.271484375 355.131835938 60.4345703125 356.653320312 c 0
 64.4775390625 358.11328125 68.4248046875 358.905273438 72.275390625 359.02734375 c 2
 439.853515625 359.02734375 l 2
 444.366210938 358.770507812 448.3125 357.979492188 451.694335938 356.653320312 c 0
 455.518554688 354.681640625 458.70703125 352.516601562 461.258789062 350.157226562 c 0
 464.068359375 346.944335938 466.233398438 343.755859375 467.754882812 340.592773438 c 0
 469.21484375 336.549804688 470.006835938 332.602539062 470.12890625 328.751953125 c 2
 470.12890625 185.375976562 l 1
 272.202148438 185.375976562 l 1
 272.202148438 161.100585938 l 1
 300.477539062 161.100585938 l 1
 300.477539062 104.55078125 l 1
 357.02734375 104.55078125 l 1
 357.02734375 76.275390625 l 1
 470.12890625 76.275390625 l 1
 470.12890625 44 l 1
 357.02734375 44 l 1
 357.02734375 15.724609375 l 1
 155.1015625 15.724609375 l 1
 155.1015625 44 l 1
 42 44 l 1
 42 76.275390625 l 1
 155.1015625 76.275390625 l 1
 155.1015625 104.55078125 l 1
 211.651367188 104.55078125 l 1
 211.651367188 161.100585938 l 1
 239.926757812 161.100585938 l 1
 239.926757812 185.375976562 l 1
268.202148438 72.275390625 m 1
 268.202148438 128.825195312 l 1
 243.926757812 128.825195312 l 1
 243.926757812 72.275390625 l 1
 187.375976562 72.275390625 l 1
 187.375976562 48 l 1
 324.752929688 48 l 1
 324.752929688 72.275390625 l 1
 268.202148438 72.275390625 l 1
74.275390625 326.751953125 m 1
 74.275390625 217.651367188 l 1
 437.853515625 217.651367188 l 1
 437.853515625 326.751953125 l 1
 74.275390625 326.751953125 l 1
381.302734375 286.338867188 m 0
 382.479492188 296.44921875 387.859375 301.828125 397.440429688 302.4765625 c 0
 401.989257812 301.946289062 405.774414062 300.352539062 408.794921875 297.693359375 c 0
 411.71875 294.037109375 413.313476562 290.251953125 413.578125 286.338867188 c 0
 412.401367188 276.228515625 407.021484375 270.849609375 397.440429688 270.201171875 c 0
 392.891601562 270.731445312 389.106445312 272.325195312 386.0859375 274.984375 c 0
 383.162109375 278.641601562 381.567382812 282.42578125 381.302734375 286.338867188 c 0
EndSplineSet
EndChar

StartChar: uniF1CF
Encoding: 29 61903 28
Width: 512
VWidth: 2048
Flags: HW
LayerCount: 2
Fore
SplineSet
425.4765625 191.651367188 m 2
 427.4765625 191.651367188 l 1
 427.4765625 159.375976562 l 1
 425.4765625 159.375976562 l 2
 386.958984375 158.8515625 354.111328125 145.241210938 326.93359375 118.54296875 c 0
 299.979492188 90.6572265625 286.368164062 57.8095703125 286.100585938 20 c 2
 286.100585938 18 l 1
 253.825195312 18 l 1
 253.825195312 20 l 2
 254.169921875 51.1904296875 261.9921875 80.05859375 277.291992188 106.606445312 c 0
 301.364257812 146.481445312 335.557617188 172.780273438 379.872070312 185.501953125 c 0
 394.48046875 189.6015625 409.681640625 191.651367188 425.4765625 191.651367188 c 2
425.4765625 276.4765625 m 2
 427.4765625 276.4765625 l 1
 427.4765625 244.202148438 l 1
 425.4765625 244.202148438 l 2
 384.725585938 243.85546875 347.068359375 233.637695312 312.502929688 213.549804688 c 0
 278.607421875 193.137695312 251.749023438 166.278320312 231.926757812 132.97265625 c 0
 211.666015625 97.7373046875 201.44921875 60.0791015625 201.274414062 20 c 2
 201.274414062 18 l 1
 169 18 l 1
 169 20 l 2
 169.346679688 66.814453125 180.998046875 110.005859375 203.954101562 149.573242188 c 0
 227.1328125 188.286132812 257.783203125 218.935546875 295.903320312 241.522460938 c 0
 336.451171875 264.825195312 379.641601562 276.4765625 425.4765625 276.4765625 c 2
427.4765625 361.302734375 m 1
 427.4765625 329.02734375 l 1
 425.4765625 329.02734375 l 2
 369.626953125 328.678710938 317.719726562 314.594726562 269.754882812 286.776367188 c 0
 222.97265625 258.922851562 185.954101562 221.904296875 158.700195312 175.720703125 c 0
 130.708007812 127.079101562 116.624023438 75.1728515625 116.44921875 20 c 2
 116.44921875 18 l 1
 84.173828125 18 l 1
 84.173828125 20 l 2
 84.5224609375 81.8203125 100.077148438 139.221679688 130.8359375 192.205078125 c 0
 161.489257812 243.770507812 202.301757812 284.583007812 253.271484375 314.640625 c 0
 306.931640625 345.573242188 364.333007812 361.127929688 425.4765625 361.302734375 c 2
 427.4765625 361.302734375 l 1
383.063476562 106.826171875 m 0
 395.436523438 106.327148438 405.921875 102.008789062 414.520507812 93.869140625 c 0
 418.58203125 89.3876953125 421.7421875 84.6865234375 424.001953125 79.7666015625 c 0
 426.192382812 73.96875 427.350585938 68.18359375 427.4765625 62.4130859375 c 0
 426.977539062 50.041015625 422.659179688 39.5546875 414.520507812 30.9560546875 c 0
 410.038085938 26.89453125 405.336914062 23.734375 400.416992188 21.474609375 c 0
 394.619140625 19.2841796875 388.833984375 18.1259765625 383.063476562 18 c 0
 370.690429688 18.4990234375 360.205078125 22.8173828125 351.607421875 30.9560546875 c 0
 347.545898438 35.4384765625 344.384765625 40.1396484375 342.125 45.0595703125 c 0
 339.934570312 50.857421875 338.776367188 56.642578125 338.650390625 62.4130859375 c 0
 339.149414062 74.787109375 343.467773438 85.2724609375 351.607421875 93.869140625 c 0
 356.088867188 97.9306640625 360.790039062 101.091796875 365.709960938 103.3515625 c 0
 371.5078125 105.541992188 377.29296875 106.700195312 383.063476562 106.826171875 c 0
EndSplineSet
EndChar

StartChar: uniF13F
Encoding: 30 61759 29
Width: 512
LayerCount: 2
Fore
SplineSet
452.48 411.52 m 1
 452.4633984 411.52 l 1
 475.5033984 388.4809 l 1
 326.4953984 240.0009 l 1
 463.9993984 240.0009 l 1
 463.9993984 208.0009 l 1
 271.9993984 208.0009 l 1
 271.9993984 400.0009 l 1
 303.9993984 400.0009 l 1
 303.9993984 262.4809 l 1
 452.48 411.52 l 1
48 176 m 1
 240 176 l 1
 240 -16 l 1
 208 -16 l 1
 208 121.52 l 1
 59.52 -27.519 l 1
 36.4809 -4.4799 l 1
 185.5039 144.0001 l 1
 47.9999 144.0001 l 1
 47.9999 176.0001 l 1
 48 176 l 1
EndSplineSet
Validated: 5
EndChar

StartChar: uniF16C
Encoding: 31 61804 30
Width: 512
LayerCount: 2
Fore
SplineSet
48 352 m 1
 464 352 l 1
 464 32 l 1
 48 32 l 1
 48 352 l 1
80 320 m 1
 80 256 l 1
 144 256 l 1
 144 320 l 1
 80 320 l 1
176 320 m 1
 176 256 l 1
 240 256 l 1
 240 320 l 1
 176 320 l 1
272 320 m 1
 272 256 l 1
 336 256 l 1
 336 320 l 1
 272 320 l 1
368 320 m 1
 368 256 l 1
 432 256 l 1
 432 320 l 1
 368 320 l 1
80 224 m 1
 80 160 l 1
 144 160 l 1
 144 224 l 1
 80 224 l 1
176 224 m 1
 176 160 l 1
 240 160 l 1
 240 224 l 1
 176 224 l 1
272 224 m 1
 272 160 l 1
 336 160 l 1
 336 224 l 1
 272 224 l 1
368 224 m 1
 368 160 l 1
 432 160 l 1
 432 224 l 1
 368 224 l 1
80 128 m 1
 80 64 l 1
 144 64 l 1
 144 128 l 1
 80 128 l 1
176 128 m 1
 176 64 l 1
 240 64 l 1
 240 128 l 1
 176 128 l 1
272 128 m 1
 272 64 l 1
 336 64 l 1
 336 128 l 1
 272 128 l 1
368 128 m 1
 368 64 l 1
 432 64 l 1
 432 128 l 1
 368 128 l 1
EndSplineSet
Validated: 1
EndChar

StartChar: uniF179
Encoding: 32 61817 31
Width: 512
LayerCount: 2
Fore
SplineSet
80 368 m 5
 432 368 l 5
 432 16 l 5
 80 16 l 5
 80 368 l 5
112 336 m 5
 112 256 l 5
 192 256 l 5
 192 336 l 5
 112 336 l 5
224 336 m 5
 224 256 l 5
 288 256 l 5
 288 336 l 5
 224 336 l 5
320 336 m 5
 320 256 l 5
 400 256 l 5
 400 336 l 5
 320 336 l 5
112 224 m 5
 112 160 l 5
 192 160 l 5
 192 224 l 5
 112 224 l 5
224 224 m 5
 224 160 l 5
 288 160 l 5
 288 224 l 5
 224 224 l 5
320 224 m 5
 320 160 l 5
 400 160 l 5
 400 224 l 5
 320 224 l 5
112 128 m 5
 112 48 l 5
 192 48 l 5
 192 128 l 5
 112 128 l 5
224 128 m 5
 224 48 l 5
 288 48 l 5
 288 128 l 5
 224 128 l 5
320 128 m 5
 320 48 l 5
 400 48 l 5
 400 128 l 5
 320 128 l 5
EndSplineSet
Validated: 1
EndChar

StartChar: uniF1D1
Encoding: 33 61905 32
Width: 512
VWidth: 1024
Flags: HW
LayerCount: 2
Fore
SplineSet
449.18359375 0 m 1
 424.973632812 0 424.973632812 0 256.291015625 0 c 2
 63 0 l 1
 51.6220703125 10.583984375 49.6376953125 19.31640625 57.046875 26.1962890625 c 1
 239.62109375 345.700195312 l 1
 244.119140625 349.669921875 249.54296875 351.654296875 255.893554688 351.654296875 c 128
 262.244140625 351.654296875 267.536132812 349.669921875 271.76953125 345.700195312 c 1
 454.34375 26.1962890625 l 1
 462.016601562 19.0517578125 460.296875 10.3193359375 449.18359375 0 c 1
 449.18359375 0 449.18359375 0 449.18359375 0 c 1
84.830078125 26.9892578125 m 1
 90.783203125 26.9892578125 90.783203125 26.9892578125 132.458007812 26.9892578125 c 2
 179.688476562 26.9892578125 l 1
 166.458984375 37.5732421875 155.94140625 50.40625 148.135742188 65.4892578125 c 128
 140.330078125 80.5712890625 135.765625 96.84375 134.442382812 114.307617188 c 1
 84.830078125 26.9892578125 l 1
161.431640625 122.24609375 m 1
 161.431640625 98.431640625 169.170898438 77.7265625 184.650390625 60.130859375 c 128
 200.129882812 42.53515625 219.37890625 32.017578125 242.399414062 28.5771484375 c 1
 242.399414062 215.120117188 l 1
 219.37890625 211.9453125 200.129882812 201.559570312 184.650390625 183.963867188 c 128
 169.170898438 166.3671875 161.431640625 145.794921875 161.431640625 122.24609375 c 1
 161.431640625 122.24609375 l 1
201.12109375 230.599609375 m 1
 214.086914062 237.213867188 227.845703125 241.315429688 242.399414062 242.903320312 c 1
 242.399414062 302.834960938 l 1
 201.12109375 230.599609375 l 1
269.78515625 302.041015625 m 1
 269.78515625 298.469726562 269.78515625 298.469726562 269.78515625 272.670898438 c 2
 269.78515625 242.903320312 l 1
 284.073242188 241.315429688 297.568359375 237.213867188 310.26953125 230.599609375 c 1
 269.78515625 302.041015625 l 1
269.78515625 215.120117188 m 1
 269.78515625 203.610351562 269.78515625 203.610351562 269.78515625 121.848632812 c 2
 269.78515625 28.5771484375 l 1
 292.805664062 32.017578125 312.0546875 42.53515625 327.534179688 60.130859375 c 128
 343.013671875 77.7265625 350.752929688 98.365234375 350.752929688 122.046875 c 128
 350.752929688 145.728515625 343.013671875 166.3671875 327.534179688 183.963867188 c 128
 312.0546875 201.559570312 292.805664062 211.9453125 269.78515625 215.120117188 c 1
 269.78515625 215.120117188 l 1
377.344726562 113.513671875 m 1
 376.287109375 96.3154296875 371.7890625 80.240234375 363.850585938 65.2900390625 c 128
 355.912109375 50.33984375 345.4609375 37.5732421875 332.495117188 26.9892578125 c 1
 426.958007812 26.9892578125 l 1
 377.344726562 113.513671875 l 1
EndSplineSet
EndChar

StartChar: uniF12B
Encoding: 34 61739 33
Width: 512
Flags: HW
LayerCount: 2
Fore
SplineSet
410 230 m 6
 412.200195312 230 414 228.200195312 414 226 c 6
 414 206 l 6
 414 203.799804688 412.200195312 202 410 202 c 6
 390 202 l 6
 387.799804688 202 386 203.799804688 386 206 c 6
 386 226 l 6
 386 228.200195312 387.799804688 230 390 230 c 6
 410 230 l 6
426 282 m 6
 448.099609375 282 466 264.099609375 466 242 c 6
 466 78 l 6
 466 69.150390625 458.849609375 62 450 62 c 6
 366 62 l 5
 366 -4 l 6
 366 -6.2001953125 364.200195312 -8 362 -8 c 6
 150 -8 l 6
 147.799804688 -8 146 -6.2001953125 146 -4 c 6
 146 62 l 5
 62 62 l 6
 53.150390625 62 46 69.150390625 46 78 c 6
 46 242 l 6
 46 264.099609375 63.900390625 282 86 282 c 6
 146 282 l 5
 146 388 l 6
 146 390.200195312 147.799804688 392 150 392 c 6
 362 392 l 6
 364.200195312 392 366 390.200195312 366 388 c 6
 366 282 l 5
 426 282 l 6
180 358 m 5
 180 282 l 5
 332 282 l 5
 332 358 l 5
 180 358 l 5
332 26 m 5
 332 164 l 5
 180 164 l 5
 180 26 l 5
 332 26 l 5
432 96 m 5
 432 242 l 6
 432 245.299804688 429.299804688 248 426 248 c 6
 86 248 l 6
 82.7001953125 248 80 245.299804688 80 242 c 6
 80 96 l 5
 146 96 l 5
 146 198 l 5
 366 198 l 5
 366 96 l 5
 432 96 l 5
EndSplineSet
EndChar

StartChar: uniF184
Encoding: 35 61828 34
Width: 512
LayerCount: 2
Fore
SplineSet
80 368 m 1
 352 368 l 1
 352 62.992 l 1
 420.4805 131.5193 l 1
 443.5196 108.4802 l 1
 347.5196 12.4802 l 1
 336.0001 1.488 l 1
 324.4806 12.4636 l 1
 228.4806 108.4636 l 1
 251.5197 131.5036 l 1
 320.0002 62.9919 l 1
 320.0002 335.9999 l 1
 80.0002 335.9999 l 1
 80.0002 367.9999 l 1
 80 368 l 1
EndSplineSet
Validated: 1
EndChar

StartChar: uniF1D5
Encoding: 36 61909 35
Width: 512
LayerCount: 2
Fore
SplineSet
228 384 m 1
 292 384 l 2
 300.36816 384 308.96 381.02441 314.9922 375.00781 c 0
 321.04005 368.95996 324.00001 360.35161 324.00001 352.00001 c 2
 324.00001 336.00001 l 1
 420.00001 336.00001 l 1
 420.00001 304.00001 l 1
 404.00001 304.00001 l 1
 404.00001 48.00001 l 2
 404.00001 21.67971 382.32031 1.00000000316e-05 356.00001 1.00000000316e-05 c 2
 164.00001 1.00000000316e-05 l 2
 137.67971 1.00000000316e-05 116.00001 21.67971 116.00001 48.00001 c 2
 116.00001 304.00001 l 1
 100.00001 304.00001 l 1
 100.00001 336.00001 l 1
 196.00001 336.00001 l 1
 196.00001 352.00001 l 2
 196.00001 360.35157 198.95997 368.96001 204.9922 374.99221 c 0
 211.04005 381.04006 219.6484 384.00002 228 384.00002 c 1
 228 384 l 1
228 352 m 1
 228 336 l 1
 292 336 l 1
 292 352 l 1
 228 352 l 1
148 304 m 1
 148 48 l 2
 148 39.12012 155.12012 32 164 32 c 2
 356 32 l 2
 364.87988 32 372 39.12012 372 48 c 2
 372 304 l 1
 148 304 l 1
180 256 m 1
 212 256 l 1
 212 80 l 1
 180 80 l 1
 180 256 l 1
244 256 m 1
 276 256 l 1
 276 80 l 1
 244 80 l 1
 244 256 l 1
308 256 m 1
 340 256 l 1
 340 80 l 1
 308 80 l 1
 308 256 l 1
EndSplineSet
Validated: 1
EndChar

StartChar: uniF169
Encoding: 37 61801 36
Width: 512
LayerCount: 2
Fore
SplineSet
192 368 m 1
 220 368 239.04 346.7197 251.5195 329.0078 c 0
 253.16794 326.63964 254.52829 324.3203 255.99997 321.99999 c 1
 257.47165 324.3203 258.832 326.62401 260.48044 328.99218 c 0
 272.95994 346.71968 291.99994 367.99998 319.99994 367.99998 c 0
 346.32024 367.99998 367.99994 346.32028 367.99994 319.99998 c 0
 367.99994 314.35154 366.83197 309.05568 364.99213 303.99998 c 1
 447.99993 303.99998 l 1
 447.99993 207.99998 l 1
 431.99993 207.99998 l 1
 431.99993 -2.00000000632e-05 l 1
 79.99993 -2.00000000632e-05 l 1
 79.99993 207.99998 l 1
 63.99993 207.99998 l 1
 63.99993 303.99998 l 1
 147.00773 303.99998 l 1
 145.16789 309.05564 143.99992 314.35158 143.99992 319.99998 c 0
 143.99992 346.32028 165.67962 367.99998 191.99992 367.99998 c 1
 192 368 l 1
192 336 m 1
 182.95996 336 176 329.04004 176 320 c 0
 176 310.95996 182.95996 304 192 304 c 2
 229.0078 304 l 1
 227.08788 307.31152 227.44042 307.51953 225.0078 310.99219 c 0
 214.9756 325.28029 202.0156 335.99999 192 335.99999 c 1
 192 336 l 1
320 336 m 1
 310 336 297.0244 325.248 286.9922 311.0078 c 0
 284.55958 307.51952 284.91212 307.29589 282.9922 303.99999 c 1
 320 303.99999 l 2
 329.04004 303.99999 336 310.95995 336 319.99999 c 0
 336 329.04003 329.04004 335.99999 320 335.99999 c 1
 320 336 l 1
96 272 m 1
 96 240 l 1
 240 240 l 1
 240 256 l 1
 272 256 l 1
 272 240 l 1
 416 240 l 1
 416 272 l 1
 96 272 l 1
112 208 m 1
 112 32 l 1
 240 32 l 1
 240 192 l 1
 272 192 l 1
 272 32 l 1
 400 32 l 1
 400 208 l 1
 112 208 l 1
EndSplineSet
Validated: 1
EndChar

StartChar: uniF16B
Encoding: 38 61803 37
Width: 512
LayerCount: 2
Fore
SplineSet
256 376.992 m 5
 256 377.0242266 l 5
 270.4961 341.9676266 l 5
 398.4961 37.9676266 l 5
 413.0078 3.9842266 l 5
 378.4961 16.9920266 l 5
 256.0001 62.9920266 l 5
 133.5041 17.0076266 l 5
 98.9924 3.9998266 l 5
 113.5041 37.9998266 l 5
 241.5041 341.9998266 l 5
 256 376.992 l 5
256 295.504 m 5
 256 295.519625 l 5
 156.9922 59.967625 l 5
 250.4961 94.975425 l 5
 256.00001 96.975425 l 5
 261.50392 94.975425 l 5
 355.00782 59.984225 l 5
 256 295.504 l 5
EndSplineSet
Validated: 1
EndChar

StartChar: uniF100
Encoding: 39 61696 38
Width: 512
LayerCount: 2
Fore
SplineSet
64 336 m 1
 99.5195 336 l 2
 114.1924 336 126.9443 326.24023 130.5117 312 c 2
 172.4805 144 l 1
 372.0005 144 l 1
 410.4966 288 l 1
 444.0005 288 l 1
 402.5288 135.52 l 2
 398.73681 121.6001 386.4643 112.0005 372.0161 112.0005 c 2
 172.4961 112.0005 l 2
 157.8242 112.0005 145.0723 121.76027 141.5039 136.0005 c 2
 99.5195 304.0005 l 1
 64 304.0005 l 2
 55.16797 304.0005 48 311.16847 48 320.0005 c 0
 48 328.83253 55.16797 336.0005 64 336.0005 c 1
 64 336 l 1
352 112 m 0
 378.3203 112 400 90.3203 400 64 c 0
 400 37.6797 378.3203 16 352 16 c 0
 325.6797 16 304 37.6797 304 64 c 0
 304 90.3203 325.6797 112 352 112 c 0
208 112 m 0
 234.3203 112 256 90.3203 256 64 c 0
 256 37.6797 234.3203 16 208 16 c 0
 181.6797 16 160 37.6797 160 64 c 0
 160 90.3203 181.6797 112 208 112 c 0
256 336 m 1
 288 336 l 1
 288 288 l 1
 336 288 l 1
 336 256 l 1
 288 256 l 1
 288 208 l 1
 256 208 l 1
 256 256 l 1
 208 256 l 1
 208 288 l 1
 256 288 l 1
 256 336 l 1
208 80 m 0
 198.97559 80 192 73.02441 192 64 c 0
 192 54.97559 198.97559 48 208 48 c 0
 217.02441 48 224 54.97559 224 64 c 0
 224 73.02441 217.02441 80 208 80 c 0
352 80 m 0
 342.97559 80 336 73.02441 336 64 c 0
 336 54.97559 342.97559 48 352 48 c 0
 361.02441 48 368 54.97559 368 64 c 0
 368 73.02441 361.02441 80 352 80 c 0
EndSplineSet
Validated: 1
EndChar

StartChar: uniF163
Encoding: 40 61795 39
Width: 512
VWidth: 1024
Flags: HW
LayerCount: 2
Fore
SplineSet
41.935546875 357.510742188 m 5
 43.935546875 357.510742188 l 6
 70.4228515625 357.510742188 93.3291015625 359.557617188 112.654296875 363.650390625 c 4
 135.404296875 368.81640625 156.538085938 377.560546875 176.0546875 389.883789062 c 4
 189.059570312 398.078125 201.93359375 404.1328125 214.677734375 408.048828125 c 4
 234.327148438 414.086914062 255.337890625 415.60546875 277.709960938 412.60546875 c 4
 291.505859375 410.451171875 303.14453125 407.06640625 312.625976562 402.452148438 c 132
 322.107421875 397.837890625 331.071289062 392.899414062 339.515625 387.63671875 c 4
 365.665039062 371.338867188 396.711914062 361.737304688 432.654296875 358.830078125 c 4
 444.086914062 357.950195312 455.889648438 357.510742188 468.064453125 357.510742188 c 6
 470.064453125 357.510742188 l 5
 470.064453125 242.409179688 l 6
 469.581054688 180.174804688 447.213867188 123.700195312 402.96484375 72.984375 c 4
 376.926757812 43.390625 345.7265625 16.2919921875 309.362304688 -8.3125 c 4
 292.0234375 -20.0439453125 274.235351562 -31.2734375 256 -42 c 5
 214.380859375 -17.5185546875 180.038085938 6.3486328125 152.97265625 29.6005859375 c 4
 118.666992188 59.076171875 92.26953125 90.0712890625 73.7802734375 122.5859375 c 4
 52.716796875 160.733398438 42.1015625 200.674804688 41.935546875 242.409179688 c 6
 41.935546875 357.510742188 l 5
437.7890625 325.787109375 m 5
 392.247070312 328.829101562 352.202148438 341.341796875 317.65625 363.325195312 c 4
 298.245117188 375.4609375 277.692382812 381.614257812 256 381.78515625 c 4
 233.732421875 381.44921875 213.1171875 375.28125 194.154296875 363.280273438 c 4
 159.16796875 341.138671875 119.186523438 328.641601562 74.2109375 325.787109375 c 5
 74.2109375 242.409179688 l 6
 74.712890625 190.3046875 93.9208984375 141.658203125 131.834960938 96.470703125 c 4
 155.208984375 68.8603515625 181.994140625 44.4931640625 212.19140625 23.3701171875 c 4
 226.762695312 13.177734375 241.365234375 3.830078125 256 -4.6748046875 c 5
 306.572265625 24.712890625 347.9609375 58.4287109375 380.165039062 96.470703125 c 4
 418.326171875 142.3359375 437.534179688 190.982421875 437.7890625 242.409179688 c 6
 437.7890625 325.787109375 l 5
255.219726562 283.299804688 m 0
 237.604492188 283.299804688 223.51953125 269.215820312 223.51953125 251.600585938 c 0
 223.51953125 233.984375 237.604492188 219.900390625 255.219726562 219.900390625 c 0
 272.834960938 219.900390625 286.919921875 233.984375 286.919921875 251.600585938 c 0
 286.919921875 269.215820312 272.834960938 283.299804688 255.219726562 283.299804688 c 0
255.219726562 313.98046875 m 0
 289.58203125 313.98046875 317.599609375 285.961914062 317.599609375 251.600585938 c 0
 317.599609375 234.442382812 310.618164062 218.829101562 299.346679688 207.516601562 c 1
 324.2734375 192.484375 341.120117188 165.206054688 341.120117188 134 c 2
 341.120117188 126.5 l 1
 310.439453125 126.5 l 1
 310.439453125 134 l 2
 310.439453125 164.6015625 285.821289062 189.220703125 255.219726562 189.220703125 c 0
 224.618164062 189.220703125 200 164.6015625 200 134 c 2
 200 126.5 l 1
 169.319335938 126.5 l 1
 169.319335938 134 l 2
 169.319335938 165.208007812 186.16796875 192.48046875 211.094726562 207.509765625 c 1
 199.823242188 218.826171875 192.83984375 234.440429688 192.83984375 251.600585938 c 0
 192.83984375 285.961914062 220.857421875 313.98046875 255.219726562 313.98046875 c 0
EndSplineSet
EndChar

StartChar: uniF1BC
Encoding: 41 61884 40
Width: 512
LayerCount: 2
Fore
SplineSet
197.008 375.52 m 1
 196.9601484 375.52 l 1
 215.5197484 330.0005 l 1
 228.3205484 333.76027 242.0002484 336.0005 256.0002484 336.0005 c 0
 270.0158484 336.0005 283.6799484 333.76027 296.4641484 329.96827 c 1
 314.9602484 375.48877 l 1
 344.4485484 363.48877 l 1
 325.9358484 317.50437 l 1
 349.2004484 304.44867 368.4163484 285.23287 381.4563484 261.98487 c 1
 427.4719484 280.46437 l 1
 439.4719484 250.97607 l 1
 393.9680484 232.44877 l 1
 397.7278184 219.64897 399.9680484 205.96827 399.9680484 191.96827 c 0
 399.9680484 177.96827 397.7278184 164.28857 393.9680484 151.48877 c 1
 439.4885484 132.99267 l 1
 427.4885484 103.50437 l 1
 381.5041484 122.01607 l 1
 368.4484484 98.75237 349.2326484 79.53657 325.9846484 66.49657 c 1
 344.4641484 20.48097 l 1
 314.9602484 8.48097 l 1
 296.4485484 53.98487 l 1
 283.6487484 50.22413 269.9680484 47.98487 255.9680484 47.98487 c 0
 241.9358484 47.98487 228.2883484 50.2085 215.4885484 53.98487 c 1
 196.9758484 8.46437 l 1
 167.5041484 20.46437 l 1
 186.0158484 66.44877 l 1
 162.8644484 79.53667 143.5041484 98.76807 130.4963484 121.96827 c 1
 84.4807484 103.48877 l 1
 72.4807484 132.99267 l 1
 118.0002484 151.51997 l 1
 114.2404784 164.32077 112.0002484 178.00047 112.0002484 192.00047 c 0
 112.0002484 206.01607 114.2404784 219.68017 118.0002484 232.51217 c 1
 72.4807484 251.02487 l 1
 84.4807484 280.49657 l 1
 130.4641484 261.98487 l 1
 143.5198484 285.24857 162.7366484 304.46437 185.9846484 317.50437 c 1
 167.5041484 363.51997 l 1
 197.008 375.52 l 1
256 304 m 0
 193.9521 304 144 254.0479 144 192 c 0
 144 129.9521 193.9521 80 256 80 c 0
 318.0479 80 368 129.9521 368 192 c 0
 368 254.0479 318.0479 304 256 304 c 0
256 256 m 4
 291.1523 256 320 227.1523 320 192 c 4
 320 156.8477 291.1523 128 256 128 c 4
 220.8477 128 192 156.8477 192 192 c 4
 192 227.1523 220.8477 256 256 256 c 4
256 224 m 4
 238.1436 224 224 209.8564 224 192 c 4
 224 174.1436 238.1436 160 256 160 c 4
 273.8564 160 288 174.1436 288 192 c 4
 288 209.8564 273.8564 224 256 224 c 4
EndSplineSet
Validated: 5
EndChar

StartChar: uniF187
Encoding: 42 61831 41
Width: 512
LayerCount: 2
Fore
SplineSet
64 368 m 5
 160 368 l 5
 160 272 l 5
 64 272 l 5
 64 368 l 5
96 336 m 5
 96 304 l 5
 128 304 l 5
 128 336 l 5
 96 336 l 5
192 336 m 5
 432 336 l 5
 432 304 l 5
 192 304 l 5
 192 336 l 5
64 240 m 5
 160 240 l 5
 160 144 l 5
 64 144 l 5
 64 240 l 5
96 208 m 5
 96 176 l 5
 128 176 l 5
 128 208 l 5
 96 208 l 5
192 208 m 5
 432 208 l 5
 432 176 l 5
 192 176 l 5
 192 208 l 5
64 112 m 5
 160 112 l 5
 160 16 l 5
 64 16 l 5
 64 112 l 5
96 80 m 5
 96 48 l 5
 128 48 l 5
 128 80 l 5
 96 80 l 5
192 80 m 5
 432 80 l 5
 432 48 l 5
 192 48 l 5
 192 80 l 5
EndSplineSet
Validated: 1
EndChar

StartChar: uniF1DF
Encoding: 43 61919 42
Width: 512
LayerCount: 2
Fore
SplineSet
256 390.496 m 1
 256 390.511625 l 1
 267.5195 379.536025 l 1
 379.5195 267.536025 l 1
 356.4804 244.496025 l 1
 271.9999 329.007725 l 1
 271.9999 63.999725 l 1
 239.9999 63.999725 l 1
 239.9999 329.023725 l 1
 155.5194 244.463225 l 1
 132.4803 267.503225 l 1
 244.4803 379.503225 l 1
 256 390.496 l 1
112 32 m 1
 400 32 l 1
 400 0 l 1
 112 0 l 1
 112 32 l 1
EndSplineSet
Validated: 1
EndChar

StartChar: uniF1AA
Encoding: 44 61866 43
Width: 512
LayerCount: 2
Fore
SplineSet
256 384 m 6
 313.1201 384 364.96 358.7197 400 318.4961 c 5
 400 368 l 5
 432 368 l 5
 432 256 l 5
 320 256 l 5
 320 288 l 5
 383.0078 288 l 5
 354.1435 326.5596 307.8398 352 255.9998 352 c 4
 187.3602 352 130.8158 309.7598 107.5038 250 c 5
 77.9999 262 l 5
 105.872 333.4404 174.2401 384 255.9999 384 c 6
 256 384 l 6
404.48 134 m 5
 404.495625 134 l 5
 433.999525 122 l 5
 406.127425 50.5596 337.759325 0 255.999525 0 c 4
 198.319825 0 147.039525 25.8242 111.999525 65.5039 c 5
 111.999525 16 l 5
 79.999525 16 l 5
 79.999525 128 l 5
 191.999525 128 l 5
 191.999525 96 l 5
 128.480025 96 l 5
 157.487825 57.792 203.583525 32 256.000025 32 c 4
 324.639625 32 381.184025 74.2402 404.480025 134 c 5
 404.48 134 l 5
EndSplineSet
Validated: 5
EndChar

StartChar: uniF11A
Encoding: 45 61722 44
Width: 512
VWidth: 2048
Flags: HW
LayerCount: 2
Fore
SplineSet
77.9794921875 199.712890625 m 5
 27 352.424804688 l 5
 485.139648438 199.712890625 l 5
 27 47 l 5
 77.9794921875 199.712890625 l 5
77.9501953125 301.477539062 m 5
 106.4921875 215.850585938 l 5
 334.831054688 215.850585938 l 5
 77.9501953125 301.477539062 l 5
106.4921875 183.575195312 m 5
 77.9501953125 97.947265625 l 5
 334.831054688 183.575195312 l 5
 106.4921875 183.575195312 l 5
EndSplineSet
EndChar

StartChar: uniF18B
Encoding: 46 61835 45
Width: 512
LayerCount: 2
Fore
SplineSet
80 352 m 2
 432 352 l 2
 458.3203 352 480 330.3203 480 304 c 2
 480 80 l 2
 480 53.6797 458.3203 32 432 32 c 2
 80 32 l 2
 53.6797 32 32 53.6797 32 80 c 2
 32 304 l 2
 32 330.3203 53.6797 352 80 352 c 2
80 320 m 2
 70.95996 320 64 313.04004 64 304 c 2
 64 80 l 2
 64 70.95996 70.95996 64 80 64 c 2
 432 64 l 2
 441.04004 64 448 70.95996 448 80 c 2
 448 304 l 2
 448 313.04004 441.04004 320 432 320 c 2
 80 320 l 2
192 304 m 0
 215.7764 304 237.8242 296.71973 256 284 c 1
 274.0801 296.6719 296.1924 304 320 304 c 0
 381.6641 304 432 253.6641 432 192 c 0
 432 130.3359 381.6641 80 320 80 c 0
 296.1924 80 274.0801 87.32812 256 100 c 1
 237.8242 87.2803 215.7764 80 192 80 c 0
 130.3359 80 80 130.3359 80 192 c 0
 80 253.6641 130.3359 304 192 304 c 0
192 272 m 0
 147.6318 272 112 236.3682 112 192 c 0
 112 147.6318 147.6318 112 192 112 c 0
 212.5283 112 230.8799 119.95215 245.0078 132.4805 c 1
 238.44823 140.71976 233.0879 149.92 229.4883 160 c 1
 265.0078 160 l 1
 267.23241 165.08789 269.37596 170.4004 270.49608 176 c 1
 225.50388 176 l 1
 224.639622 181.21582 223.99997 186.5283 223.99997 192 c 0
 223.99997 197.4717 224.608368 202.7842 225.50388 208 c 1
 270.49608 208 l 1
 269.36034 213.59961 267.24803 218.9121 265.0078 224 c 1
 229.4883 224 l 1
 233.08791 234.0801 238.44826 243.2803 245.0078 251.5195 c 1
 230.8799 264.0644 212.5117 272 192 272 c 0
320 272 m 0
 305.3604 272 291.8076 267.85645 280 261.0078 c 1
 295.04 241.9199 304 218.0801 304 192 c 0
 304 165.9199 295.04004 142.0801 280 123.0078 c 1
 291.8076 116.16014 305.3604 112 320 112 c 0
 364.3838 112 400 147.6162 400 192 c 0
 400 236.3838 364.3838 272 320 272 c 0
EndSplineSet
Validated: 1
EndChar

StartChar: uniF12F
Encoding: 47 61743 46
Width: 512
VWidth: 2048
Flags: HW
LayerCount: 2
Fore
SplineSet
484.852539062 374.5078125 m 1
 484.852539062 87.755859375 l 1
 192.755859375 87.755859375 l 1
 85 -20 l 1
 85 87.755859375 l 1
 28.4501953125 87.755859375 l 1
 28.4501953125 374.5078125 l 1
 484.852539062 374.5078125 l 1
452.578125 120.03125 m 1
 452.578125 342.232421875 l 1
 60.724609375 342.232421875 l 1
 60.724609375 120.03125 l 1
 117.275390625 120.03125 l 1
 117.275390625 58.134765625 l 1
 179.170898438 120.03125 l 1
 452.578125 120.03125 l 1
143.55078125 200.856445312 m 0
 139.038085938 201.11328125 135.090820312 201.904296875 131.709960938 203.23046875 c 0
 127.884765625 205.202148438 124.697265625 207.3671875 122.145507812 209.7265625 c 0
 119.3359375 212.939453125 117.170898438 216.127929688 115.649414062 219.291015625 c 0
 114.189453125 223.333007812 113.397460938 227.280273438 113.275390625 231.131835938 c 0
 113.532226562 235.64453125 114.323242188 239.590820312 115.649414062 242.97265625 c 0
 117.62109375 246.796875 119.786132812 249.984375 122.145507812 252.536132812 c 0
 128.909179688 258.450195312 136.043945312 261.407226562 143.55078125 261.407226562 c 0
 148.063476562 261.150390625 152.009765625 260.359375 155.391601562 259.033203125 c 0
 159.215820312 257.061523438 162.404296875 254.896484375 164.956054688 252.537109375 c 0
 167.765625 249.32421875 169.930664062 246.135742188 171.452148438 242.97265625 c 0
 172.912109375 238.9296875 173.704101562 234.982421875 173.826171875 231.131835938 c 0
 173.569335938 226.619140625 172.778320312 222.671875 171.452148438 219.291015625 c 0
 169.48046875 215.465820312 167.315429688 212.278320312 164.956054688 209.7265625 c 0
 161.7421875 206.916992188 158.5546875 204.751953125 155.391601562 203.23046875 c 0
 151.348632812 201.770507812 147.401367188 200.978515625 143.55078125 200.856445312 c 0
256.651367188 200.856445312 m 0
 252.138671875 201.11328125 248.192382812 201.904296875 244.810546875 203.23046875 c 0
 240.985351562 205.202148438 237.797851562 207.3671875 235.24609375 209.7265625 c 0
 232.436523438 212.939453125 230.271484375 216.127929688 228.75 219.291015625 c 0
 227.290039062 223.333007812 226.498046875 227.280273438 226.375976562 231.131835938 c 0
 226.6328125 235.64453125 227.423828125 239.590820312 228.75 242.97265625 c 0
 230.721679688 246.796875 232.88671875 249.984375 235.24609375 252.536132812 c 0
 238.458984375 255.345703125 241.647460938 257.510742188 244.810546875 259.033203125 c 0
 248.853515625 260.493164062 252.80078125 261.28515625 256.651367188 261.407226562 c 0
 261.1640625 261.150390625 265.110351562 260.359375 268.4921875 259.033203125 c 0
 272.317382812 257.061523438 275.504882812 254.896484375 278.056640625 252.537109375 c 0
 280.866210938 249.32421875 283.03125 246.135742188 284.552734375 242.97265625 c 0
 286.012695312 238.9296875 286.8046875 234.982421875 286.926757812 231.131835938 c 0
 286.669921875 226.619140625 285.87890625 222.671875 284.552734375 219.291015625 c 0
 282.581054688 215.465820312 280.416015625 212.278320312 278.056640625 209.7265625 c 0
 274.84375 206.916992188 271.655273438 204.751953125 268.4921875 203.23046875 c 0
 264.44921875 201.770507812 260.501953125 200.978515625 256.651367188 200.856445312 c 0
369.751953125 200.856445312 m 0
 365.239257812 201.11328125 361.29296875 201.904296875 357.911132812 203.23046875 c 0
 354.086914062 205.202148438 350.8984375 207.3671875 348.346679688 209.7265625 c 0
 345.537109375 212.939453125 343.372070312 216.127929688 341.850585938 219.291015625 c 0
 340.390625 223.333007812 339.598632812 227.280273438 339.4765625 231.131835938 c 0
 339.733398438 235.64453125 340.524414062 239.590820312 341.850585938 242.97265625 c 0
 343.822265625 246.796875 345.987304688 249.985351562 348.346679688 252.537109375 c 0
 351.560546875 255.345703125 354.748046875 257.510742188 357.911132812 259.033203125 c 0
 361.954101562 260.493164062 365.901367188 261.28515625 369.751953125 261.407226562 c 0
 374.264648438 261.150390625 378.211914062 260.359375 381.592773438 259.033203125 c 0
 385.41796875 257.061523438 388.60546875 254.896484375 391.157226562 252.537109375 c 0
 393.966796875 249.32421875 396.131835938 246.135742188 397.653320312 242.97265625 c 0
 399.11328125 238.9296875 399.905273438 234.982421875 400.02734375 231.131835938 c 0
 399.770507812 226.619140625 398.979492188 222.671875 397.653320312 219.291015625 c 0
 395.681640625 215.465820312 393.516601562 212.278320312 391.157226562 209.7265625 c 0
 387.944335938 206.916992188 384.755859375 204.751953125 381.592773438 203.23046875 c 0
 377.55078125 201.770507812 373.603515625 200.978515625 369.751953125 200.856445312 c 0
EndSplineSet
EndChar

StartChar: uniF1E9
Encoding: 48 61929 47
Width: 512
VWidth: 2048
Flags: HW
LayerCount: 2
Fore
SplineSet
456.40234375 374.751953125 m 5
 456.40234375 342.4765625 l 5
 56 342.4765625 l 5
 56 374.751953125 l 5
 456.40234375 374.751953125 l 5
56 289.92578125 m 5
 456.40234375 289.92578125 l 5
 456.40234375 257.651367188 l 5
 56 257.651367188 l 5
 56 289.92578125 l 5
286.751953125 88 m 5
 56 88 l 5
 56 120.274414062 l 5
 286.751953125 120.274414062 l 5
 286.751953125 88 l 5
278.46875 56.3310546875 m 4
 289.063476562 62.568359375 299.916015625 64.8642578125 311.026367188 63.21875 c 5
 311.026367188 183.897460938 l 5
 456.40234375 220.241210938 l 5
 456.40234375 61.724609375 l 6
 456.057617188 56.5771484375 454.891601562 52.21484375 452.903320312 48.6376953125 c 4
 450.102539062 44.775390625 447.119140625 41.6337890625 443.953125 39.2119140625 c 4
 436.110351562 34.2509765625 427.8125 31.6630859375 419.05859375 31.44921875 c 4
 403.8359375 32.1044921875 392.5546875 37.833984375 385.21484375 48.6376953125 c 4
 383.045898438 52.87109375 381.879882812 57.2333984375 381.71484375 61.724609375 c 4
 382.059570312 66.8720703125 383.225585938 71.234375 385.21484375 74.8115234375 c 4
 388.015625 78.673828125 390.999023438 81.8154296875 394.165039062 84.2373046875 c 4
 402.005859375 89.1982421875 410.303710938 91.7861328125 419.05859375 92 c 4
 421.046875 91.9208984375 422.736328125 91.80859375 424.127929688 91.6640625 c 5
 424.127929688 178.890625 l 5
 343.301757812 158.684570312 l 5
 343.301757812 33.44921875 l 6
 342.931640625 28.1357421875 341.642578125 23.6435546875 339.432617188 19.9716796875 c 4
 336.399414062 16.06640625 333.2265625 12.931640625 329.913085938 10.5673828125 c 4
 321.888671875 5.8427734375 313.314453125 3.3779296875 304.190429688 3.173828125 c 4
 288.4140625 3.7958984375 276.666992188 9.3955078125 268.94921875 19.9716796875 c 4
 266.546875 24.296875 265.256835938 28.7900390625 265.079101562 33.44921875 c 4
 265.44921875 38.7626953125 266.739257812 43.255859375 268.94921875 46.9267578125 c 4
 271.982421875 50.83203125 275.155273438 53.966796875 278.46875 56.3310546875 c 4
286.751953125 172.825195312 m 5
 56 172.825195312 l 5
 56 205.100585938 l 5
 286.751953125 205.100585938 l 5
 286.751953125 172.825195312 l 5
EndSplineSet
EndChar

StartChar: uniF1AE
Encoding: 49 61870 48
Width: 512
LayerCount: 2
Fore
SplineSet
148.48 339.52 m 1
 171.5191 316.4809 l 1
 63.0071 208.0009 l 1
 449.0071 208.0009 l 1
 340.4311 316.4809 l 1
 363.4711 339.52 l 1
 499.4711 203.52 l 1
 510.4633 192.0005 l 1
 499.4877 180.481 l 1
 363.4877 44.481 l 1
 340.4955 67.5201 l 1
 448.9745 176.0001 l 1
 62.9745 176.0001 l 1
 171.5355 67.5201 l 1
 148.4955 44.481 l 1
 12.4955 180.481 l 1
 1.5033 192.0005 l 1
 12.4799 203.52 l 1
 148.48 339.52 l 1
EndSplineSet
Validated: 1
EndChar

StartChar: uniF1D0
Encoding: 50 61904 49
Width: 512
LayerCount: 2
Fore
SplineSet
128 352 m 1
 384 352 l 1
 384 320 l 1
 272 320 l 1
 272 96 l 1
 240 96 l 1
 240 320 l 1
 128 320 l 1
 128 352 l 1
160 104 m 1
 160 64 l 1
 352 64 l 1
 352 104 l 1
 422 48 l 1
 352 -8 l 1
 352 32 l 1
 160 32 l 1
 160 -8 l 1
 90 48 l 1
 160 104 l 1
EndSplineSet
Validated: 1
EndChar

StartChar: uniF13B
Encoding: 51 61755 50
Width: 512
LayerCount: 2
Fore
SplineSet
80 400 m 1
 80 399.984375 l 1
 294.496 399.984375 l 1
 299.51944 395.503905 l 1
 395.51944 299.503905 l 1
 399.99991 294.496095 l 1
 399.99991 -15.999905 l 1
 79.99991 -15.999905 l 1
 79.99991 400.000095 l 1
 80 400 l 1
112 368 m 1
 112 16 l 1
 368 16 l 1
 368 272 l 1
 272 272 l 1
 272 368 l 1
 112 368 l 1
304 344.992 m 1
 304 345.007625 l 1
 304 303.999825 l 1
 345.0078 303.999825 l 1
 304 344.992 l 1
240 240 m 1
 272 240 l 1
 240 48 l 1
 208 48 l 1
 240 240 l 1
179.52 202 m 1
 179.5366016 202 l 1
 204.4966016 182 l 1
 173.0083016 144 l 1
 204.4644016 106 l 1
 179.5044016 86 l 1
 139.5044016 134 l 1
 130.9926816 144 l 1
 139.5200216 154 l 1
 179.52 202 l 1
300.48 202 m 1
 300.51125 202 l 1
 340.51125 154 l 1
 348.99172 144 l 1
 340.48 134 l 1
 300.48 86 l 1
 275.4712 106 l 1
 306.9917 144 l 1
 275.519 182 l 1
 300.48 202 l 1
EndSplineSet
Validated: 5
EndChar

StartChar: uniF1D3
Encoding: 52 61907 51
Width: 512
LayerCount: 2
Fore
SplineSet
164.48 363.52 m 1
 164.48 363.5366016 l 1
 187.5191 340.4966016 l 1
 123.5191 276.4966016 l 1
 111.9996 265.5044016 l 1
 100.4801 276.4810016 l 1
 68.4801 308.4810016 l 1
 91.5192 331.4722016 l 1
 111.9997 310.9927016 l 1
 164.48 363.52 l 1
240 336 m 1
 448 336 l 1
 448 304 l 1
 240 304 l 1
 240 336 l 1
164.48 235.52 m 1
 164.48 235.5366016 l 1
 187.5191 212.4966016 l 1
 123.5191 148.4966016 l 1
 111.9996 137.5044016 l 1
 100.4801 148.4810016 l 1
 68.4801 180.4810016 l 1
 91.5192 203.5201016 l 1
 111.9997 182.9762016 l 1
 164.48 235.52 l 1
240 208 m 1
 448 208 l 1
 448 176 l 1
 240 176 l 1
 240 208 l 1
164.48 107.52 m 1
 164.48 107.5366016 l 1
 187.5191 84.4966016 l 1
 123.5191 20.4966016 l 1
 111.9996 9.5044016 l 1
 100.4801 20.4810016 l 1
 68.4801 52.4810016 l 1
 91.5192 75.4722016 l 1
 111.9997 54.9927016 l 1
 164.48 107.52 l 1
240 80 m 1
 448 80 l 1
 448 48 l 1
 240 48 l 1
 240 80 l 1
EndSplineSet
Validated: 1
EndChar

StartChar: uniF1C0
Encoding: 53 61888 52
Width: 512
LayerCount: 2
Fore
SplineSet
240 384 m 5
 272 384 l 5
 272 192 l 5
 240 192 l 5
 240 384 l 5
192 372.992 m 5
 192 373.007625 l 5
 192 338.495925 l 5
 135.584 313.759625 96 257.440225 96 191.999925 c 4
 96 103.776325 167.7764 31.999925 256 31.999925 c 4
 344.2236 31.999925 416 103.776325 416 191.999925 c 4
 416 257.440325 376.416 313.759925 320 338.495925 c 5
 320 373.007625 l 5
 394.4639 346.591625 448 275.408025 448 191.999625 c 4
 448 86.127625 361.8721 -0.000374999999991 256 -0.000374999999991 c 4
 150.1279 -0.000374999999991 64 86.127525 64 191.999625 c 4
 64 275.391225 117.5361 346.591625 192 372.991625 c 5
 192 372.992 l 5
EndSplineSet
Validated: 5
EndChar

StartChar: uniF1A7
Encoding: 54 61863 53
Width: 512
LayerCount: 2
Fore
SplineSet
80 368 m 1
 208 368 l 1
 208 240 l 1
 144 240 l 1
 144 208 l 1
 112 208 l 1
 112 240 l 1
 80 240 l 1
 80 368 l 1
208 240 m 1
 304 240 l 1
 304 368 l 1
 432 368 l 1
 432 240 l 1
 400 240 l 1
 400 208 l 1
 368 208 l 1
 368 240 l 1
 336 240 l 1
 336 208 l 1
 272 208 l 1
 272 176 l 1
 304 176 l 1
 304 144 l 1
 208 144 l 1
 208 16 l 1
 80 16 l 1
 80 144 l 1
 176 144 l 1
 176 176 l 1
 240 176 l 1
 240 208 l 1
 208 208 l 1
 208 240 l 1
400 208 m 1
 432 208 l 1
 432 176 l 1
 400 176 l 1
 400 208 l 1
400 176 m 1
 400 144 l 1
 368 144 l 1
 368 176 l 1
 400 176 l 1
400 144 m 1
 432 144 l 1
 432 112 l 1
 400 112 l 1
 400 144 l 1
400 112 m 1
 400 80 l 1
 384 80 l 1
 384 48 l 1
 352 48 l 1
 352 80 l 1
 288 80 l 1
 288 16 l 1
 256 16 l 1
 256 112 l 1
 336 112 l 1
 336 144 l 1
 368 144 l 1
 368 112 l 1
 400 112 l 1
352 48 m 1
 352 16 l 1
 320 16 l 1
 320 48 l 1
 352 48 l 1
368 176 m 1
 336 176 l 1
 336 208 l 1
 368 208 l 1
 368 176 l 1
176 176 m 1
 144 176 l 1
 144 208 l 1
 176 208 l 1
 176 176 l 1
112 208 m 1
 112 176 l 1
 80 176 l 1
 80 208 l 1
 112 208 l 1
240 368 m 1
 272 368 l 1
 272 336 l 1
 288 336 l 1
 288 304 l 1
 272 304 l 1
 272 256 l 1
 240 256 l 1
 240 272 l 1
 224 272 l 1
 224 304 l 1
 240 304 l 1
 240 368 l 1
112 336 m 1
 112 272 l 1
 176 272 l 1
 176 336 l 1
 112 336 l 1
336 336 m 1
 336 272 l 1
 400 272 l 1
 400 336 l 1
 336 336 l 1
128 320 m 1
 160 320 l 1
 160 288 l 1
 128 288 l 1
 128 320 l 1
352 320 m 1
 384 320 l 1
 384 288 l 1
 352 288 l 1
 352 320 l 1
112 112 m 1
 112 48 l 1
 176 48 l 1
 176 112 l 1
 112 112 l 1
128 96 m 1
 160 96 l 1
 160 64 l 1
 128 64 l 1
 128 96 l 1
400 48 m 1
 432 48 l 1
 432 16 l 1
 400 16 l 1
 400 48 l 1
EndSplineSet
Validated: 5
EndChar

StartChar: uniF1C7
Encoding: 55 61895 54
Width: 512
Flags: HW
LayerCount: 2
Fore
SplineSet
452.872070312 255.16015625 m 4
 452.872070312 290.843424898 439.567722851 314.779064398 415.782898606 326.020782263 c 4
 401.802599347 332.62846531 389.445191647 335.125 370.372070312 335.125 c 4
 350.473984911 335.124999995 330.599261694 323.599938912 317.92196761 313.982838128 c 4
 304.177758389 303.557613081 292.765721406 293.621330951 282.730167096 282.151770987 c 4
 279.52062548 277.978476584 274.97499433 275.974609375 269.39453125 275.974609375 c 4
 263.814068171 275.974609373 259.187743967 278.076803619 255.978202351 282.250098024 c 4
 246.004781942 293.648645618 234.54259773 303.609728079 220.867187076 313.9827682 c 4
 208.15510002 323.626263222 188.353488165 335.125 168.416992188 335.125 c 4
 140.136406352 335.125000007 117.884998587 327.481705955 103.99015434 312.123846174 c 4
 93.072041045 300.056143215 85.9169921875 279.09468192 85.9169921875 255.16015625 c 4
 85.9169921875 228.897373298 100.585827269 200.758652807 130.538913166 170.806537458 c 6
 269.394612321 36.969546629 l 5
 407.854794339 170.409720371 l 6
 438.092222357 200.647148392 452.872070312 228.903344897 452.872070312 255.16015625 c 4
487.71484375 255.16015625 m 4
 487.71484375 218.937104864 468.861896828 182.244478056 431.754381103 145.136962332 c 6
 281.37121445 0.246466992788 l 6
 278.175906976 -2.94994842442 274.085665146 -4.5654296875 269.39453125 -4.5654296875 c 4
 264.703397354 -4.5654296875 260.640063392 -2.97636652493 257.444755918 0.220048892279 c 6
 106.678304446 145.496700795 l 6
 105.126574104 146.748131314 103.016694876 148.803446334 100.213674012 151.74739578 c 4
 91.8461501502 160.535616925 77.1373224828 179.337213663 69.9451363288 191.396557405 c 4
 61.154943764 206.133531274 51.07421875 232.320829088 51.07421875 255.16015625 c 4
 51.07421875 290.756630976 61.4331692942 318.956790181 82.3070659926 339.39845517 c 4
 103.179396028 359.839584088 131.995329044 369.967773438 168.416992188 369.967773438 c 4
 192.346069717 369.967773438 213.379401599 360.935668868 229.084496631 350.628402578 c 4
 245.473603219 339.873384312 256.282699399 331.102257526 269.394531277 318.754074917 c 5
 282.491939723 331.088673224 293.327532607 339.881307184 309.704482575 350.628347916 c 4
 325.4368709 360.953526819 346.410485938 369.967773438 370.372070312 369.967773438 c 4
 406.793733456 369.967773438 435.609631331 359.839618502 456.481961366 339.398489583 c 4
 477.355858065 318.956824595 487.71484375 290.756630976 487.71484375 255.16015625 c 4
EndSplineSet
EndChar

StartChar: uniF174
Encoding: 56 61812 55
Width: 512
LayerCount: 2
Fore
SplineSet
109.008 409.504 m 5
 108.992375 409.504 l 5
 142.496275 376.0001 l 5
 120.000175 353.504 l 5
 86.480675 387.0079 l 5
 109.008 409.504 l 5
403.008 409.504 m 5
 402.992375 409.504 l 5
 425.504075 386.9923 l 5
 392.000175 353.504 l 5
 369.488475 376.0001 l 5
 403.008 409.504 l 5
256 399.52 m 5
 334.9443 400.256328 400 335.0405 400 256 c 4
 400 212.7197 380 175.04 353.5039 148.512 c 4
 333.6963 130.1282 321.5039 106.4808 321.5039 83.0247 c 6
 321.5039 64.0159 l 5
 319.99999 64.0159 l 5
 319.99999 0.0159 l 5
 283.51949 0.0159 l 5
 277.95211 -9.53586 267.79199 -15.9841 255.99999 -15.9841 c 4
 244.20799 -15.9841 234.04789 -9.53586 228.48049 0.0159 c 5
 191.99999 0.0159 l 5
 191.99999 96.0159 l 6
 188.75194 113.888 179.29589 131.4085 163.99999 144.4964 c 4
 128.27249 174.8646 106.83199 222.0159 113.99999 274.0164 c 4
 122.97558 338.6248 174.62399 391.0564 239.51999 398.4964 c 4
 239.680146 398.5286266 239.840302 398.4964 240.000459 398.4964 c 4
 245.376439 399.15265 250.720159 399.456361 256.000459 399.51984 c 5
 256 399.52 l 5
256 367.52 m 5
 255.9677734 367.504375 l 6
 251.8398434 367.4408984 247.6796834 367.024883 243.4882734 366.480935 c 4
 193.3759734 360.928205 152.4804734 320.400835 145.4882734 270.000435 c 4
 139.8564334 229.168435 156.7040734 193.008235 184.9755734 169.008435 c 4
 207.2001734 149.968435 218.9599734 123.424435 222.4804734 96.000635 c 5
 292.4638734 96.000635 l 5
 296.2558634 124.672535 309.9843734 150.944935 331.5038734 171.008435 c 5
 330.9921544 171.520154 l 5
 352.4804544 192.992854 367.9999544 222.496754 367.9999544 256.000654 c 4
 367.9999544 317.760454 317.8397544 368.384654 255.9999544 367.520654 c 5
 256 367.52 l 5
32 256 m 5
 80 256 l 5
 80 224 l 5
 32 224 l 5
 32 256 l 5
432 256 m 5
 480 256 l 5
 480 224 l 5
 432 224 l 5
 432 256 l 5
120 126.496 m 5
 142.4805 103.9999 l 5
 109.0078 70.496 l 5
 86.4961 93.0077 l 5
 120 126.496 l 5
392 126.496 m 5
 425.5039 93.0077 l 5
 402.9922 70.496 l 5
 369.5039 103.9999 l 5
 392 126.496 l 5
224 64 m 5
 224 32 l 5
 288 32 l 5
 288 64 l 5
 224 64 l 5
EndSplineSet
Validated: 37
EndChar

StartChar: uniF144
Encoding: 57 61764 56
Width: 512
LayerCount: 2
Fore
SplineSet
128 384 m 1
 160 384 l 1
 160 118.992 l 1
 329.008 288 l 1
 176 288 l 1
 176 320 l 1
 361.008 320 l 1
 420.4807 379.5361 l 1
 443.5198 356.4961 l 1
 384.0003 297.0078 l 1
 384.0003 111.9998 l 1
 352.0003 111.9998 l 1
 352.0003 265.0078 l 1
 182.9923 95.9998 l 1
 448.0003 95.9998 l 1
 448.0003 63.9998 l 1
 384.0003 63.9998 l 1
 384.0003 -0.000200000000035 l 1
 352.0003 -0.000200000000035 l 1
 352.0003 63.9998 l 1
 128.0003 63.9998 l 1
 128.0003 287.9998 l 1
 64.0003 287.9998 l 1
 64.0003 319.9998 l 1
 128.0003 319.9998 l 1
 128.0003 383.9998 l 1
 128 384 l 1
EndSplineSet
Validated: 1
EndChar

StartChar: uniF105
Encoding: 58 61701 57
Width: 512
LayerCount: 2
Fore
SplineSet
48 336 m 1
 464 336 l 1
 464 304 l 1
 48 304 l 1
 48 336 l 1
112 272 m 1
 400 272 l 1
 400 240 l 1
 112 240 l 1
 112 272 l 1
48 208 m 1
 464 208 l 1
 464 176 l 1
 48 176 l 1
 48 208 l 1
112 144 m 1
 400 144 l 1
 400 112 l 1
 112 112 l 1
 112 144 l 1
48 80 m 1
 464 80 l 1
 464 48 l 1
 48 48 l 1
 48 80 l 1
EndSplineSet
Validated: 1
EndChar

StartChar: uniF158
Encoding: 59 61784 58
Width: 512
LayerCount: 2
Fore
SplineSet
96 384 m 1
 416 384 l 1
 416 256 l 1
 384 288 l 1
 384 352 l 1
 128 352 l 1
 128 32 l 1
 384 32 l 1
 384 96 l 1
 416 128 l 1
 416 0 l 1
 96 0 l 1
 96 384 l 1
358.496 272 m 1
 358.480375 272 l 1
 427.488175 203.5195 l 1
 438.480375 192 l 1
 427.503775 180.4805 l 1
 358.495975 112 l 1
 335.999875 134.4961 l 1
 376.992075 176 l 1
 222.496075 176 l 1
 222.496075 208 l 1
 377.008075 208 l 1
 336.000275 249.5039 l 1
 358.496 272 l 1
EndSplineSet
Validated: 5
EndChar

StartChar: uniF151
Encoding: 60 61777 59
Width: 512
LayerCount: 2
Fore
SplineSet
240 384 m 1
 272 384 l 1
 272 118.976 l 1
 356.4805 203.5365 l 1
 379.5196 180.4965 l 1
 267.5196 68.4965 l 1
 256.0001 57.5043 l 1
 244.4806 68.4809 l 1
 132.4806 180.4809 l 1
 155.5197 203.52 l 1
 240.0002 118.9927 l 1
 240.0002 384.0007 l 1
 240 384 l 1
112 16 m 1
 400 16 l 1
 400 -16 l 1
 112 -16 l 1
 112 16 l 1
EndSplineSet
Validated: 5
EndChar

StartChar: uniF172
Encoding: 61 61810 60
Width: 512
LayerCount: 2
Fore
SplineSet
256 406.496 m 1
 256 406.511625 l 1
 267.5195 395.536025 l 1
 475.5195 187.536025 l 1
 452.4804 164.496025 l 1
 431.9999 185.007725 l 1
 431.9999 -0.000275000000016 l 1
 287.9999 -0.000275000000016 l 1
 287.9999 159.999725 l 1
 223.9999 159.999725 l 1
 223.9999 -0.000275000000016 l 1
 79.9999 -0.000275000000016 l 1
 79.9999 185.007725 l 1
 59.5194 164.463825 l 1
 36.4803 187.503825 l 1
 244.4803 395.503825 l 1
 256 406.496 l 1
256 360.992 m 1
 256 361.007625 l 1
 112 217.007625 l 1
 112 31.999625 l 1
 192 31.999625 l 1
 192 191.999625 l 1
 320 191.999625 l 1
 320 31.999625 l 1
 400 31.999625 l 1
 400 216.991625 l 1
 256 360.992 l 1
EndSplineSet
Validated: 1
EndChar

StartChar: uniF12A
Encoding: 62 61738 61
Width: 512
LayerCount: 2
Fore
SplineSet
256 400 m 4
 370.688 400 464 306.6885 464 192 c 4
 464 77.3115 370.6885 -16 256 -16 c 4
 141.3115 -16 48 77.3115 48 192 c 4
 48 306.6885 141.3115 400 256 400 c 4
256 368 m 5
 213.6641 368 174.8477 353.3281 144.48 328.4805 c 5
 390 78.0005 l 5
 416.1602 108.7046 432 148.3843 432 192.0005 c 4
 432 289.3921 353.3916 368.0005 256 368.0005 c 5
 256 368 l 5
122 306 m 5
 95.8398 275.2959 80 235.6162 80 192 c 4
 80 94.6084 158.6084 16 256 16 c 4
 298.3359 16 337.1523 30.6719 367.52 55.5195 c 5
 122 306 l 5
EndSplineSet
Validated: 1
EndChar

StartChar: uniF131
Encoding: 63 61745 62
Width: 512
Flags: HW
LayerCount: 2
Fore
SplineSet
157.322265625 52.16796875 m 4
 157.322265625 80.8642578125 169.244140625 103.73828125 183.830078125 120.087890625 c 5
 183.830078125 340.000976562 l 6
 183.830078125 362.088867188 193.34765625 379.504882812 205.0703125 391.2265625 c 4
 216.790039062 402.946289062 234.427734375 412.688476562 256.518554688 412.688476562 c 4
 278.587890625 412.688476562 296.036132812 402.9375 307.745117188 391.227539062 c 4
 319.467773438 379.505859375 329.20703125 362.0859375 329.20703125 340.000976562 c 6
 329.20703125 120.087890625 l 5
 343.811523438 103.717773438 355.71484375 80.892578125 355.71484375 52.16796875 c 4
 355.71484375 22.37890625 342.275390625 -0.7001953125 326.037109375 -16 c 4
 309.940429688 -31.1650390625 285.919921875 -43.7138671875 256.518554688 -43.7138671875 c 4
 227.141601562 -43.7138671875 203.078125 -31.1474609375 187 -16 c 4
 170.74609375 -0.6845703125 157.322265625 22.357421875 157.322265625 52.16796875 c 4
240.380859375 186.487304688 m 5
 272.65625 186.487304688 l 5
 272.65625 98.6337890625 l 5
 285.225585938 93.853515625 294.7109375 83.8828125 298.850585938 70.7734375 c 4
 300.236328125 66.3857421875 300.931640625 61.87109375 300.931640625 57.2490234375 c 4
 300.931640625 36.619140625 288.61328125 22.626953125 273.872070312 16.3095703125 c 4
 268.463867188 13.9921875 262.6640625 12.8359375 256.518554688 12.8359375 c 4
 235.888671875 12.8359375 221.897460938 25.154296875 215.579101562 39.89453125 c 4
 213.26171875 45.302734375 212.10546875 51.1025390625 212.10546875 57.2490234375 c 4
 212.10546875 73.6044921875 220.028320312 85.326171875 229.569335938 92.634765625 c 4
 232.834960938 95.13671875 236.446289062 97.1376953125 240.380859375 98.6337890625 c 6
 240.380859375 186.487304688 l 5
256.518554688 -11.439453125 m 6
 276.260742188 -11.439453125 292.456054688 -3.076171875 303.313476562 7.0224609375 c 4
 314.202148438 17.1513671875 323.439453125 32.7333984375 323.439453125 52.6103515625 c 4
 323.439453125 77.25390625 310.643554688 94.2646484375 296.931640625 106.9609375 c 5
 296.931640625 340.000976562 l 6
 296.931640625 358.827148438 285.735351562 371.502929688 272.299804688 377.260742188 c 4
 267.399414062 379.361328125 262.153320312 380.4140625 256.518554688 380.4140625 c 4
 237.692382812 380.4140625 225.016601562 369.216796875 219.2578125 355.78125 c 4
 217.158203125 350.880859375 216.10546875 345.635742188 216.10546875 340.000976562 c 6
 216.10546875 106.9609375 l 5
 202.379882812 94.251953125 189.59765625 77.2607421875 189.59765625 52.6103515625 c 4
 189.59765625 32.7470703125 198.844726562 17.1416015625 209.723632812 7.0224609375 c 4
 220.592773438 -3.0869140625 236.759765625 -11.439453125 256.518554688 -11.439453125 c 6
 256.518554688 -11.439453125 l 6
EndSplineSet
EndChar

StartChar: uniF1D6
Encoding: 64 61910 63
Width: 512
Flags: HW
LayerCount: 2
Fore
SplineSet
112 384 m 5
 132.4316 384 146.4482 374.65625 154 368 c 5
 358 368 l 5
 365.55176 374.65625 379.5684 384 400 384 c 4
 415.1035 384 430.6885 378.30371 443.0244 367.5039 c 4
 455.3916 356.6719 464.0322 340.0156 464.0322 319.9844 c 4
 464.0322 302.9922 456.89646 288.4483 448.0322 276.9756 c 4
 439.16794 265.5195 428.416 256.416 418.5283 247.5039 c 4
 398.7519 229.6318 384.0322 214.96 384.0322 191.9844 c 4
 384.0322 189.55178 386.41599 183.63186 389.53611 178.9922 c 4
 392.63963 174.32032 395.55173 171.50392 395.55173 171.50392 c 5
 372.51173 148.99222 l 5
 372.51173 148.99222 367.40821 154.14359 362.51173 161.50392 c 4
 358.20802 167.96779 353.61622 176.49612 352.49613 187.48832 c 5
 350.54398 182.00004 348.57621 176.32032 346.49613 171.00782 c 4
 335.39163 142.63962 322.87993 117.10352 308.48053 98.00002 c 4
 303.26373 91.04006 297.53623 84.83202 291.51963 79.51952 c 5
 325.04013 77.64843 352.00013 49.96772 352.00013 16.00002 c 6
 352.00013 1.99999999708e-05 l 5
 160.00013 1.99999999708e-05 l 5
 160.00013 16.00002 l 6
 160.00013 49.59962 186.44833 77.12012 219.48843 79.48832 c 5
 213.56851 84.79984 208.20813 91.00782 203.00793 97.98442 c 4
 188.67203 117.15242 176.03233 142.59182 164.99233 170.99222 c 4
 163.04018 175.96781 161.32827 181.32812 159.51967 186.48052 c 5
 158.24037 175.95222 153.67983 167.77642 149.51967 161.47172 c 4
 144.62416 154.1436 139.53627 148.99222 139.53627 148.99222 c 5
 116.49627 171.50392 l 5
 116.49627 171.50392 119.39178 174.35158 122.49627 178.9922 c 4
 125.59979 183.6797 128.00018 189.5684 128.00018 192 c 4
 128.00018 214.96 113.28048 229.6318 93.50408 247.5039 c 4
 83.61638 256.43163 72.86448 265.5361 64.00018 276.9922 c 4
 55.13592 288.4805 48.00018 303.0078 48.00018 320 c 4
 48.00018 340 56.67206 356.6719 68.99238 367.5195 c 4
 81.34398 378.3203 96.91228 384 112.00018 384 c 5
 112 384 l 5
112 352 m 5
 105.05566 352 96.6396 348.86426 90.4961 343.51953 c 4
 84.35157 338.1123 80 331.16793 80 320.00003 c 4
 80 311.32815 82.84766 304.48053 89.00781 296.49613 c 4
 95.13574 288.54398 104.38381 280.12793 114.49611 271.00783 c 4
 123.83986 262.55959 134.49611 253.02443 143.00781 241.50393 c 5
 134.08008 277.85643 128.44821 314.87993 128.00001 347.51993 c 4
 124.44825 349.60001 119.58399 352.0004 112.00001 352.0004 c 5
 112 352 l 5
400 352 m 5
 400.015625 352.015625 l 5
 392.431645 352.015625 387.568325 349.616215 384.015625 347.536135 c 4
 383.536133 314.416035 377.711915 277.135735 368.496125 240.496135 c 5
 377.120145 252.400435 387.904325 262.368235 397.503925 271.007835 c 4
 407.631825 280.160175 416.864325 288.543935 422.992225 296.480535 c 4
 429.120155 304.448305 432.000035 311.311635 432.000035 320.000035 c 4
 432.000035 331.168035 427.648475 338.112335 421.503935 343.519535 c 4
 415.360385 348.879885 406.944335 352.000005 400.000035 352.000005 c 6
 400 352 l 5
162 336 m 5
 164.44824 288.6885 176.3516 230.496 195.0078 182.496 c 4
 205.3115 155.9521 217.4082 133.0243 228.9922 117.5038 c 4
 240.5918 101.9843 250.7998 95.9999 255.5195 95.9999 c 4
 260.2236 95.9999 270.8799 102.03213 282.5117 117.5038 c 4
 294.1435 132.97547 306.1435 155.9843 316.4961 182.496 c 4
 335.2803 230.4315 347.5518 288.448 350 336 c 5
 162 336 l 5
240 288 m 5
 272 288 l 5
 272 208 l 5
 240 208 l 5
 240 288 l 5
224 48 m 6
 212.5283 48 204.6396 40.91211 199.0078 32 c 5
 313.0078 32 l 5
 307.36034 40.91211 299.4717 48 288 48 c 6
 224 48 l 6
EndSplineSet
EndChar

StartChar: uniF130
Encoding: 65 61744 64
Width: 512
Flags: HW
LayerCount: 2
Fore
SplineSet
85.966796875 128.412109375 m 4
 85.966796875 137.094726562 93.421875 144.549804688 102.104492188 144.549804688 c 4
 110.786132812 144.549804688 118.2421875 137.094726562 118.2421875 128.412109375 c 4
 118.2421875 119.729492188 110.787109375 112.274414062 102.104492188 112.274414062 c 4
 93.421875 112.274414062 85.966796875 119.729492188 85.966796875 128.412109375 c 4
396.994140625 128.412109375 m 4
 396.994140625 137.094726562 404.44921875 144.549804688 413.131835938 144.549804688 c 4
 421.813476562 144.549804688 429.26953125 137.094726562 429.26953125 128.412109375 c 4
 429.26953125 119.729492188 421.814453125 112.274414062 413.131835938 112.274414062 c 4
 404.44921875 112.274414062 396.994140625 119.729492188 396.994140625 128.412109375 c 4
462.879882812 257.651367188 m 5
 485.819335938 257.651367188 l 5
 485.819335938 225.375976562 l 5
 482.701171875 225.375976562 479.583007812 225.375976562 476.46484375 225.375976562 c 5
 463.383789062 212.493164062 l 5
 470.831054688 190.86328125 478.75 166.797851562 485.819335938 145.077148438 c 5
 485.819335938 1.173828125 l 6
 485.819335938 -12.8681640625 477.369140625 -22.38671875 467.385742188 -26.7275390625 c 4
 463.735351562 -28.314453125 459.772460938 -29.1015625 455.544921875 -29.1015625 c 6
 427.26953125 -29.1015625 l 6
 413.2265625 -29.1015625 403.708984375 -20.650390625 399.368164062 -10.6669921875 c 4
 398.033203125 -7.59765625 397.264648438 -4.30859375 397.053710938 -0.826171875 c 5
 118.181640625 -0.826171875 l 5
 117.403320312 -13.6669921875 109.426757812 -22.5458984375 99.8076171875 -26.7275390625 c 4
 96.158203125 -28.314453125 92.1953125 -29.1015625 87.966796875 -29.1015625 c 6
 59.69140625 -29.1015625 l 6
 45.6484375 -29.1015625 36.1318359375 -20.650390625 31.791015625 -10.6669921875 c 4
 30.2041015625 -7.0166015625 29.4169921875 -3.0537109375 29.4169921875 1.173828125 c 6
 29.4169921875 145.077148438 l 5
 35.8837890625 164.948242188 43.6630859375 187.021484375 50.0546875 207 c 4
 50.8583984375 209.51171875 51.4462890625 211.315429688 51.8515625 212.493164062 c 5
 38.7705078125 225.375976562 l 5
 35.65234375 225.375976562 32.53515625 225.375976562 29.4169921875 225.375976562 c 5
 29.4169921875 257.651367188 l 5
 52.3564453125 257.651367188 l 5
 55.984375 253.958984375 59.61328125 250.266601562 63.2412109375 246.575195312 c 5
 78.5537109375 292.720703125 l 6
 85.8466796875 315.051757812 102.916015625 331.401367188 124.9921875 338.837890625 c 4
 132.196289062 341.264648438 139.743164062 342.4765625 147.610351562 342.4765625 c 6
 367.625976562 342.4765625 l 6
 385.072265625 342.4765625 399.259765625 336.459960938 410.092773438 328.7421875 c 4
 421.986328125 320.267578125 431.475585938 307.72265625 436.678710938 292.729492188 c 6
 451.995117188 246.575195312 l 5
 455.623046875 250.266601562 459.250976562 253.958984375 462.879882812 257.651367188 c 5
147.610351562 310.201171875 m 6
 128.391601562 310.201171875 114.381835938 297.610351562 109.30078125 282.622070312 c 6
 91.412109375 229.375976562 l 5
 423.82421875 229.375976562 l 5
 405.93359375 282.626953125 l 6
 400.850585938 297.622070312 386.849609375 310.201171875 367.625976562 310.201171875 c 6
 147.610351562 310.201171875 l 6
340.443359375 31.44921875 m 5
 340.443359375 39.798828125 l 5
 318.236328125 84 l 5
 197 84 l 5
 174.79296875 39.798828125 l 5
 174.79296875 31.44921875 l 5
 340.443359375 31.44921875 l 5
142.517578125 31.44921875 m 5
 142.517578125 36.7568359375 142.517578125 42.0634765625 142.517578125 47.37109375 c 5
 168.791015625 100.137695312 l 5
 160.084960938 117.934570312 150.962890625 135.31640625 142.517578125 153.374023438 c 5
 142.517578125 197.100585938 l 5
 80.7490234375 197.100585938 l 5
 74.259765625 178.66015625 67.70703125 158.561523438 61.69140625 140.0234375 c 5
 61.69140625 31.44921875 l 5
 142.517578125 31.44921875 l 5
340.443359375 197.100585938 m 5
 174.79296875 197.100585938 l 5
 174.79296875 160.475585938 l 5
 197 116.274414062 l 5
 318.236328125 116.274414062 l 5
 340.443359375 160.475585938 l 5
 340.443359375 197.100585938 l 5
372.71875 31.44921875 m 5
 453.544921875 31.44921875 l 5
 453.544921875 140.0234375 l 5
 448.178710938 156.561523438 441.733398438 176.286132812 435.876953125 192.685546875 c 4
 435.192382812 194.604492188 434.692382812 196.038085938 434.360351562 197.100585938 c 5
 372.71875 197.100585938 l 5
 372.71875 182.368164062 372.71875 167.635742188 372.71875 152.903320312 c 5
 346.4453125 100.137695312 l 5
 372.71875 47.37109375 l 5
 372.71875 42.0634765625 372.71875 36.7568359375 372.71875 31.44921875 c 5
400.994140625 382.889648438 m 4
 400.994140625 374.20703125 393.5390625 366.751953125 384.856445312 366.751953125 c 6
 130.379882812 366.751953125 l 6
 121.697265625 366.751953125 114.2421875 374.20703125 114.2421875 382.889648438 c 4
 114.2421875 391.572265625 121.697265625 399.02734375 130.379882812 399.02734375 c 6
 384.856445312 399.02734375 l 6
 393.538085938 399.02734375 400.994140625 391.572265625 400.994140625 382.889648438 c 4
EndSplineSet
EndChar

StartChar: uniF150
Encoding: 66 61776 65
Width: 512
LayerCount: 2
Fore
SplineSet
80 368 m 1
 432 368 l 1
 432 16 l 1
 80 16 l 1
 80 368 l 1
112 336 m 1
 112 48 l 1
 400 48 l 1
 400 336 l 1
 112 336 l 1
171.52 243.52 m 5
 171.52 243.48875 l 5
 256.0005 158.97605 l 5
 340.481 243.53655 l 5
 363.5201 220.49655 l 5
 267.5201 124.49655 l 5
 256.0006 113.50435 l 5
 244.4811 124.48095 l 5
 148.4811 220.48095 l 5
 171.52 243.52 l 5
EndSplineSet
Validated: 1
EndChar

StartChar: uniF193
Encoding: 67 61843 66
Width: 512
LayerCount: 2
Fore
SplineSet
137.504 368 m 1
 176.0001 368 l 1
 176.0001 208 l 1
 144.0001 208 l 1
 144.0001 310.496 l 1
 133.1202 298.7997 118.0157 287.9999 96.0001 287.9999 c 1
 96.0001 319.9999 l 1
 111.6798 319.9999 119.6485 327.67959 126.0001 337.0077 c 0
 132.35166 346.3036 135.00791 355.5194 135.00791 355.5194 c 1
 137.504 368 l 1
352 368 m 1
 384 368 l 1
 384 69.008 l 1
 425.5039 110.4963 l 1
 448 88.0002 l 1
 379.5195 19.008 l 1
 368 8.0002 l 1
 356.4805 18.9924 l 1
 288 88.0002 l 1
 310.4961 110.4963 l 1
 352 68.9924 l 1
 352 368.0004 l 1
 352 368 l 1
136 176 m 1
 152 176 l 2
 182.7842 176 208 150.7842 208 120 c 0
 208 98.4805 194.2402 81.1523 178 71.0244 c 0
 160.2725 60.1123 146.7676 54.0644 134.9922 48.0156 c 1
 208 48.0156 l 1
 208 16.0156 l 1
 80 16.0156 l 1
 80 32.0156 l 2
 80 41.29587 84.38379 50.4638 89.98438 56.4961 c 0
 95.63184 62.55958 102.27248 66.44825 109.50388 70.4961 c 0
 123.93548 78.5918 141.24798 86.3359 160.99218 98.4961 c 0
 170.35156 104.32032 175.99998 112.7041 175.99998 120 c 0
 175.99998 134.0156 166.0156 144 151.99998 144 c 2
 135.99998 144 l 2
 121.98438 144 111.99998 134.01562 111.99998 120 c 2
 111.99998 112 l 1
 79.99998 112 l 1
 79.99998 120 l 2
 79.99998 150.7842 105.21578 176 135.99998 176 c 2
 136 176 l 1
EndSplineSet
Validated: 5
EndChar

StartChar: uniF1CC
Encoding: 68 61900 67
Width: 512
Flags: HW
LayerCount: 2
Fore
SplineSet
345.984375 407 m 1
 377.984375 407 l 1
 377.984375 384.50390625 l 1
 391.264648438 382.16796875 403.360351562 376.919921875 413.984375 369.49609375 c 1
 428.9765625 384.50390625 l 1
 451.48828125 362.0078125 l 1
 436.48046875 347 l 1
 443.904296875 336.375976562 449.15234375 324.280273438 451.48828125 311 c 1
 473.984375 311 l 1
 473.984375 279 l 1
 451.50390625 279 l 1
 449.13671875 265.608398438 444.016601562 253.208007812 436.49609375 242.48828125 c 1
 452.016601562 226.0078125 l 1
 428.49609375 203.9921875 l 1
 413.520507812 219.9921875 l 1
 403.008789062 212.791992188 391.024414062 207.799804688 378 205.49609375 c 1
 378 183 l 1
 346 183 l 1
 346 205.48046875 l 1
 332.720703125 207.81640625 320.624023438 213.064453125 310 220.48828125 c 1
 293.520507812 203.463867188 l 1
 270.48046875 226.50390625 l 1
 287.48828125 242.984375 l 1
 280.064453125 253.608398438 274.81640625 265.704101562 272.48046875 278.984375 c 1
 249.984375 278.984375 l 1
 249.984375 310.984375 l 1
 272.48046875 310.984375 l 1
 274.784179688 324.0078125 279.791992188 335.9921875 286.9921875 346.50390625 c 1
 270.9921875 361.49609375 l 1
 292.9921875 385.015625 l 1
 309.50390625 369.49609375 l 1
 320.176757812 377.032226562 332.592773438 382.135742188 345.984375 384.50390625 c 1
 345.984375 407 l 1
361.984375 353.9921875 m 1
 361.984375 354.0078125 l 1
 329.104492188 354.0078125 302.9765625 327.879882812 302.9765625 295 c 0
 302.9765625 262.120117188 329.104492188 235.9921875 361.984375 235.9921875 c 0
 394.864257812 235.9921875 420.9921875 262.120117188 420.9921875 295 c 0
 420.9921875 327.879882812 394.864257812 353.9921875 361.984375 353.9921875 c 1
 361.984375 353.9921875 l 1
80 313 m 1
 221 313 l 1
 221 279 l 1
 112 281 l 1
 80 313 l 1
361 321.174804688 m 0
 375.3984375 321.174804688 387.21484375 309.358398438 387.21484375 294.959960938 c 0
 387.21484375 280.5625 375.3984375 268.745117188 361 268.745117188 c 0
 346.6015625 268.745117188 334.78515625 280.5625 334.78515625 294.959960938 c 0
 334.78515625 309.358398438 346.6015625 321.174804688 361 321.174804688 c 0
  Spiro
    361 321.175 o
    374.184 317.585 o
    383.625 308.144 o
    387.215 294.96 o
    383.625 281.776 o
    374.184 272.336 o
    361 268.746 o
    347.816 272.336 o
    338.376 281.776 o
    334.786 294.96 o
    338.376 308.144 o
    347.816 317.585 o
    0 0 z
  EndSpiro
112 281 m 1
 112 105 l 1
 400 105 l 1
 399 179 l 1
 432 151.307617188 l 1
 432 95.9755859375 l 1
 468.48046875 59.015625 l 2
 475.744140625 51.751953125 480 41.736328125 480 31.49609375 c 0
 480 10.3603515625 462.624023438 -7 441.50390625 -7 c 2
 70.49609375 -7 l 2
 49.3603515625 -7 32 10.3603515625 32 31.48046875 c 0
 32 41.7197265625 36.255859375 51.751953125 43.51953125 59 c 2
 80 95.9921875 l 1
 80 313.000976562 l 1
 80 313 l 1
 112 281 l 1
102.9921875 73 m 1
 103.0078125 73 l 1
 66 36.50390625 l 2
 64.767578125 35.255859375 64 33.255859375 64 31.49609375 c 0
 64 27.65625 66.65625 25 70.49609375 25 c 2
 441.50390625 25 l 2
 445.34375 25 448 27.65625 448 31.49609375 c 0
 448 33.255859375 447.232421875 35.240234375 446 36.51953125 c 2
 408.9921875 73 l 1
 102.9921875 73 l 1
 102.9921875 73 l 1
  Spiro
    102.992 73 v
    103.008 73 v
    65.9998 36.5039 ]
    64.9345 35.0436 o
    64.244 33.2974 o
    63.9998 31.4961 o
    64.8291 28.1082 o
    67.108 25.8293 o
    70.4959 25 [
    441.504 25 ]
    444.892 25.8293 o
    447.171 28.1082 o
    448 31.4961 o
    447.756 33.2945 o
    447.065 35.0413 o
    446 36.5195 [
    408.992 73 v
    102.992 73 v
    0 0 z
  EndSpiro
EndSplineSet
EndChar

StartChar: uniF112
Encoding: 69 61714 68
Width: 512
Flags: HW
LayerCount: 2
Fore
SplineSet
240 384 m 5
 272 384 l 5
 272 62.992 l 5
 380.48 171.536 l 5
 403.5191 148.496 l 5
 267.5191 12.496 l 5
 255.9996 1.5038 l 5
 244.4801 12.4804 l 5
 108.4801 148.4804 l 5
 131.5192 171.5195 l 5
 239.9992 62.9925 l 5
 239.9992 384.0005 l 5
 240 384 l 5
EndSplineSet
EndChar

StartChar: uniF13E
Encoding: 70 61758 69
Width: 512
LayerCount: 2
Fore
SplineSet
48 352 m 5
 464 352 l 5
 464 32 l 5
 310.992 32 l 5
 267.5359 -11.5039 l 5
 256.0154 -22.4961 l 5
 244.4959 -11.5195 l 5
 201.0076 32 l 5
 47.9996 32 l 5
 47.9996 352 l 5
 48 352 l 5
80 320 m 5
 80 63.984 l 5
 214.496 63.984 l 5
 219.51944 59.4713 l 5
 255.99994 22.9918 l 5
 292.49604 59.5191 l 5
 297.50385 63.99957 l 5
 431.99985 63.99957 l 5
 431.99985 319.99957 l 5
 79.99985 319.99957 l 5
 80 320 l 5
144 272 m 5
 368 272 l 5
 368 240 l 5
 144 240 l 5
 144 272 l 5
144 208 m 5
 368 208 l 5
 368 176 l 5
 144 176 l 5
 144 208 l 5
144 144 m 5
 304 144 l 5
 304 112 l 5
 144 112 l 5
 144 144 l 5
EndSplineSet
Validated: 5
EndChar

StartChar: uniF18E
Encoding: 71 61838 70
Width: 512
Flags: HW
LayerCount: 2
Fore
SplineSet
159.090820312 34.5888671875 m 4
 137.0859375 49.9970703125 118.038085938 70.3173828125 103.7578125 95.05078125 c 4
 65.6572265625 161.04296875 71.7724609375 240.588867188 112.8203125 299.2109375 c 4
 153.015625 356.6171875 214.303710938 379.942382812 268.356445312 379.86328125 c 4
 278.328125 379.846679688 288.297851562 379.829101562 298.26953125 379.8125 c 5
 293.298828125 371.16796875 288.329101562 362.522460938 283.358398438 353.877929688 c 4
 255.75390625 305.903320312 255.729492188 246.411132812 283.271484375 198.70703125 c 4
 294.696289062 178.918945312 310.251953125 162.21875 328.479492188 149.455078125 c 4
 354.212890625 131.436523438 385.322265625 121.231445312 417.702148438 121.182617188 c 4
 427.686523438 121.171875 437.668945312 121.16015625 447.651367188 121.149414062 c 5
 439.970703125 107.819335938 432.9375 94.2353515625 423.620117188 80.927734375 c 4
 407.765625 58.2841796875 387.158203125 39.3310546875 363.250976562 25.5283203125 c 4
 297.258789062 -12.5732421875 217.711914062 -6.4580078125 159.090820312 34.5888671875 c 4
141.202148438 279.307617188 m 4
 107.626953125 231.357421875 102.64453125 166.306640625 133.770507812 112.390625 c 4
 145.454101562 92.154296875 161.02734375 75.552734375 178.993164062 62.97265625 c 4
 239.998046875 20.255859375 331.147460938 24.4267578125 386.251953125 89.1962890625 c 5
 358.145507812 93.951171875 331.626953125 104.944335938 308.587890625 121.075195312 c 4
 286.271484375 136.703125 267.250976562 157.129882812 253.259765625 181.364257812 c 4
 224.815429688 230.629882812 220.376953125 290.047851562 239.928710938 342.635742188 c 5
 222.58984375 339.458007812 205.90234375 333.352539062 190.622070312 324.530273438 c 4
 170.385742188 312.846679688 153.78125 297.274414062 141.202148438 279.307617188 c 4
EndSplineSet
EndChar

StartChar: uniF13A
Encoding: 72 61754 71
Width: 512
LayerCount: 2
Fore
SplineSet
240 400 m 2
 260.1602 400 274.4316 385.7598 281.5039 368 c 1
 399.9999 368 l 1
 399.9999 0 l 1
 79.9999 0 l 1
 79.9999 368 l 1
 198.4959 368 l 1
 205.56817 385.7598 219.8397 400 239.9998 400 c 2
 240 400 l 2
240 368 m 0
 231.12012 368 224 360.87988 224 352 c 2
 224 336 l 1
 176 336 l 1
 176 304 l 1
 304 304 l 1
 304 336 l 1
 256 336 l 1
 256 352 l 2
 256 360.87988 248.87988 368 240 368 c 0
112 336 m 1
 112 32 l 1
 368 32 l 1
 368 336 l 1
 336 336 l 1
 336 272 l 1
 144 272 l 1
 144 336 l 1
 112 336 l 1
EndSplineSet
Validated: 1
EndChar

StartChar: uniF1A2
Encoding: 73 61858 72
Width: 512
LayerCount: 2
Fore
SplineSet
327.52 406.992 m 1
 327.504375 406.9753984 l 1
 339.504375 395.5036984 l 1
 459.504375 275.5036984 l 1
 470.496575 263.9841984 l 1
 459.488775 252.4636984 l 2
 439.216275 232.1921984 410.800275 224.1755984 383.008275 227.5036984 c 1
 326.000475 170.4802984 l 1
 336.032675 129.0876984 326.528795 83.0241984 292.992675 49.5192984 c 2
 281.504375 37.9997984 l 1
 270.496575 49.4880984 l 1
 203.008275 117.0075984 l 1
 70.496275 -16.0004016 l 1
 48.000175 -16.0004016 l 1
 48.000175 6.5112984 l 1
 181.024175 138.9912984 l 1
 112.015375 207.9990984 l 1
 100.495875 218.9746984 l 1
 112.015375 230.4951984 l 2
 142.463575 260.9433984 184.975375 272.0312984 224.495375 264.9912984 c 1
 289.503175 329.9990984 l 1
 291.327395 353.3105984 299.279545 376.5908984 315.999275 394.9912984 c 2
 327.52 406.992 l 1
331.008 358 m 1
 330.992375 358 l 1
 324.672065 346.5283 319.984575 334.3682 319.984575 321.5195 c 2
 319.984575 314.99216 l 1
 315.504105 310.51169 l 1
 241.504105 236.49609 l 1
 234.975785 230 l 1
 226.496295 232.48047 l 2
 200.288295 239.36035 172.272695 232.000001 148.992395 215.99997 c 1
 280.015395 84.97597 l 1
 298.559295 110.97597 302.911895 142.78457 293.519295 170.97597 c 2
 290.511485 180.46425 l 1
 297.519295 187.50429 l 1
 364.495895 254.49649 l 1
 370.991985 260.99258 l 1
 379.999795 258.51211 l 2
 394.543695 254.86465 408.799595 259.53652 421.999795 266.99258 c 1
 331.008 358 l 1
EndSplineSet
Validated: 37
EndChar

StartChar: uniF1D2
Encoding: 74 61906 73
Width: 512
Flags: H
LayerCount: 2
Fore
SplineSet
64 384 m 1
 96 384 l 1
 96 304 l 1
 210.992 304 l 1
 217.6961 322.4961 235.328125 344 256 344 c 0
 276.671875 344 294.3035 322.4961 300.992 304 c 1
 448 304 l 1
 448 272 l 1
 301.008 272 l 1
 294.3039 253.5039 276.671875 232 256 232 c 0
 235.328125 232 217.6965 253.5039 211.008 272 c 1
 96 272 l 1
 96 208 l 1
 322.992 208 l 1
 329.6961 226.4961 347.328125 248 368 248 c 0
 388.671875 248 406.3035 226.4961 412.992 208 c 1
 447.9998 208 l 1
 447.9998 176 l 1
 413.0076 176 l 1
 406.3035 157.5039 388.671875 136 368 136 c 0
 347.328125 136 329.6961 157.5039 323.0076 176 c 1
 95.9996 176 l 1
 95.9996 112 l 1
 130.9918 112 l 1
 137.6959 130.4961 155.328125 152 176 152 c 0
 196.671875 152 214.3033 130.4961 220.9918 112 c 1
 447.9998 112 l 1
 447.9998 80 l 1
 221.0078 80 l 1
 214.3037 61.5039 196.671875 40 176 40 c 0
 155.328125 40 137.6963 61.5039 131.0078 80 c 1
 96 80 l 1
 96 0 l 1
 64 0 l 1
 64 384 l 1
256 312 m 0
 246.975585938 312 240 297.02441 240 288 c 0
 240 278.97559 246.975585938 264 256 264 c 0
 265.024414062 264 272 278.97559 272 288 c 0
 272 297.02441 265.024414062 312 256 312 c 0
368 216 m 0
 358.975585938 216 352 201.02441 352 192 c 0
 352 182.97559 358.975585938 168 368 168 c 0
 377.024414062 168 384 182.97559 384 192 c 0
 384 201.02441 377.024414062 216 368 216 c 0
176 120 m 4
 166.975585938 120 160 105.02441 160 96 c 0
 160 86.97559 166.975585938 72 176 72 c 0
 185.024414062 72 192 86.97559 192 96 c 0
 192 105.02441 185.024414062 120 176 120 c 4
EndSplineSet
EndChar

StartChar: uniF176
Encoding: 75 61814 74
Width: 512
LayerCount: 2
Fore
SplineSet
96 384 m 1
 416 384 l 1
 416 240 l 1
 384 240 l 1
 384 352 l 1
 128 352 l 1
 128 32 l 1
 384 32 l 1
 384 144 l 1
 416 144 l 1
 416 0 l 1
 96 0 l 1
 96 384 l 1
280 272 m 1
 302.4961 249.5039 l 1
 260.9922 208 l 1
 448.0002 208 l 1
 448.0002 176 l 1
 261.0082 176 l 1
 302.4965 134.4961 l 1
 280.0004 112 l 1
 211.0082 180.4805 l 1
 200.0004 192 l 1
 210.9926 203.5195 l 1
 280 272 l 1
EndSplineSet
Validated: 1
EndChar

StartChar: uniF1CA
Encoding: 76 61898 75
Width: 512
VWidth: 1024
Flags: HW
LayerCount: 2
Fore
SplineSet
425.724609375 397.853515625 m 2
 439.766137268 397.853515625 449.286036768 389.402909185 453.626168063 379.418880363 c 0
 455.213103569 375.768297294 456 371.805530422 456 367.578125 c 2
 456 -2 l 1
 107.9029734 -2 l 1
 56.146484375 49.9822948306 l 1
 56.146484375 367.578125 l 2
 56.146484375 381.619652893 64.5970908155 391.139552393 74.5811196374 395.479683688 c 0
 78.2317027064 397.066619194 82.1944695776 397.853515625 86.421875 397.853515625 c 2
 425.724609375 397.853515625 l 2
144.97265625 365.578125 m 1
 144.97265625 228.202148438 l 1
 367.173828125 228.202148438 l 1
 367.173828125 365.578125 l 1
 144.97265625 365.578125 l 1
310.624023438 30.275390625 m 1
 310.624023438 111.1015625 l 1
 173.248046875 111.1015625 l 1
 173.248046875 30.275390625 l 1
 197.522460938 30.275390625 l 1
 197.522460938 86.826171875 l 1
 229.797851562 86.826171875 l 1
 229.797851562 30.275390625 l 1
 310.624023438 30.275390625 l 1
423.724609375 30.275390625 m 1
 423.724609375 365.578125 l 1
 399.44921875 365.578125 l 1
 399.44921875 195.926757812 l 1
 112.697265625 195.926757812 l 1
 112.697265625 365.578125 l 1
 88.421875 365.578125 l 1
 88.421875 63.3387336593 l 1
 121.272094748 30.275390625 l 1
 140.97265625 30.275390625 l 1
 140.97265625 143.375976562 l 1
 342.8984375 143.375976562 l 1
 342.8984375 30.275390625 l 1
 423.724609375 30.275390625 l 1
EndSplineSet
EndChar

StartChar: uniF1BA
Encoding: 77 61882 76
Width: 512
Flags: HW
LayerCount: 2
Fore
SplineSet
116 28.275390625 m 5
 31.1748046875 28.275390625 l 5
 31.1748046875 369.578125 l 6
 31.1748046875 383.620117188 39.625 393.138671875 49.6083984375 397.479492188 c 4
 53.2587890625 399.06640625 57.2216796875 399.853515625 61.44921875 399.853515625 c 6
 167.481445312 399.853515625 l 6
 186.043945312 399.853515625 198.799804688 393.703125 208.758789062 385.240234375 c 4
 214.264648438 380.559570312 219.814453125 376.388671875 226.879882812 373.53125 c 4
 230.055664062 372.247070312 233.810546875 371.578125 238.169921875 371.578125 c 6
 457.302734375 371.578125 l 6
 471.344726562 371.578125 480.86328125 363.127929688 485.203125 353.143554688 c 4
 486.790039062 349.493164062 487.577148438 345.530273438 487.577148438 341.302734375 c 6
 487.577148438 28.275390625 l 5
 402.751953125 28.275390625 l 5
 402.751953125 18.8505859375 402.751953125 9.4248046875 402.751953125 0 c 5
 313.926757812 0 l 5
 313.926757812 9.4248046875 313.926757812 18.8505859375 313.926757812 28.275390625 c 5
 204.825195312 28.275390625 l 5
 204.825195312 18.8505859375 204.825195312 9.4248046875 204.825195312 0 c 5
 116 0 l 5
 116 9.4248046875 116 18.8505859375 116 28.275390625 c 5
194.484375 355.440429688 m 5
 187.20703125 361.725585938 180.8984375 367.578125 167.481445312 367.578125 c 6
 63.44921875 367.578125 l 5
 63.44921875 343.302734375 l 5
 167.481445312 343.302734375 l 6
 180.905273438 343.302734375 187.204101562 349.15234375 194.484375 355.440429688 c 5
204.825195312 60.55078125 m 5
 313.926757812 60.55078125 l 5
 313.926757812 113.1015625 l 5
 204.825195312 113.1015625 l 5
 204.825195312 60.55078125 l 5
160.413085938 169.651367188 m 6
 153.91796875 169.651367188 148.275390625 164.0078125 148.275390625 157.513671875 c 6
 148.275390625 32.275390625 l 5
 172.55078125 32.275390625 l 5
 172.55078125 145.375976562 l 5
 346.201171875 145.375976562 l 5
 346.201171875 32.275390625 l 5
 370.4765625 32.275390625 l 5
 370.4765625 157.513671875 l 6
 370.4765625 164.008789062 364.833007812 169.651367188 358.338867188 169.651367188 c 6
 160.413085938 169.651367188 l 6
455.302734375 60.55078125 m 5
 455.302734375 339.302734375 l 5
 238.169921875 339.302734375 l 6
 229.034179688 339.302734375 223.068359375 336.137695312 217.537109375 332.360351562 c 4
 211.130859375 327.984375 205.3828125 322.549804688 198.27734375 318.571289062 c 4
 190.135742188 314.01171875 180.479492188 311.02734375 167.481445312 311.02734375 c 6
 63.44921875 311.02734375 l 5
 63.44921875 60.55078125 l 5
 116 60.55078125 l 5
 116 157.513671875 l 6
 116 178.143554688 128.317382812 192.134765625 143.059570312 198.452148438 c 4
 148.467773438 200.770507812 154.267578125 201.926757812 160.413085938 201.926757812 c 6
 358.338867188 201.926757812 l 6
 378.96875 201.926757812 392.959960938 189.609375 399.27734375 174.8671875 c 4
 401.595703125 169.458984375 402.751953125 163.659179688 402.751953125 157.513671875 c 6
 402.751953125 60.55078125 l 5
 455.302734375 60.55078125 l 5
EndSplineSet
EndChar

StartChar: uniF167
Encoding: 78 61799 77
Width: 512
LayerCount: 2
Fore
SplineSet
64 368 m 1
 96 368 l 1
 96 336 l 1
 64 336 l 1
 64 368 l 1
336 368 m 1
 368 368 l 1
 368 69.008 l 1
 409.5039 110.4963 l 1
 432 88.0002 l 1
 363.5195 19.008 l 1
 352 8.0002 l 1
 340.4805 18.9924 l 1
 272 88.0002 l 1
 294.4961 110.4963 l 1
 336 68.9924 l 1
 336 368.0004 l 1
 336 368 l 1
64 304 m 1
 128 304 l 1
 128 272 l 1
 64 272 l 1
 64 304 l 1
64 240 m 1
 160 240 l 1
 160 208 l 1
 64 208 l 1
 64 240 l 1
64 176 m 1
 192 176 l 1
 192 144 l 1
 64 144 l 1
 64 176 l 1
64 112 m 1
 224 112 l 1
 224 80 l 1
 64 80 l 1
 64 112 l 1
64 48 m 1
 256 48 l 1
 256 16 l 1
 64 16 l 1
 64 48 l 1
EndSplineSet
Validated: 5
EndChar

StartChar: uniF1DE
Encoding: 79 61918 78
Width: 512
LayerCount: 2
Fore
SplineSet
80 368 m 1
 432 368 l 1
 432 16 l 1
 80 16 l 1
 80 368 l 1
112 336 m 1
 112 48 l 1
 400 48 l 1
 400 336 l 1
 112 336 l 1
256 270.496 m 1
 267.5195 259.5194 l 1
 363.5195 163.5194 l 1
 340.4804 140.5282 l 1
 255.9999 225.0077 l 1
 171.5194 140.4638 l 1
 148.4803 163.5038 l 1
 244.4803 259.5038 l 1
 256 270.496 l 1
EndSplineSet
Validated: 1
EndChar

StartChar: uniF183
Encoding: 80 61827 79
Width: 512
LayerCount: 2
Fore
SplineSet
80 368 m 1
 432 368 l 1
 432 16 l 1
 80 16 l 1
 80 368 l 1
112 336 m 1
 112 48 l 1
 400 48 l 1
 400 336 l 1
 112 336 l 1
284.48 299.52 m 1
 307.4712 276.4809 l 1
 222.9917 192.0004 l 1
 307.5356 107.5199 l 1
 284.4956 84.4808 l 1
 188.4956 180.4808 l 1
 177.5034 192.0003 l 1
 188.48 203.5198 l 1
 284.48 299.52 l 1
EndSplineSet
Validated: 1
EndChar

StartChar: uniF1D8
Encoding: 81 61912 80
Width: 512
VWidth: 2048
Flags: HW
LayerCount: 2
Fore
SplineSet
333.275390625 241.614257812 m 4
 348.868164062 240.970703125 361.0234375 234.625976562 369.7421875 222.580078125 c 5
 376.541992188 225.688476562 383.236328125 227.321289062 389.826171875 227.4765625 c 4
 402.198242188 226.977539062 412.68359375 222.659179688 421.282226562 214.520507812 c 4
 425.34375 210.038085938 428.50390625 205.336914062 430.763671875 200.416992188 c 4
 432.954101562 194.619140625 434.112304688 188.833984375 434.23828125 183.063476562 c 6
 434.23828125 98.23828125 l 6
 433.969726562 80.1650390625 430.565429688 63.4072265625 424.0234375 47.962890625 c 4
 416.822265625 32.0791015625 407.587890625 18.3974609375 396.3203125 6.91796875 c 4
 370.395507812 -18.09375 339.955078125 -30.7333984375 305 -31 c 4
 262.670898438 -30.47265625 225.82421875 -14.7412109375 194.461914062 16.1953125 c 6
 90.1962890625 120.459960938 l 6
 81.533203125 129.9921875 77.0673828125 140.846679688 76.798828125 153.021484375 c 4
 77.302734375 165.842773438 81.8427734375 176.76953125 90.41796875 185.802734375 c 4
 99.9638671875 194.475585938 110.817382812 198.942382812 122.978515625 199.201171875 c 4
 135.7734375 198.654296875 146.625 194.1171875 155.532226562 185.588867188 c 6
 175.76171875 165.548828125 l 5
 175.76171875 233.717773438 l 5
 167.125 238.1875 159.540039062 243.302734375 153.005859375 249.065429688 c 4
 145.805664062 255.879882812 139.76171875 263.01171875 134.875976562 270.459960938 c 4
 124.619140625 287.30078125 119.397460938 305.293945312 119.2109375 324.439453125 c 4
 119.73046875 352.440429688 129.572265625 376.252929688 148.735351562 395.87890625 c 4
 169.056640625 415.298828125 192.870117188 425.139648438 220.174804688 425.40234375 c 4
 248.174804688 424.8828125 271.98828125 415.041992188 291.614257812 395.87890625 c 4
 311.034179688 375.557617188 320.875 351.744140625 321.137695312 324.439453125 c 4
 320.600585938 296.344726562 310.763671875 272.575195312 291.625976562 253.131835938 c 5
 295.986328125 251.3828125 299.77734375 249.361328125 302.999023438 247.065429688 c 4
 307.081054688 243.654296875 310.461914062 240.196289062 313.140625 236.692382812 c 5
 319.956054688 239.817382812 326.666992188 241.458007812 333.275390625 241.614257812 c 4
264.586914062 272.037109375 m 5
 280.466796875 286.444335938 288.55859375 303.912109375 288.862304688 324.439453125 c 4
 288.341796875 343.247070312 281.578125 359.380859375 268.573242188 372.838867188 c 4
 254.427734375 386.100585938 238.294921875 392.86328125 220.174804688 393.127929688 c 4
 201.223632812 392.60546875 185.016601562 385.841796875 171.5546875 372.838867188 c 4
 158.436523438 358.833007812 151.747070312 342.700195312 151.486328125 324.439453125 c 4
 152.088867188 303.182617188 160.180664062 285.715820312 175.76171875 272.037109375 c 5
 175.76171875 324.439453125 l 6
 176.260742188 336.811523438 180.579101562 347.296875 188.717773438 355.896484375 c 4
 193.19921875 359.958007812 197.900390625 363.118164062 202.8203125 365.377929688 c 4
 208.619140625 367.568359375 214.404296875 368.7265625 220.174804688 368.852539062 c 4
 232.546875 368.353515625 243.032226562 364.03515625 251.630859375 355.896484375 c 4
 255.692382812 351.4140625 258.852539062 346.712890625 261.112304688 341.79296875 c 4
 263.302734375 335.995117188 264.4609375 330.209960938 264.586914062 324.439453125 c 6
 264.586914062 272.037109375 l 5
232.3125 324.439453125 m 5
 231.151367188 331.9375 227.10546875 335.983398438 220.174804688 336.577148438 c 4
 212.67578125 335.416015625 208.629882812 331.370117188 208.037109375 324.439453125 c 6
 208.037109375 150.590820312 l 6
 207.782226562 146.66796875 207.100585938 143.272460938 205.993164062 140.405273438 c 4
 204.263671875 137.100585938 202.4375 134.36328125 200.515625 132.192382812 c 4
 197.71875 129.73828125 194.959960938 127.856445312 192.23828125 126.548828125 c 4
 188.669921875 125.313476562 185.317382812 124.634765625 182.1796875 124.512695312 c 4
 178.390625 124.750976562 175.01953125 125.385742188 172.065429688 126.416015625 c 4
 168.571289062 128.114257812 165.654296875 130.03125 163.314453125 132.16796875 c 6
 132.609375 162.873046875 l 6
 129.411132812 165.333007812 126.200195312 166.68359375 122.978515625 166.92578125 c 4
 119.03515625 166.389648438 115.782226562 165.033203125 113.219726562 162.856445312 c 4
 110.69921875 159.640625 109.317382812 156.362304688 109.07421875 153.021484375 c 4
 109.61328125 149.09765625 110.963867188 145.887695312 113.126953125 143.390625 c 6
 217.392578125 38.90234375 l 6
 230.004882812 26.6865234375 243.352539062 17.36328125 257.434570312 10.9326171875 c 4
 272.32421875 4.6259765625 288.1796875 1.40625 305 1.2744140625 c 4
 331.752929688 1.796875 354.586914062 11.28515625 373.500976562 29.7373046875 c 4
 392.2109375 49.3544921875 401.698242188 72.1884765625 401.962890625 98.23828125 c 6
 401.962890625 183.063476562 l 5
 400.801757812 190.561523438 396.755859375 194.607421875 389.826171875 195.201171875 c 4
 385.587890625 194.75390625 382.633789062 193.635742188 380.963867188 191.84765625 c 4
 378.729492188 187.79296875 377.572265625 182.247070312 377.491210938 175.2109375 c 6
 377.884765625 162.642578125 l 6
 377.731445312 154.206054688 376.328125 147.888671875 373.673828125 143.69140625 c 4
 370.610351562 140.577148438 366.569335938 138.897460938 361.55078125 138.650390625 c 4
 355.444335938 139.283203125 351.146484375 141.348632812 348.659179688 144.84765625 c 4
 346.1015625 150.158203125 344.83984375 155.779296875 344.872070312 161.711914062 c 132
 344.904296875 167.64453125 345.09375 172.603515625 345.438476562 176.588867188 c 4
 346.583984375 189.823242188 345.668945312 199.344726562 342.6953125 205.153320312 c 4
 340.241210938 207.677734375 337.1015625 209.072265625 333.275390625 209.338867188 c 4
 329.037109375 208.891601562 326.083007812 207.7734375 324.413085938 205.985351562 c 4
 322.178710938 201.9296875 321.021484375 196.383789062 320.94140625 189.346679688 c 6
 321.333984375 176.780273438 l 6
 321.180664062 168.34375 319.77734375 162.026367188 317.124023438 157.829101562 c 4
 314.060546875 154.71484375 310.018554688 153.03515625 305 152.788085938 c 4
 298.893554688 153.420898438 294.596679688 155.486328125 292.109375 158.985351562 c 4
 289.551757812 164.295898438 288.2890625 169.91796875 288.321289062 175.852539062 c 132
 288.353515625 181.787109375 288.54296875 186.74609375 288.887695312 190.731445312 c 4
 290.033203125 203.962890625 289.118164062 213.482421875 286.14453125 219.291015625 c 4
 283.69140625 221.815429688 280.551757812 223.209960938 276.724609375 223.4765625 c 4
 272.486328125 223.029296875 269.532226562 221.911132812 267.86328125 220.123046875 c 4
 265.62890625 216.067382812 264.471679688 210.51953125 264.390625 203.478515625 c 6
 264.783203125 190.916015625 l 6
 264.629882812 182.479492188 263.2265625 176.163085938 260.573242188 171.966796875 c 4
 257.509765625 168.852539062 253.46875 167.172851562 248.450195312 166.92578125 c 4
 243.900390625 167.455078125 240.115234375 169.049804688 237.094726562 171.708984375 c 4
 234.171875 175.366210938 232.577148438 179.150390625 232.3125 183.063476562 c 6
 232.3125 324.439453125 l 5
EndSplineSet
EndChar

StartChar: uniF120
Encoding: 82 61728 81
Width: 512
VWidth: 2048
Flags: HW
LayerCount: 2
Fore
SplineSet
255.862304688 294.02734375 m 4
 283.86328125 293.5078125 307.676757812 283.666992188 327.301757812 264.50390625 c 4
 346.721679688 244.182617188 356.5625 220.369140625 356.825195312 193.064453125 c 4
 356.305664062 165.063476562 346.46484375 141.25 327.301757812 121.625 c 4
 306.98046875 102.205078125 283.166992188 92.3642578125 255.862304688 92.1015625 c 4
 227.861328125 92.62109375 204.047851562 102.461914062 184.422851562 121.625 c 4
 165.002929688 141.946289062 155.162109375 165.759765625 154.899414062 193.064453125 c 4
 155.418945312 221.065429688 165.259765625 244.87890625 184.422851562 264.50390625 c 4
 204.744140625 283.923828125 228.557617188 293.764648438 255.862304688 294.02734375 c 4
255.862304688 124.375976562 m 4
 274.807617188 124.890625 290.940429688 131.580078125 304.260742188 144.444335938 c 4
 317.522460938 158.59765625 324.286132812 174.8046875 324.55078125 193.064453125 c 4
 324.030273438 211.872070312 317.266601562 228.004882812 304.260742188 241.462890625 c 4
 290.1171875 254.725585938 273.984375 261.489257812 255.862304688 261.752929688 c 4
 236.91015625 261.23046875 220.704101562 254.466796875 207.2421875 241.462890625 c 4
 194.124023438 227.45703125 187.434570312 211.32421875 187.173828125 193.064453125 c 4
 187.689453125 173.975585938 194.37890625 157.768554688 207.2421875 144.444335938 c 4
 221.2578125 131.327148438 237.46484375 124.637695312 255.862304688 124.375976562 c 4
272 318.302734375 m 5
 239.724609375 318.302734375 l 5
 239.724609375 407.12890625 l 5
 272 407.12890625 l 5
 272 318.302734375 l 5
239.724609375 67.826171875 m 5
 272 67.826171875 l 5
 272 -21 l 5
 239.724609375 -21 l 5
 239.724609375 67.826171875 l 5
469.926757812 209.202148438 m 5
 469.926757812 176.926757812 l 5
 381.100585938 176.926757812 l 5
 381.100585938 209.202148438 l 5
 469.926757812 209.202148438 l 5
130.624023438 176.926757812 m 5
 41.7978515625 176.926757812 l 5
 41.7978515625 209.202148438 l 5
 130.624023438 209.202148438 l 5
 130.624023438 176.926757812 l 5
155.791992188 270.200195312 m 5
 93.10546875 333.118164062 l 5
 115.80859375 355.821289062 l 5
 178.7265625 293.134765625 l 5
 155.791992188 270.200195312 l 5
355.932617188 115.928710938 m 5
 418.619140625 53.0107421875 l 5
 395.916015625 30.3076171875 l 5
 332.998046875 92.994140625 l 5
 355.932617188 115.928710938 l 5
355.932617188 270.200195312 m 5
 332.998046875 293.134765625 l 5
 395.916015625 355.821289062 l 5
 418.619140625 333.118164062 l 5
 355.932617188 270.200195312 l 5
155.791992188 115.928710938 m 5
 178.7265625 92.994140625 l 5
 115.80859375 30.3076171875 l 5
 93.10546875 53.0107421875 l 5
 155.791992188 115.928710938 l 5
EndSplineSet
EndChar

StartChar: uniF1CD
Encoding: 83 61901 82
Width: 512
LayerCount: 2
Fore
SplineSet
233.504 384 m 1
 400.048 384 l 1
 400.048 217.536 l 1
 395.56851 212.49596 l 1
 219.56851 36.49596 l 1
 208.04801 25.50376 l 1
 196.52851 36.48036 l 1
 52.52851 180.48036 l 1
 41.53631 191.99986 l 1
 52.49631 203.51936 l 1
 228.49631 379.51936 l 1
 233.504 384 l 1
247.008 352 m 1
 246.992375 352 l 1
 86.992375 192 l 1
 208.000375 70.992 l 1
 368.000375 230.992 l 1
 368.000375 352 l 1
 247.008375 352 l 1
 247.008 352 l 1
416 336 m 1
 464 336 l 1
 464 160 l 1
 459.51953 155.04004 l 1
 291.05553 -11.50396 l 1
 280.01553 -22.49616 l 1
 268.49603 -11.51956 l 1
 237.50383 19.99994 l 1
 259.99993 42.49604 l 1
 279.99993 22.49604 l 1
 431.99993 173.50404 l 1
 431.99993 304.00004 l 1
 415.99993 304.00004 l 1
 415.99993 336.00004 l 1
 416 336 l 1
320 320 m 0
 328.83203 320 336 312.83203 336 304 c 0
 336 295.16797 328.83203 288 320 288 c 0
 311.16797 288 304 295.16797 304 304 c 0
 304 312.83203 311.16797 320 320 320 c 0
EndSplineSet
Validated: 1
EndChar

StartChar: uniF11B
Encoding: 84 61723 83
Width: 512
LayerCount: 2
Fore
SplineSet
336 384 m 1
 464 384 l 1
 464 0 l 1
 336 0 l 1
 336 384 l 1
368 352 m 1
 368 32 l 1
 432 32 l 1
 432 352 l 1
 368 352 l 1
48 288 m 1
 176 288 l 1
 176 0 l 1
 48 0 l 1
 48 288 l 1
80 256 m 1
 80 32 l 1
 144 32 l 1
 144 256 l 1
 80 256 l 1
192 192 m 1
 320 192 l 1
 320 0 l 1
 192 0 l 1
 192 192 l 1
224 160 m 1
 224 32 l 1
 288 32 l 1
 288 160 l 1
 224 160 l 1
EndSplineSet
Validated: 1
EndChar

StartChar: uniF11C
Encoding: 85 61724 84
Width: 512
LayerCount: 2
Fore
SplineSet
32 336 m 1
 64 336 l 1
 64 48 l 1
 32 48 l 1
 32 336 l 1
96 336 m 1
 192 336 l 1
 192 48 l 1
 96 48 l 1
 96 336 l 1
224 336 m 1
 256 336 l 1
 256 48 l 1
 224 48 l 1
 224 336 l 1
288 336 m 1
 352 336 l 1
 352 48 l 1
 288 48 l 1
 288 336 l 1
384 336 m 1
 416 336 l 1
 416 48 l 1
 384 48 l 1
 384 336 l 1
448 336 m 1
 480 336 l 1
 480 48 l 1
 448 48 l 1
 448 336 l 1
EndSplineSet
Validated: 1
EndChar

StartChar: uniF1B7
Encoding: 86 61879 85
Width: 512
Flags: HW
LayerCount: 2
Fore
SplineSet
454.751953125 173.651367188 m 6
 468.793945312 173.651367188 478.311523438 165.202148438 482.65234375 155.216796875 c 4
 484.239257812 151.567382812 485.026367188 147.604492188 485.026367188 143.375976562 c 6
 485.026367188 0 l 5
 428.4765625 0 l 5
 428.4765625 -9.4248046875 428.4765625 -18.8505859375 428.4765625 -28.275390625 c 5
 226.549804688 -28.275390625 l 5
 226.549804688 -18.8505859375 226.549804688 -9.4248046875 226.549804688 0 c 5
 170 0 l 5
 170 113.100585938 l 5
 143.724609375 113.100585938 l 6
 108.6953125 113.100585938 81.01171875 128.375976562 62.455078125 146.932617188 c 4
 43.8798828125 165.508789062 28.6240234375 193.145507812 28.6240234375 228.202148438 c 4
 28.6240234375 263.231445312 43.8984375 290.915039062 62.455078125 309.471679688 c 4
 81.03125 328.046875 108.66796875 343.302734375 143.724609375 343.302734375 c 4
 150.202148438 343.302734375 156.739257812 342.708007812 163.333007812 341.522460938 c 5
 180.357421875 366.938476562 205.764648438 386.953125 238.862304688 395.700195312 c 4
 249.3359375 398.46875 260.040039062 399.853515625 270.962890625 399.853515625 c 4
 307.48046875 399.853515625 336.6484375 385.217773438 357.122070312 366.87109375 c 4
 378.060546875 348.108398438 395.114257812 320.807617188 399.318359375 286.751953125 c 5
 409.038085938 286.751953125 418.756835938 286.751953125 428.4765625 286.751953125 c 5
 428.4765625 173.651367188 l 5
 454.751953125 173.651367188 l 6
396.201171875 254.477539062 m 5
 258.825195312 254.477539062 l 5
 258.825195312 173.651367188 l 5
 396.201171875 173.651367188 l 5
 396.201171875 254.477539062 l 5
270.962890625 367.578125 m 4
 248.52734375 367.578125 229.919921875 360.047851562 215.885742188 350.264648438 c 4
 199.541015625 338.8671875 187.353515625 322.686523438 179.734375 302.572265625 c 5
 168.622070312 307.7578125 156.518554688 311.02734375 143.724609375 311.02734375 c 4
 118.290039062 311.02734375 98.6240234375 300.221679688 85.1640625 286.76171875 c 4
 71.7724609375 273.370117188 60.8984375 253.446289062 60.8984375 228.202148438 c 4
 60.8984375 202.767578125 71.7041015625 183.1015625 85.1640625 169.641601562 c 4
 98.63671875 156.16796875 118.271484375 145.375976562 143.724609375 145.375976562 c 6
 170.059570312 145.375976562 l 5
 170.837890625 158.21875 178.814453125 167.094726562 188.43359375 171.27734375 c 4
 192.083984375 172.864257812 196.046875 173.651367188 200.274414062 173.651367188 c 6
 226.549804688 173.651367188 l 5
 226.549804688 286.751953125 l 5
 366.040039062 286.751953125 l 5
 361.981445312 310.734375 349.57421875 330.401367188 334.255859375 343.887695312 c 4
 319.168945312 357.168945312 297.768554688 367.578125 270.962890625 367.578125 c 4
396.201171875 4 m 5
 396.201171875 28.275390625 l 5
 258.825195312 28.275390625 l 5
 258.825195312 4 l 5
 396.201171875 4 l 5
452.751953125 32.275390625 m 5
 452.751953125 141.375976562 l 5
 202.274414062 141.375976562 l 5
 202.274414062 32.275390625 l 5
 226.549804688 32.275390625 l 5
 226.549804688 41.7001953125 226.549804688 51.1259765625 226.549804688 60.55078125 c 5
 428.4765625 60.55078125 l 5
 428.4765625 51.1259765625 428.4765625 41.7001953125 428.4765625 32.275390625 c 5
 452.751953125 32.275390625 l 5
226.549804688 100.963867188 m 4
 226.549804688 109.646484375 234.004882812 117.100585938 242.6875 117.100585938 c 4
 251.370117188 117.100585938 258.825195312 109.646484375 258.825195312 100.963867188 c 4
 258.825195312 92.28125 251.370117188 84.826171875 242.6875 84.826171875 c 4
 234.004882812 84.826171875 226.549804688 92.28125 226.549804688 100.963867188 c 4
EndSplineSet
EndChar

StartChar: uniF1DA
Encoding: 87 61914 86
Width: 512
LayerCount: 2
Fore
SplineSet
204.48 363.52 m 1
 204.4633984 363.52 l 1
 227.5033984 340.4809 l 1
 126.9913984 240.0009 l 1
 335.9993984 240.0009 l 2
 397.5188984 240.0009 447.9993984 189.5204 447.9993984 128.0009 c 2
 447.9993984 16.0009 l 1
 415.9993984 16.0009 l 1
 415.9993984 128.0009 l 2
 415.9993984 172.081 380.0794984 208.0009 335.9993984 208.0009 c 2
 126.9753984 208.0009 l 1
 227.5363984 107.5209 l 1
 204.4963984 84.4818 l 1
 76.4963984 212.4818 l 1
 65.5041984 224.0013 l 1
 76.4807984 235.5208 l 1
 204.48 363.52 l 1
EndSplineSet
Validated: 5
EndChar

StartChar: uniF1BE
Encoding: 88 61886 87
Width: 512
Flags: HW
LayerCount: 2
Fore
SplineSet
416 54.9921875 m 5
 416 32 l 5
 393.0078125 32 l 5
 304 32 l 5
 304 0 l 5
 448 0 l 5
 448 144 l 5
 416 144 l 5
 416 54.9921875 l 5
393.0078125 352 m 5
 416 352 l 5
 416 329.0078125 l 5
 416 240 l 5
 448 240 l 5
 448 384 l 5
 304 384 l 5
 304 352 l 5
 393.0078125 352 l 5
118.9921875 32 m 5
 96 32 l 5
 96 54.9921875 l 5
 96 144 l 5
 64 144 l 5
 64 0 l 5
 208 0 l 5
 208 32 l 5
 118.9921875 32 l 5
118.9921875 352 m 5
 96 352 l 5
 96 329.0078 l 5
 96 240 l 5
 64 240 l 5
 64 384 l 5
 208 384 l 5
 208 352 l 5
 118.9921875 352 l 5
EndSplineSet
EndChar

StartChar: uniF10B
Encoding: 89 61707 88
Width: 512
Flags: HW
LayerCount: 2
Fore
SplineSet
246.3359375 165.349609375 m 4
 255.018110088 165.349609375 262.473632812 157.894336508 262.473632812 149.211914062 c 4
 262.473632812 109.964164428 245.33665121 78.6738177727 224.55456125 57.8917278125 c 4
 203.752131556 37.0892981187 172.512406315 19.9736328125 133.234375 19.9736328125 c 4
 124.551811322 19.9736328125 117.09765625 27.4286993483 117.09765625 36.111328125 c 4
 117.09765625 44.7937001784 124.551554614 52.2490234375 133.234375 52.2490234375 c 4
 162.758333273 52.2490234375 186.159798652 65.1351320857 201.735399732 80.710733165 c 4
 217.325385973 96.3024282729 230.198242188 119.666743962 230.198242188 149.211914062 c 4
 230.198242188 157.89408665 237.653515055 165.349609375 246.3359375 165.349609375 c 4
375.57421875 347.359375 m 4
 375.57421875 338.394423852 368.399828156 331.000976562 359.436523438 331.000976562 c 4
 355.836608329 331.000976562 354.19165721 331.557906023 351.82510599 333.02558728 c 4
 321.527529484 348.557582637 289.071227457 359.276367188 246.3359375 359.276367188 c 4
 227.207252847 359.276367188 209.122861293 356.977115643 192.073250165 352.385906525 c 4
 174.972626852 347.782190773 157.879494155 341.321047277 140.754107729 332.978681809 c 4
 138.192705454 331.697449921 135.685995023 331.000976562 133.234375 331.000976562 c 4
 124.551811322 331.000976562 117.09765625 338.456043098 117.09765625 347.138671875 c 4
 117.09765625 353.28671032 120.050699843 358.135522424 125.598209421 361.235505834 c 4
 150.249639369 375.68478917 181.335952939 385.571373044 215.72369977 389.659761381 c 4
 226.324648957 390.9202341 236.528650757 391.551757812 246.3359375 391.551757812 c 4
 294.579122133 391.551757812 335.781772175 379.267123515 367.036972322 361.255949956 c 4
 372.56414586 358.167330454 375.57421875 353.384469197 375.57421875 347.359375 c 4
119.98046875 246.17578125 m 4
 111.138316684 246.17578125 103.842773438 253.509300815 103.842773438 262.313476562 c 4
 103.842773438 267.095747503 105.493532358 270.158125067 107.795567595 273.034238686 c 4
 119.188101857 287.751038264 136.182505504 299.945083131 152.778605443 309.550608083 c 4
 178.092589557 324.201888017 207.945485236 335.000976562 246.3359375 335.000976562 c 4
 294.496778545 335.000976562 331.262342597 317.863238294 359.870291823 296.158701206 c 4
 378.674469108 281.892178287 395.997371323 263.369769138 407.394365066 241.999224916 c 4
 408.683881924 239.421259565 409.372070312 236.8329143 409.372070312 234.258789062 c 4
 409.372070312 225.414214399 402.038458844 217.900390625 393.234375 217.900390625 c 4
 386.395170179 217.900390625 382.325800457 221.502579496 379.403115459 225.886606993 c 4
 373.485630291 235.059101409 368.106287342 243.389808759 360.815434412 251.26261521 c 4
 340.432283888 274.092284465 313.301983093 291.554096341 278.485640252 299.238339941 c 4
 267.949743747 301.563696043 257.235855687 302.725585938 246.3359375 302.725585938 c 4
 206.380132929 302.725585938 174.058262097 287.765762568 150.150088036 268.689822629 c 4
 143.417162874 263.420323691 137.922091063 257.252407834 131.7772175 251.400516875 c 4
 128.685904365 248.30920374 125.61662756 246.17578125 119.98046875 246.17578125 c 4
133.234375 133.07421875 m 4
 124.551811322 133.07421875 117.09765625 140.529285286 117.09765625 149.211914062 c 4
 117.09765625 188.459686952 134.233423359 219.751539168 155.015690687 240.532039747 c 4
 175.817708997 261.335826635 207.058177796 278.450195312 246.3359375 278.450195312 c 4
 285.584571334 278.450195312 316.873858252 261.314365811 337.65612375 240.532100313 c 4
 358.458132993 219.730091069 375.57421875 188.489897835 375.57421875 149.211914062 c 4
 375.57421875 100.833147224 362.232344336 62.9678378207 344.849962246 30.8537741676 c 4
 338.574626243 19.2600501995 330.504347867 6.64861236017 322.41393625 -2.41393625 c 4
 319.275373196 -5.55249930363 315.748149158 -8.3017578125 309.955078125 -8.3017578125 c 4
 301.152608365 -8.3017578125 293.817382812 -1.00555868457 293.817382812 7.8359375 c 4
 293.817382812 11.3931539315 295.020893683 14.7646468799 297.294286712 17.8500429149 c 4
 302.904165001 25.5276459753 308.086465302 32.4166305648 313.106223921 40.6856203782 c 4
 330.956495632 69.9202652824 343.298828125 105.417662461 343.298828125 149.211914062 c 4
 343.298828125 178.736227145 330.41254041 202.138247414 314.83606375 217.713016875 c 4
 299.245976855 233.30310377 275.878878054 246.17578125 246.3359375 246.17578125 c 4
 216.812735271 246.17578125 193.410292247 233.288474434 177.834834688 217.713016875 c 4
 162.244683249 202.122865437 149.372070312 178.757364547 149.372070312 149.211914062 c 4
 149.372070312 140.529741475 141.916797445 133.07421875 133.234375 133.07421875 c 4
117.09765625 92.662109375 m 4
 117.09765625 101.344481428 124.551554614 108.799804688 133.234375 108.799804688 c 4
 152.061349065 108.799804688 164.736290548 119.994502356 170.494756062 133.430921888 c 4
 172.594953075 138.331381584 173.647460938 143.576534436 173.647460938 149.211914062 c 4
 173.647460938 171.303016868 183.164114521 188.715619833 194.887821562 200.439326875 c 4
 206.607281728 212.15878704 224.244854987 221.900390625 246.3359375 221.900390625 c 4
 268.405847003 221.900390625 285.851595662 212.150104963 297.56237375 200.439326875 c 4
 309.28504788 188.716652745 319.0234375 171.299433337 319.0234375 149.211914062 c 4
 319.0234375 114.849007658 309.670189904 85.3635160858 296.920255668 61.4593708365 c 4
 282.474917517 34.3728649816 261.366062851 10.8192933395 235.906766915 -5.56818792409 c 4
 233.439561083 -7.11070301325 230.919224003 -8.3017578125 227.1171875 -8.3017578125 c 4
 218.275791275 -8.3017578125 210.979492188 -0.967477963248 210.979492188 7.8359375 c 4
 210.979492188 14.3914078012 213.926684587 17.9701542035 217.903051018 21.0951148426 c 4
 225.951124445 27.6525846426 233.612537279 32.6220150455 240.952554135 39.9620319015 c 4
 266.477645302 65.2340675397 286.748046875 102.097990463 286.748046875 149.211914062 c 4
 286.748046875 168.038962665 275.553219582 180.713885164 262.116929674 186.472295125 c 4
 257.216469978 188.572492137 251.971317126 189.625 246.3359375 189.625 c 4
 227.507838601 189.625 214.834251579 178.429861565 209.075556438 164.992906237 c 4
 206.975359425 160.092446541 205.922851562 154.847293689 205.922851562 149.211914062 c 4
 205.922851562 127.118660594 196.403131051 109.483628118 184.682490938 97.7647746875 c 4
 172.949552371 86.0318361206 155.346364679 76.5244140625 133.234375 76.5244140625 c 4
 124.551811322 76.5244140625 117.09765625 83.9794805983 117.09765625 92.662109375 c 4
EndSplineSet
EndChar

StartChar: uniF198
Encoding: 90 61848 89
Width: 512
LayerCount: 2
Fore
SplineSet
48 336 m 1
 256 336 l 1
 256 304 l 1
 48 304 l 1
 48 336 l 1
48 272 m 1
 368 272 l 1
 368 240 l 1
 48 240 l 1
 48 272 l 1
400 272 m 1
 480 192 l 1
 400 112 l 1
 400 272 l 1
48 208 m 1
 368 208 l 1
 368 176 l 1
 48 176 l 1
 48 208 l 1
48 144 m 1
 368 144 l 1
 368 112 l 1
 48 112 l 1
 48 144 l 1
48 80 m 1
 256 80 l 1
 256 48 l 1
 48 48 l 1
 48 80 l 1
EndSplineSet
Validated: 1
EndChar

StartChar: uniF17C
Encoding: 91 61820 90
Width: 512
Flags: HW
LayerCount: 2
Fore
SplineSet
270 422.40234375 m 4
 316.03125 422.40234375 354.541992188 409.245117188 385.109375 391.200195312 c 4
 418.700195312 371.373046875 447.171875 342.900390625 466.999023438 309.310546875 c 4
 485.063476562 278.708984375 498.201171875 240.274414062 498.201171875 194.201171875 c 4
 498.201171875 148.169921875 485.043945312 109.659179688 466.999023438 79.091796875 c 4
 447.171875 45.5009765625 418.69921875 17.029296875 385.109375 -2.7978515625 c 4
 354.5078125 -20.8623046875 316.073242188 -34 270 -34 c 4
 223.96875 -34 185.458007812 -20.8427734375 154.890625 -2.7978515625 c 4
 121.299804688 17.029296875 92.828125 45.501953125 73.0009765625 79.091796875 c 4
 54.9365234375 109.693359375 41.798828125 148.127929688 41.798828125 194.201171875 c 4
 41.798828125 240.232421875 54.9560546875 278.743164062 73.0009765625 309.310546875 c 4
 92.828125 342.901367188 121.30078125 371.373046875 154.890625 391.200195312 c 4
 185.4921875 409.264648438 223.926757812 422.40234375 270 422.40234375 c 4
270 -1.7255859375 m 4
 309.661132812 -1.7255859375 342.609375 9.576171875 368.9453125 25.060546875 c 4
 397.860351562 42.060546875 422.140625 66.3408203125 439.140625 95.255859375 c 4
 454.641601562 121.620117188 465.926757812 154.504882812 465.926757812 194.201171875 c 4
 465.926757812 233.862304688 454.625 266.810546875 439.140625 293.146484375 c 4
 422.140625 322.061523438 397.860351562 346.341796875 368.9453125 363.341796875 c 4
 342.581054688 378.842773438 309.696289062 390.127929688 270 390.127929688 c 4
 230.338867188 390.127929688 197.390625 378.826171875 171.0546875 363.341796875 c 4
 142.139648438 346.341796875 117.859375 322.061523438 100.859375 293.146484375 c 4
 85.3583984375 266.782226562 74.0732421875 233.897460938 74.0732421875 194.201171875 c 4
 74.0732421875 154.540039062 85.375 121.591796875 100.859375 95.255859375 c 4
 117.859375 66.3408203125 142.139648438 42.060546875 171.0546875 25.060546875 c 4
 197.418945312 9.5595703125 230.303710938 -1.7255859375 270 -1.7255859375 c 4
270 36.6875 m 4
 234.948242188 36.6875 207.075195312 51.732421875 188.509765625 70.2978515625 c 4
 169.92578125 88.8828125 154.899414062 116.709960938 154.899414062 151.788085938 c 6
 154.899414062 153.788085938 l 5
 385.100585938 153.788085938 l 5
 385.100585938 151.788085938 l 6
 385.100585938 116.736328125 370.055664062 88.86328125 351.490234375 70.2978515625 c 4
 332.905273438 51.7138671875 305.078125 36.6875 270 36.6875 c 4
270 68.962890625 m 4
 289.52734375 68.962890625 305.606445312 75.5859375 317.779296875 84.171875 c 4
 330.544921875 93.17578125 340.872070312 105.955078125 347.06640625 121.512695312 c 5
 192.93359375 121.512695312 l 5
 202.21484375 98.203125 220.293945312 80.9287109375 244.666015625 72.951171875 c 4
 252.786132812 70.2919921875 261.22265625 68.962890625 270 68.962890625 c 4
324.55078125 271.958007812 m 6
 324.55078125 284.72265625 334.991210938 295.1640625 347.756835938 295.1640625 c 4
 358.096679688 295.1640625 365.608398438 288.640625 369.006835938 281.422851562 c 4
 370.307617188 278.658203125 370.962890625 275.706054688 370.962890625 272.62109375 c 6
 370.962890625 214.965820312 l 6
 370.962890625 204.349609375 364.204101562 197.275390625 356.60546875 194.01953125 c 4
 353.788085938 192.811523438 350.82421875 192.201171875 347.756835938 192.201171875 c 4
 334.993164062 192.201171875 324.55078125 202.641601562 324.55078125 215.407226562 c 6
 324.55078125 271.958007812 l 6
169.037109375 271.958007812 m 6
 169.037109375 284.72265625 179.477539062 295.1640625 192.243164062 295.1640625 c 4
 202.583007812 295.1640625 210.094726562 288.640625 213.493164062 281.422851562 c 4
 214.793945312 278.658203125 215.44921875 275.706054688 215.44921875 272.62109375 c 6
 215.44921875 214.965820312 l 6
 215.44921875 204.348632812 208.690429688 197.275390625 201.091796875 194.01953125 c 4
 198.274414062 192.811523438 195.310546875 192.201171875 192.243164062 192.201171875 c 4
 179.479492188 192.201171875 169.037109375 202.641601562 169.037109375 215.407226562 c 6
 169.037109375 271.958007812 l 6
EndSplineSet
EndChar

StartChar: uniF1E1
Encoding: 92 61921 91
Width: 512
LayerCount: 2
Fore
SplineSet
240 384 m 1
 272 384 l 1
 272 351.5039 l 1
 316.3203 348.27245 352 311.1201 352 266 c 2
 352 240 l 1
 320 240 l 1
 320 266 l 2
 320 293.8564 299.04 316.5117 272 319.4883 c 1
 272 207.0083 l 1
 297.5039 202.00049 l 2
 338.1924 194.60889 368 159.34429 368 118.00049 c 0
 368 70.81689 329.168 32.00049 282 32.00049 c 2
 272 32.00049 l 1
 272 0.000489999999957 l 1
 240 0.000489999999957 l 1
 240 32.00049 l 1
 230 32.00049 l 2
 182.8164 32.00049 144 70.80029 144 118.00049 c 2
 144 144.00049 l 1
 176 144.00049 l 1
 176 118.00049 l 2
 176 88.09619 200.0801 64.00049 230 64.00049 c 2
 240 64.00049 l 1
 240 180.00049 l 1
 230.49609 182.00049 l 2
 189.82419 189.39209 159.99999 224.65669 159.99999 266.00049 c 0
 159.99999 311.10399 195.67969 348.27299 239.99999 351.51999 c 1
 239.99999 384.00049 l 1
 240 384 l 1
240 319.52 m 1
 240 319.504375 l 1
 212.96 316.512185 192 293.856875 192 265.984875 c 0
 192 239.904775 210.3359 218.144075 236 213.504375 c 2
 240 212.992656 l 1
 240 319.519656 l 1
 240 319.52 l 1
272 174 m 1
 272 64 l 1
 282 64 l 2
 311.8877 64 336 88.0801 336 118 c 0
 336 144.0801 317.6797 165.8398 292 170.4805 c 2
 272 174 l 1
EndSplineSet
Validated: 5
EndChar

StartChar: uniF17E
Encoding: 93 61822 92
Width: 512
LayerCount: 2
Fore
SplineSet
320 400 m 1
 399.1201 400 464 335.1201 464 256 c 0
 464 176.8799 399.1201 112 320 112 c 0
 296.8799 112 274.8799 118.24023 256 127.5195 c 1
 256 80 l 1
 208 80 l 1
 208 32 l 1
 160 32 l 1
 160 -16 l 1
 48 -16 l 1
 48 102.496 l 1
 52.48047 107.51944 l 1
 178.49647 232.99244 l 1
 177.36073 240.35182 176.00038 247.67994 176.00038 256.00024 c 0
 176.00038 335.12034 240.88028 400.00024 320.00038 400.00024 c 1
 320 400 l 1
320 368 m 1
 320.015625 368 l 1
 258.335925 368 208.015625 317.6797 208.015625 256 c 0
 208.015625 248.17578 209.423825 239.584 211.024415 229.9844 c 2
 212.496095 221.50393 l 1
 206.496095 216.00002 l 1
 80.000095 89.00802 l 1
 80.000095 16.00022 l 1
 128.000095 16.00022 l 1
 128.000095 64.00022 l 1
 176.000095 64.00022 l 1
 176.000095 112.00022 l 1
 224.000095 112.00022 l 1
 224.000095 160.00022 l 1
 261.503995 160.00022 l 1
 265.503995 158.00022 l 2
 280.719795 149.69651 300.639695 144.00022 320.000095 144.00022 c 0
 381.679795 144.00022 432.000095 194.32052 432.000095 256.00022 c 0
 432.000095 317.67992 381.679795 368.00022 320.000095 368.00022 c 1
 320 368 l 1
352 320 m 0
 369.6797 320 384 305.6797 384 288 c 0
 384 270.3203 369.6797 256 352 256 c 0
 334.3203 256 320 270.3203 320 288 c 0
 320 305.6797 334.3203 320 352 320 c 0
EndSplineSet
Validated: 1
EndChar

StartChar: uniF14F
Encoding: 94 61775 93
Width: 512
LayerCount: 2
Fore
SplineSet
256 400 m 0
 370.688 400 464 306.6885 464 192 c 0
 464 77.3115 370.6885 -16 256 -16 c 0
 141.3115 -16 48 77.3115 48 192 c 0
 48 306.6885 141.3115 400 256 400 c 0
256 368 m 0
 158.6084 368 80 289.3916 80 192 c 0
 80 94.6084 158.6084 16 256 16 c 0
 353.3916 16 432 94.6084 432 192 c 0
 432 289.3916 353.3916 368 256 368 c 0
240 304 m 1
 272 304 l 1
 272 139.52 l 1
 336 203.52 l 1
 358.5117 180.4966 l 1
 267.5361 89.5044 l 1
 256.0156 77.9849 l 1
 244.4961 89.5044 l 1
 153.5039 180.481 l 1
 176 203.5201 l 1
 240 139.5201 l 1
 240 304.0001 l 1
 240 304 l 1
EndSplineSet
Validated: 5
EndChar

StartChar: uniF19B
Encoding: 95 61851 94
Width: 512
LayerCount: 2
Fore
SplineSet
240 400 m 2
 260.1602 400 274.4316 385.7598 281.5039 368 c 1
 399.9999 368 l 1
 399.9999 224 l 1
 431.9999 224 l 1
 431.9999 -32 l 1
 207.9999 -32 l 1
 207.9999 0 l 1
 79.9999 0 l 1
 79.9999 368 l 1
 198.4959 368 l 1
 205.56817 385.7598 219.8397 400 239.9998 400 c 2
 240 400 l 2
240 368 m 0
 231.12012 368 224 360.87988 224 352 c 2
 224 336 l 1
 176 336 l 1
 176 304 l 1
 304 304 l 1
 304 336 l 1
 256 336 l 1
 256 352 l 2
 256 360.87988 248.87988 368 240 368 c 0
112 336 m 1
 112 32 l 1
 208 32 l 1
 208 224 l 1
 368 224 l 1
 368 336 l 1
 336 336 l 1
 336 272 l 1
 144 272 l 1
 144 336 l 1
 112 336 l 1
240 192 m 1
 240 0 l 1
 400 0 l 1
 400 192 l 1
 240 192 l 1
EndSplineSet
Validated: 1
EndChar

StartChar: uniF18D
Encoding: 96 61837 95
Width: 512
LayerCount: 2
Fore
SplineSet
32 352 m 5
 480 352 l 5
 480 64 l 5
 272 64 l 5
 272 32 l 5
 352 32 l 5
 352 0 l 5
 160 0 l 5
 160 32 l 5
 240 32 l 5
 240 64 l 5
 32 64 l 5
 32 352 l 5
64 320 m 5
 64 96 l 5
 448 96 l 5
 448 320 l 5
 64 320 l 5
EndSplineSet
Validated: 1
EndChar

StartChar: uniF122
Encoding: 97 61730 96
Width: 512
LayerCount: 2
Fore
SplineSet
64 368 m 1
 448 368 l 1
 448 272 l 1
 432 272 l 1
 432 16 l 1
 80 16 l 1
 80 272 l 1
 64 272 l 1
 64 368 l 1
96 336 m 1
 96 304 l 1
 416 304 l 1
 416 336 l 1
 96 336 l 1
112 272 m 1
 112 48 l 1
 400 48 l 1
 400 272 l 1
 112 272 l 1
205.008 240 m 1
 204.992375 240 l 1
 205.199406 240.00976562 205.53632 240.0175781 205.744328 240.0175781 c 0
 205.952336 240.0175781 206.288273 240.0097656 206.496281 240 c 0
 206.703312 240.00976562 207.040226 240.0175781 207.248234 240.0175781 c 0
 207.456242 240.0175781 207.793156 240.0097656 208.000187 240 c 2
 304.000187 240 l 2
 312.832217 240 320.000187 232.83203 320.000187 224 c 0
 320.000187 215.16797 312.832217 208 304.000187 208 c 2
 208.000187 208 l 2
 207.588078 207.9619141 206.918157 207.9306641 206.504097 207.9306641 c 0
 197.633977 207.9306641 190.434797 215.1298841 190.434797 223.9999641 c 0
 190.434797 232.0800441 196.963117 239.2479641 205.007997 239.9999641 c 1
 205.008 240 l 1
EndSplineSet
Validated: 1
EndChar

StartChar: uniF168
Encoding: 98 61800 97
Width: 512
Flags: HW
LayerCount: 2
Fore
SplineSet
456.55078125 225.4765625 m 4
 456.55078125 176.351073504 439.284345125 135.996077416 416.946010327 105.991923103 c 4
 392.908525225 73.7055231175 357.776476933 47.1697712694 315.174804688 34.2347249498 c 5
 315.174804688 1.2744140625 l 5
 400 1.2744140625 l 5
 400 -31 l 5
 113.248046875 -31 l 5
 113.248046875 1.2744140625 l 5
 198.073242188 1.2744140625 l 5
 198.073242188 34.2317496362 l 5
 155.263382289 47.1402486773 120.393234155 73.6333781572 96.302036548 105.991923103 c 4
 73.9367937703 136.032219374 56.697265625 176.304167686 56.697265625 225.4765625 c 4
 56.697265625 265.930503838 68.2249559965 299.558755454 84.0324461896 326.445106661 c 4
 101.375969147 355.944036834 126.157031221 380.724900245 155.655479276 398.068139748 c 4
 182.571240851 413.892921395 216.13263074 425.40234375 256.624023438 425.40234375 c 4
 297.078917059 425.40234375 330.706042765 413.875732023 357.592567599 398.068139748 c 4
 387.091497771 380.72461679 411.872361182 355.943554717 429.215600685 326.445106661 c 4
 445.04027535 299.529527048 456.55078125 265.96699216 456.55078125 225.4765625 c 4
256.624023438 393.127929688 m 4
 222.735994279 393.127929688 194.596833743 383.402345653 172.032993077 370.204957732 c 4
 135.540221128 348.863493334 107.546798405 314.806825164 94.9737615424 269.999274697 c 4
 91.1473304652 256.362712148 89.1496066948 242.193208606 88.9838974802 227.4765625 c 5
 155.679246084 227.4765625 l 5
 156.221731549 257.340447157 169.131372864 280.862565676 185.184696562 296.915889375 c 4
 201.541423058 313.27261587 225.768242035 326.439453125 256.624023438 326.439453125 c 4
 287.456306483 326.439453125 311.722982295 313.256257393 328.063350313 296.915889375 c 4
 344.132663679 280.846576008 357.025913372 257.362574778 357.568800791 227.4765625 c 5
 424.264149395 227.4765625 l 5
 423.892308656 260.499762697 414.334181908 287.871136274 401.353336887 310.067692621 c 4
 380.012699616 346.559050225 345.952628986 374.554252521 301.146735634 387.126824395 c 4
 286.893471699 391.126302407 272.057973228 393.127929688 256.624023438 393.127929688 c 4
325.3125 225.4765625 m 4
 325.3125 246.376750729 316.299369174 263.040727076 305.244266875 274.095829375 c 4
 294.17680689 285.16328936 277.541649687 294.1640625 256.624023438 294.1640625 c 4
 235.722008394 294.1640625 219.06007877 285.152128145 208.00378 274.095829375 c 4
 196.937533327 263.029582702 187.935546875 246.392334625 187.935546875 225.4765625 c 4
 187.935546875 204.574869639 196.948820456 187.912964079 208.0038886 176.856210454 c 4
 219.071307944 165.78879111 235.706477479 156.788085938 256.624023438 156.788085938 c 4
 277.526038481 156.788085938 294.187968105 165.800020293 305.244266875 176.856319063 c 4
 316.310441119 187.924180481 325.3125 204.559356068 325.3125 225.4765625 c 4
256.624023438 57.8251953125 m 4
 286.380004502 57.8251953125 311.970022967 65.6111027894 332.816283165 76.1663484462 c 4
 367.588360832 93.7727592988 394.746657924 122.637297112 410.520876975 159.223955114 c 4
 415.453453537 170.663644098 419.097000821 182.653463473 421.451513945 195.201171875 c 5
 352.892543316 195.201171875 l 5
 343.391989904 163.339015988 319.463990452 140.310337207 288.636587241 129.810354797 c 4
 278.272813749 126.280396772 267.594159634 124.512695312 256.624023438 124.512695312 c 4
 231.838790192 124.512695312 211.448264047 133.354603241 196.238216285 144.561727439 c 4
 180.099564353 156.453563332 166.696309327 173.935911518 160.355503559 195.201171875 c 5
 91.7718890259 195.201171875 l 5
 99.2677003133 152.980693227 121.257574782 120.617591307 148.463782817 97.4419326102 c 4
 167.143707374 81.5294042834 189.982314943 69.3569229813 216.905942314 62.6250016839 c 4
 229.704518559 59.4260809241 242.940367299 57.8251953125 256.624023438 57.8251953125 c 4
256.624023438 25.5498046875 m 4
 247.741997783 25.5498046875 238.983271913 26.1152041931 230.348632812 27.2455499042 c 5
 230.348632812 1.2744140625 l 5
 282.899414062 1.2744140625 l 5
 282.899414062 27.2455499042 l 5
 274.264774962 26.1152041931 265.506049092 25.5498046875 256.624023438 25.5498046875 c 4
EndSplineSet
EndChar

StartChar: uniF1B9
Encoding: 99 61881 98
Width: 512
LayerCount: 2
Fore
SplineSet
312 400 m 5
 395.7598 400 464 331.7598 464 248 c 4
 464 164.2402 395.7598 96 312 96 c 4
 276 96 243.0723 108.96 217.0078 130 c 5
 75.5198 -11.52 l 5
 52.4807 11.5191 l 5
 194.0007 152.9921 l 5
 172.9607 179.0878 160.0007 211.9999 160.0007 247.9999 c 4
 160.0007 331.7597 228.2409 399.9999 312.0007 399.9999 c 5
 312 400 l 5
312 368 m 4
 245.5361 368 192 314.4639 192 248 c 4
 192 181.5361 245.5361 128 312 128 c 4
 378.4639 128 432 181.5361 432 248 c 4
 432 314.4639 378.4639 368 312 368 c 4
EndSplineSet
Validated: 1
EndChar

StartChar: uniF177
Encoding: 100 61815 99
Width: 512
LayerCount: 2
Fore
SplineSet
48 336 m 1
 464 336 l 1
 464 304 l 1
 48 304 l 1
 48 336 l 1
48 272 m 1
 352 272 l 1
 352 240 l 1
 48 240 l 1
 48 272 l 1
464 272 m 1
 464 112 l 1
 384 192 l 1
 464 272 l 1
48 208 m 1
 352 208 l 1
 352 176 l 1
 48 176 l 1
 48 208 l 1
48 144 m 1
 352 144 l 1
 352 112 l 1
 48 112 l 1
 48 144 l 1
48 80 m 1
 464 80 l 1
 464 48 l 1
 48 48 l 1
 48 80 l 1
EndSplineSet
Validated: 1
EndChar

StartChar: uniF1DD
Encoding: 101 61917 100
Width: 512
LayerCount: 2
Fore
SplineSet
256 400 m 0
 370.688 400 464 306.6885 464 192 c 0
 464 77.3115 370.6885 -16 256 -16 c 0
 141.3115 -16 48 77.3115 48 192 c 0
 48 306.6885 141.3115 400 256 400 c 0
256 368 m 0
 158.6084 368 80 289.3916 80 192 c 0
 80 94.6084 158.6084 16 256 16 c 0
 353.3916 16 432 94.6084 432 192 c 0
 432 289.3916 353.3916 368 256 368 c 0
256 306 m 1
 255.984375 306.015625 l 1
 267.503875 294.496125 l 1
 358.496075 203.519525 l 1
 335.999975 180.480425 l 1
 271.999975 244.480425 l 1
 271.999975 80.000425 l 1
 239.999975 80.000425 l 1
 239.999975 244.480425 l 1
 175.999975 180.480425 l 1
 153.503875 203.503825 l 1
 244.480475 294.480425 l 1
 256 306 l 1
EndSplineSet
Validated: 5
EndChar

StartChar: uniF139
Encoding: 102 61753 101
Width: 512
Flags: HW
LayerCount: 2
Fore
SplineSet
383 300 m 1
 383 189 l 1
 416 189 l 1
 416 126.333333333 416 63.6666666667 416 1 c 1
 96 1 l 1
 96 63.6666666667 96 126.333333333 96 189 c 1
 128.543945312 189 l 1
 128.543945312 300 l 1
 383 300 l 1
146 361 m 1
 362 361 l 1
 362 331 l 1
 146 331 l 1
 146 361 l 1
315.771484375 255.099609375 m 0
 308.73828125 255.099609375 303.03125 248.390625 303.03125 241.359375 c 0
 303.03125 234.327148438 308.73828125 228.619140625 315.771484375 228.619140625 c 0
 322.814453125 228.619140625 328.510742188 234.330078125 328.510742188 241.359375 c 0
 328.510742188 248.388671875 322.814453125 255.099609375 315.771484375 255.099609375 c 0
329 189 m 1
 176 189 l 1
 222.21484375 246.490234375 222.21484375 246.490234375 222.21484375 246.490234375 c 1
 229.137695312 239.884765625 242.245117188 221.772460938 249 215 c 1
 246.62890625 216.0859375 249 215 273 237 c 1
 291.458984375 219.384765625 273 237 329 189 c 1
309 97 m 1
 320 128 l 1
 309 129 l 1
 203 129 l 1
 192 128 l 1
 203 97 l 1
 309 97 l 1
351 189 m 1
 351 269 l 1
 287.181315104 269 223.362630208 269 159.543945312 269 c 1
 159.543945312 189 l 1
 351 189 l 1
384 33 m 1
 384 74.3333333333 384 115.666666667 384 157 c 1
 128 157 l 1
 128 115.666666667 128 74.3333333333 128 33 c 1
 384 33 l 1
EndSplineSet
EndChar

StartChar: uniF117
Encoding: 103 61719 102
Width: 512
LayerCount: 2
Fore
SplineSet
80 400 m 1
 400 400 l 1
 400 -16 l 1
 80 -16 l 1
 80 400 l 1
112 368 m 1
 112 16 l 1
 368 16 l 1
 368 368 l 1
 112 368 l 1
240 292.48 m 1
 260 287.51906 l 1
 324 271.51906 l 1
 316 240.47996 l 1
 272 251.51906 l 1
 272 143.99906 l 2
 272 117.67876 250.3203 95.99906 224 95.99906 c 0
 197.6797 95.99906 176 117.67876 176 143.99906 c 0
 176 170.31936 197.6797 191.99906 224 191.99906 c 0
 229.64844 191.99906 234.9443 190.83109 240 188.99125 c 1
 240 292.47925 l 1
 240 292.48 l 1
224 160 m 0
 214.97559 160 208 153.02441 208 144 c 0
 208 134.97559 214.97559 128 224 128 c 0
 233.02441 128 240 134.97559 240 144 c 0
 240 153.02441 233.02441 160 224 160 c 0
EndSplineSet
Validated: 1
EndChar

StartChar: uniF134
Encoding: 104 61748 103
Width: 512
Flags: HW
LayerCount: 2
Fore
SplineSet
115.434570312 199.552734375 m 4
 129.475585938 199.552734375 138.99609375 191.102539062 143.3359375 181.118164062 c 4
 144.922851562 177.46875 145.709960938 173.505859375 145.709960938 169.27734375 c 4
 145.709960938 155.236328125 137.258789062 145.715820312 127.275390625 141.375976562 c 4
 123.625 139.7890625 119.662109375 139.001953125 115.434570312 139.001953125 c 4
 101.392578125 139.001953125 91.873046875 147.453125 87.533203125 157.436523438 c 4
 85.9462890625 161.086914062 85.1591796875 165.049804688 85.1591796875 169.27734375 c 4
 85.1591796875 183.319335938 93.609375 192.838867188 103.59375 197.178710938 c 4
 107.244140625 198.765625 111.20703125 199.552734375 115.434570312 199.552734375 c 4
398.186523438 199.552734375 m 4
 412.227539062 199.552734375 421.748046875 191.102539062 426.087890625 181.118164062 c 4
 427.674804688 177.46875 428.461914062 173.505859375 428.461914062 169.27734375 c 4
 428.461914062 155.236328125 420.010742188 145.715820312 410.02734375 141.375976562 c 4
 406.376953125 139.7890625 402.4140625 139.001953125 398.186523438 139.001953125 c 4
 384.14453125 139.001953125 374.625 147.453125 370.28515625 157.436523438 c 4
 368.698242188 161.086914062 367.911132812 165.049804688 367.911132812 169.27734375 c 4
 367.911132812 183.319335938 376.361328125 192.838867188 386.345703125 197.178710938 c 4
 389.99609375 198.765625 393.958984375 199.552734375 398.186523438 199.552734375 c 4
462.072265625 284.377929688 m 5
 485.01171875 284.377929688 l 5
 485.01171875 252.103515625 l 5
 481.893554688 252.103515625 478.775390625 252.103515625 475.658203125 252.103515625 c 5
 462.576171875 239.219726562 l 5
 470.022460938 217.58984375 477.94140625 193.525390625 485.01171875 171.8046875 c 5
 485.01171875 27.9013671875 l 6
 485.01171875 13.859375 476.561523438 4.3408203125 466.578125 0 c 4
 462.927734375 -1.5869140625 458.96484375 -2.3740234375 454.737304688 -2.3740234375 c 6
 426.461914062 -2.3740234375 l 6
 412.419921875 -2.3740234375 402.900390625 6.076171875 398.560546875 16.060546875 c 4
 397.2265625 19.1298828125 396.45703125 22.4189453125 396.24609375 25.9013671875 c 5
 117.374023438 25.9013671875 l 5
 116.595703125 13.0595703125 108.619140625 4.181640625 99 0 c 4
 95.3505859375 -1.5869140625 91.3876953125 -2.3740234375 87.1591796875 -2.3740234375 c 6
 58.8837890625 -2.3740234375 l 6
 44.841796875 -2.3740234375 35.3232421875 6.076171875 30.9833984375 16.060546875 c 4
 29.396484375 19.7109375 28.609375 23.673828125 28.609375 27.9013671875 c 6
 28.609375 171.8046875 l 5
 35.0771484375 191.67578125 42.85546875 213.748046875 49.2470703125 233.7265625 c 4
 50.05078125 236.23828125 50.638671875 238.041992188 51.0439453125 239.219726562 c 5
 37.962890625 252.103515625 l 5
 34.8447265625 252.103515625 31.7275390625 252.103515625 28.609375 252.103515625 c 5
 28.609375 284.377929688 l 5
 51.548828125 284.377929688 l 5
 55.1767578125 280.686523438 58.8056640625 276.994140625 62.43359375 273.302734375 c 5
 77.7470703125 319.448242188 l 6
 85.0390625 341.779296875 102.108398438 358.12890625 124.184570312 365.565429688 c 4
 131.388671875 367.9921875 138.935546875 369.204101562 146.802734375 369.204101562 c 6
 366.818359375 369.204101562 l 6
 384.264648438 369.204101562 398.452148438 363.1875 409.28515625 355.469726562 c 4
 421.178710938 346.99609375 430.668945312 334.450195312 435.87109375 319.45703125 c 6
 451.1875 273.302734375 l 5
 454.815429688 276.994140625 458.443359375 280.686523438 462.072265625 284.377929688 c 5
146.802734375 336.928710938 m 6
 127.583984375 336.928710938 113.57421875 324.337890625 108.493164062 309.349609375 c 6
 90.6044921875 256.103515625 l 5
 423.016601562 256.103515625 l 5
 405.125976562 309.354492188 l 6
 400.04296875 324.350585938 386.041992188 336.928710938 366.818359375 336.928710938 c 6
 146.802734375 336.928710938 l 6
339.635742188 58.1767578125 m 5
 339.635742188 66.5263671875 l 5
 317.428710938 110.7265625 l 5
 196.192382812 110.7265625 l 5
 173.985351562 66.5263671875 l 5
 173.985351562 58.1767578125 l 5
 339.635742188 58.1767578125 l 5
371.911132812 58.1767578125 m 5
 452.737304688 58.1767578125 l 5
 452.737304688 166.750976562 l 5
 447.37109375 183.2890625 440.926757812 203.012695312 435.0703125 219.412109375 c 4
 434.384765625 221.331054688 433.884765625 222.765625 433.552734375 223.828125 c 5
 79.94140625 223.828125 l 5
 73.453125 205.38671875 66.8994140625 185.290039062 60.8837890625 166.750976562 c 5
 60.8837890625 58.1767578125 l 5
 141.709960938 58.1767578125 l 5
 141.709960938 63.484375 141.709960938 68.7919921875 141.709960938 74.099609375 c 5
 176.047851562 143.001953125 l 5
 337.573242188 143.001953125 l 5
 371.911132812 74.099609375 l 5
 371.911132812 68.7919921875 371.911132812 63.484375 371.911132812 58.1767578125 c 5
EndSplineSet
EndChar

StartChar: uniF102
Encoding: 105 61698 104
Width: 512
LayerCount: 2
Fore
SplineSet
256 400 m 0
 370.688 400 464 306.6885 464 192 c 0
 464 77.3115 370.6885 -16 256 -16 c 0
 141.3115 -16 48 77.3115 48 192 c 0
 48 306.6885 141.3115 400 256 400 c 0
238 366.992 m 1
 238 367.007625 l 1
 154.3838 358.559385 88.544 291.887525 80.992 207.999625 c 1
 95.9998 207.999625 l 1
 95.9998 175.999625 l 1
 80.992 175.999625 l 1
 88.60821 91.455725 155.4559 24.607625 240 16.991625 c 1
 240 31.999425 l 1
 272 31.999425 l 1
 272 16.991625 l 1
 356.5439 24.607835 423.392 91.455525 431.008 175.999625 c 1
 416.0002 175.999625 l 1
 416.0002 207.999625 l 1
 431.008 207.999625 l 1
 423.39179 292.543525 356.5441 359.391625 272 367.007625 c 1
 272 351.999825 l 1
 240 351.999825 l 1
 240 366.992025 l 1
 239.34375 366.9441734 238.63965 367.0721031 238 366.992025 c 2
 238 366.992 l 1
353.52 289.504 m 1
 294.4809 153.504 l 1
 158.4809 94.4962 l 1
 217.52 230.4962 l 1
 353.52 289.504 l 1
256 216 m 0
 243.2002 216 232 204.7998 232 192 c 0
 232 179.2002 243.2002 168 256 168 c 0
 268.7998 168 280 179.2002 280 192 c 0
 280 204.7998 268.7998 216 256 216 c 0
EndSplineSet
Validated: 5
EndChar

StartChar: uniF15E
Encoding: 106 61790 105
Width: 512
LayerCount: 2
Fore
SplineSet
80 384 m 1
 432 384 l 1
 432 346.4961 l 1
 428.48047 342.01563 l 1
 304.00047 186.49563 l 1
 304.00047 71.99963 l 1
 297.50438 67.00744 l 1
 233.50438 19.00744 l 1
 208.00048 -0.000360000000011 l 1
 208.00048 186.49564 l 1
 83.52048 342.01564 l 1
 80.00095 346.49611 l 1
 80.00095 384.00001 l 1
 80 384 l 1
116.48 352 m 1
 231.519 208 l 1
 280.4799 208 l 1
 395.5189 352 l 1
 116.4799 352 l 1
 116.48 352 l 1
240 176 m 1
 240 64 l 1
 272 88 l 1
 272 176 l 1
 240 176 l 1
EndSplineSet
Validated: 5
EndChar

StartChar: uniF104
Encoding: 108 61700 106
Width: 512
LayerCount: 2
Fore
SplineSet
256 400 m 1
 282.3203 400 304 378.3203 304 352 c 2
 304 234.496 l 1
 438.496 174.4804 l 1
 447.99991 170.4804 l 1
 447.99991 93.9999 l 1
 429.99991 95.9999 l 1
 303.99991 109.9999 l 1
 303.99991 80.5116 l 1
 344.99211 52.9921 l 1
 351.99992 48.48038 l 1
 351.99992 -19.51962 l 1
 333.00772 -15.51962 l 1
 255.99992 -0.000120000000031 l 1
 179.00772 -15.50402 l 1
 159.99992 -19.50402 l 1
 159.99992 48.54388 l 1
 166.99211 53.02435 l 1
 207.99991 80.49605 l 1
 207.99991 109.99995 l 1
 81.99991 95.99995 l 1
 63.99991 94.01557 l 1
 63.99991 170.49607 l 1
 73.50382 174.49607 l 1
 207.99982 234.49607 l 1
 207.99982 352.00007 l 2
 207.99982 378.32037 229.67952 400.00007 255.99982 400.00007 c 1
 256 400 l 1
256 368 m 1
 246.95996 368 240 361.04004 240 352 c 2
 240 213.52 l 1
 230.49609 209.52 l 1
 96.00009 149.52 l 1
 96.00009 130.0005 l 1
 222.00009 144.0005 l 1
 240.00009 146.0005 l 1
 240.00009 63.0249 l 1
 233.0079 58.5122 l 1
 192.0001 31.0405 l 1
 192.0001 19.52 l 1
 252.9923 31.52 l 1
 256.00011 32.480938 l 1
 258.9923 31.48875 l 1
 320.0001 19.48875 l 1
 320.0001 31.00825 l 1
 279.0079 58.49655 l 1
 272.00009 63.00827 l 1
 272.00009 146.00047 l 1
 290.00009 144.00047 l 1
 416.00009 129.98487 l 1
 416.00009 149.50437 l 1
 281.50409 209.50437 l 1
 272.00018 213.50437 l 1
 272.00018 352.00037 l 2
 272.00018 361.04041 265.04022 368.00037 256.00018 368.00037 c 1
 256 368 l 1
EndSplineSet
Validated: 1
EndChar

StartChar: uniF180
Encoding: 109 61824 107
Width: 512
VWidth: 2048
Flags: HW
LayerCount: 2
Fore
SplineSet
242 -16 m 5
 242 153.66796875 l 5
 169.11328125 80.99609375 l 5
 146.408203125 103.700195312 l 5
 235.211914062 192.724609375 l 5
 146.408203125 281.749023438 l 5
 169.11328125 304.454101562 l 5
 242 231.782226562 l 5
 242 401.450195312 l 5
 365.669921875 277.548828125 l 5
 280.846679688 192.724609375 l 5
 365.669921875 107.901367188 l 5
 242 -16 l 5
320.033203125 107.899414062 m 5
 274.275390625 153.658203125 l 5
 274.275390625 62.140625 l 5
 320.033203125 107.899414062 l 5
320.033203125 277.549804688 m 5
 274.275390625 323.30859375 l 5
 274.275390625 231.791992188 l 5
 320.033203125 277.549804688 l 5
EndSplineSet
EndChar

StartChar: uniF1A3
Encoding: 110 61859 108
Width: 512
LayerCount: 2
Fore
SplineSet
256 400 m 4
 370.688 400 464 306.6885 464 192 c 4
 464 77.3115 370.6885 -16 256 -16 c 4
 141.3115 -16 48 77.3115 48 192 c 4
 48 306.6885 141.3115 400 256 400 c 4
256 368 m 4
 158.6084 368 80 289.3916 80 192 c 4
 80 94.6084 158.6084 16 256 16 c 4
 353.3916 16 432 94.6084 432 192 c 4
 432 289.3916 353.3916 368 256 368 c 4
240 288 m 5
 272 288 l 5
 272 208 l 5
 352 208 l 5
 352 176 l 5
 272 176 l 5
 272 96 l 5
 240 96 l 5
 240 176 l 5
 160 176 l 5
 160 208 l 5
 240 208 l 5
 240 288 l 5
EndSplineSet
Validated: 1
EndChar

StartChar: uniF103
Encoding: 111 61699 109
Width: 512
LayerCount: 2
Fore
SplineSet
480 373.504 m 1
 480 10.512 l 1
 459.5195 16.49638 l 1
 250.9925 80.01588 l 1
 250.512031 78.51197 l 2
 240.064731 42.99247 202.464131 24.19267 168.496431 34.51197 c 0
 168.368501 34.5598216 168.176119 34.4641184 168.015962 34.51197 c 0
 132.767962 45.13597 113.744462 82.70437 124.015962 116.49637 c 1
 124.015962 117.008089 l 1
 124.496431 118.496369 l 1
 93.008131 128.000279 l 1
 32.000331 128.000279 l 1
 32.000331 256.000279 l 1
 92.992531 256.000279 l 1
 459.519531 367.504279 l 1
 480 373.504 l 1
448 330.496 m 1
 448 330.511625 l 1
 100.496 224.480625 l 1
 98.496 224.000156 l 1
 63.9999 224.000156 l 1
 63.9999 160.000156 l 1
 98.5116 160.000156 l 1
 100.48035 159.519687 l 1
 448.00035 53.503687 l 1
 448.00035 330.495687 l 1
 448 330.496 l 1
154.992 109.008 m 1
 154.511531 107.48847 l 1
 154.511531 107.008001 l 1
 149.167781 89.872301 158.799621 70.496301 177.519331 65.008001 c 0
 194.639431 59.648621 214.511531 68.799991 220.015431 87.519701 c 1
 220.015431 88.00017 l 1
 220.4959 89.48845 l 1
 154.992 109.008 l 1
EndSplineSet
Validated: 33
EndChar

StartChar: uniF19D
Encoding: 112 61853 110
Width: 512
VWidth: 2048
Flags: HW
LayerCount: 2
Fore
SplineSet
456 425.40234375 m 5
 456 -31 l 5
 100.559570312 -31 l 6
 88.1865234375 -30.5009765625 77.701171875 -26.1826171875 69.103515625 -18.0439453125 c 4
 65.0419921875 -13.5625 61.880859375 -8.861328125 59.62109375 -3.94140625 c 4
 57.4306640625 1.8564453125 56.2724609375 7.6416015625 56.146484375 13.412109375 c 6
 56.146484375 366.852539062 l 6
 56.705078125 382.107421875 62.6806640625 395.649414062 74.0732421875 407.4765625 c 4
 86.5693359375 419.140625 100.110351562 425.116210938 114.697265625 425.40234375 c 6
 456 425.40234375 l 5
88.421875 13.412109375 m 4
 89.5830078125 5.9140625 93.62890625 1.8681640625 100.559570312 1.2744140625 c 6
 423.724609375 1.2744140625 l 5
 423.724609375 25.5498046875 l 5
 100.559570312 25.5498046875 l 5
 93.0615234375 24.388671875 89.015625 20.3427734375 88.421875 13.412109375 c 4
423.724609375 57.8251953125 m 5
 423.724609375 393.127929688 l 5
 114.697265625 393.127929688 l 5
 104.407226562 392.162109375 96.4248046875 386.493164062 90.751953125 376.12109375 c 4
 89.345703125 372.686523438 88.5693359375 369.596679688 88.421875 366.852539062 c 6
 88.421875 56.0986328125 l 5
 92.8759765625 57.162109375 96.921875 57.73828125 100.559570312 57.8251953125 c 6
 423.724609375 57.8251953125 l 5
322.342773438 82.1005859375 m 4
 292.08203125 82.591796875 260.232421875 94.0087890625 226.791992188 116.349609375 c 4
 194.73828125 138.391601562 168.010742188 165.229492188 146.611328125 196.86328125 c 4
 124.251953125 230.872070312 112.947265625 262.352539062 112.697265625 291.3046875 c 4
 112.935546875 306.389648438 115.822265625 318.9453125 121.357421875 328.969726562 c 4
 124.627929688 334.25390625 128.403320312 339.170898438 132.68359375 343.721679688 c 132
 136.963867188 348.272460938 141.625976562 353.077148438 146.670898438 358.13671875 c 4
 150.669921875 361.583007812 154.6640625 364.21875 158.655273438 366.044921875 c 4
 163.484375 367.793945312 168.197265625 368.729492188 172.793945312 368.852539062 c 4
 178.052734375 368.59765625 182.765625 367.661132812 186.932617188 366.044921875 c 4
 191.580078125 363.767578125 195.6953125 360.913085938 199.279296875 357.481445312 c 132
 202.86328125 354.049804688 206.899414062 350.37109375 211.38671875 346.444335938 c 4
 221.776367188 337.353515625 229.416015625 328.49609375 234.305664062 319.87109375 c 4
 237.03125 314.170898438 238.473632812 308.477539062 238.633789062 302.791015625 c 4
 238.397460938 297.739257812 237.610351562 293.43359375 236.271484375 289.874023438 c 4
 233.100585938 283.131835938 229.23828125 277.602539062 224.682617188 273.28515625 c 132
 220.127929688 268.967773438 216.4375 265.400390625 213.611328125 262.581054688 c 5
 212.223632812 258.940429688 l 5
 217.744140625 250.76953125 239.598632812 228.166015625 277.78515625 191.12890625 c 4
 281.954101562 187.092773438 284.833007812 184.286132812 286.423828125 182.709960938 c 4
 287.801757812 182.084960938 288.877929688 181.69140625 289.650390625 181.529296875 c 4
 291.193359375 182.047851562 292.391601562 182.560546875 293.244140625 183.06640625 c 4
 295.819335938 185.396484375 299.391601562 189.083007812 303.961914062 194.125976562 c 4
 312.969726562 203.125976562 322.778320312 207.762695312 333.388671875 208.037109375 c 4
 339.735351562 207.709960938 345.427734375 206.266601562 350.467773438 203.708007812 c 4
 359.553710938 198.388671875 368.615234375 190.541015625 377.653320312 180.165039062 c 4
 381.783203125 175.427734375 385.466796875 171.416992188 388.702148438 168.130859375 c 4
 395.6015625 160.385742188 399.18359375 151.741210938 399.44921875 142.197265625 c 4
 399.194335938 136.9375 398.258789062 132.224609375 396.642578125 128.05859375 c 4
 394.379882812 123.40625 391.739257812 119.407226562 388.721679688 116.061523438 c 4
 376.618164062 103.764648438 366.981445312 95.4091796875 359.810546875 90.9951171875 c 4
 349.225585938 85.1923828125 336.736328125 82.2275390625 322.342773438 82.1005859375 c 4
172.793945312 336.577148438 m 4
 171.315429688 336.069335938 170.240234375 335.6015625 169.569335938 335.174804688 c 4
 165.353515625 330.986328125 161.7109375 327.3671875 158.641601562 324.318359375 c 132
 155.572265625 321.268554688 153.07421875 318.396484375 151.1484375 315.702148438 c 4
 147.16015625 308.98828125 145.1015625 300.9296875 144.97265625 291.525390625 c 4
 145.497070312 267.021484375 155.463867188 240.748046875 174.875 212.704101562 c 4
 194.440429688 185.32421875 217.684570312 162.3359375 244.608398438 143.739257812 c 4
 273.462890625 124.4296875 299.374023438 114.641601562 322.342773438 114.375976562 c 4
 328.172851562 114.517578125 332.887695312 115.043945312 336.48828125 115.95703125 c 4
 340.411132812 117.301757812 343.747070312 118.864257812 346.494140625 120.64453125 c 4
 349.852539062 123.202148438 353.006835938 125.994140625 355.95703125 129.020507812 c 132
 358.907226562 132.046875 362.091796875 135.27734375 365.510742188 138.711914062 c 5
 367.060546875 142.153320312 l 5
 363.012695312 148.80859375 355.100585938 157.455078125 343.326171875 168.09375 c 4
 337.872070312 172.797851562 334.544921875 175.349609375 333.345703125 175.749023438 c 4
 331.17578125 174.958007812 329.256835938 173.78515625 327.58984375 172.231445312 c 4
 319.629882812 163.509765625 312.740234375 157.30859375 306.920898438 153.629882812 c 4
 301.626953125 150.87109375 295.870117188 149.412109375 289.650390625 149.25390625 c 4
 284.400390625 149.499023438 279.696289062 150.393554688 275.538085938 151.938476562 c 4
 270.861328125 154.1640625 266.84765625 156.8515625 263.495117188 160.000976562 c 6
 190.598632812 232.8984375 l 6
 183.55859375 240.694335938 179.90234375 249.412109375 179.629882812 259.052734375 c 4
 179.97265625 265.939453125 181.474609375 271.670898438 184.13671875 276.247070312 c 4
 188.536132812 282.756835938 194.767578125 289.671875 202.829101562 296.9921875 c 4
 204.837890625 299.280273438 206.013671875 301.186523438 206.357421875 302.7109375 c 4
 203.877929688 306.916015625 199.896484375 311.810546875 194.415039062 317.39453125 c 4
 184.389648438 327.607421875 177.182617188 334.001953125 172.793945312 336.577148438 c 4
EndSplineSet
EndChar

StartChar: uniF14C
Encoding: 113 61772 111
Width: 512
VWidth: 2048
Flags: HW
LayerCount: 2
Fore
SplineSet
172.55078125 323.201171875 m 5
 112 323.201171875 l 5
 112 383.751953125 l 5
 172.55078125 383.751953125 l 5
 172.55078125 323.201171875 l 5
285.651367188 323.201171875 m 5
 225.100585938 323.201171875 l 5
 225.100585938 383.751953125 l 5
 285.651367188 383.751953125 l 5
 285.651367188 323.201171875 l 5
398.751953125 323.201171875 m 5
 338.201171875 323.201171875 l 5
 338.201171875 383.751953125 l 5
 398.751953125 383.751953125 l 5
 398.751953125 323.201171875 l 5
172.55078125 210.100585938 m 5
 112 210.100585938 l 5
 112 270.650390625 l 5
 172.55078125 270.650390625 l 5
 172.55078125 210.100585938 l 5
285.651367188 210.100585938 m 5
 225.100585938 210.100585938 l 5
 225.100585938 270.650390625 l 5
 285.651367188 270.650390625 l 5
 285.651367188 210.100585938 l 5
398.751953125 210.100585938 m 5
 338.201171875 210.100585938 l 5
 338.201171875 270.650390625 l 5
 398.751953125 270.650390625 l 5
 398.751953125 210.100585938 l 5
172.55078125 97 m 5
 112 97 l 5
 112 157.549804688 l 5
 172.55078125 157.549804688 l 5
 172.55078125 97 l 5
285.651367188 97 m 5
 225.100585938 97 l 5
 225.100585938 157.549804688 l 5
 285.651367188 157.549804688 l 5
 285.651367188 97 l 5
285.651367188 -16.1015625 m 5
 225.100585938 -16.1015625 l 5
 225.100585938 44.44921875 l 5
 285.651367188 44.44921875 l 5
 285.651367188 -16.1015625 l 5
398.751953125 97 m 5
 338.201171875 97 l 5
 338.201171875 157.549804688 l 5
 398.751953125 157.549804688 l 5
 398.751953125 97 l 5
EndSplineSet
EndChar

StartChar: uniF195
Encoding: 114 61845 112
Width: 512
Flags: HW
LayerCount: 2
Fore
SplineSet
112 208 m 1
 112 16 l 1
 368 16 l 1
 368 208 l 1
 112 208 l 1
320 240 m 1
 320 288 l 2
 320 319 306.333333333 342 279 358 c 0
 267 364.666666667 254 368 240 368 c 0
 209.333333333 368 186 354.333333333 170 327 c 0
 167.333333333 322.333333333 165.333333333 318 164 314 c 1
 134 326 l 1
 148 361.333333333 172.333333333 384.333333333 207 395 c 0
 218.333333333 398.333333333 229.333333333 400 240 400 c 0
 279.333333333 400 310.333333333 383.333333333 333 350 c 0
 345.666666667 330.666666667 352 310 352 288 c 2
 352 240 l 1
 400 240 l 1
 400 -16 l 1
 80 -16 l 1
 80 240 l 1
 320 240 l 1
EndSplineSet
EndChar

StartChar: uniF1C8
Encoding: 115 61896 113
Width: 512
Flags: HW
LayerCount: 2
Fore
SplineSet
324 107 m 5
 407 107 l 1
 407 81 l 1
 324 81 l 5
 324 107 l 5
249 32 m 1
 44.49609375 32 l 2
 23 32 6 49.3603515625 6 70.48046875 c 0
 6 80.7197265625 10.255859375 90.751953125 17.51953125 98 c 2
 54 134.9921875 l 1
 54 352.000976562 l 1
 54 352 l 1
 406 352 l 1
 406 241 l 1
 374 241 l 1
 374 320 l 1
 86 320 l 1
 86 144 l 1
 249 144 l 1
 249 112 l 1
 76.9921875 112 l 1
 76.9921875 112 l 1
 77.0078125 112 l 1
 40 75.50390625 l 2
 38.767578125 74.255859375 38 72.255859375 38 70.49609375 c 0
 38 66.65625 41 64 44.49609375 64 c 2
 249 64 l 1
 249 32 l 1
268 243 m 2
 460 243 l 2
 486.3203125 243 508 221.3203125 508 195 c 2
 508 69 l 2
 508 42.6796875 486.3203125 21 460 21 c 2
 268 21 l 2
 241.6796875 21 220 42.6796875 220 69 c 2
 220 195 l 2
 220 221.3203125 241.6796875 243 268 243 c 2
268 211 m 2
 259.120117188 211 252 203.879882812 252 195 c 2
 252 69 l 2
 252 60.1201171875 259.120117188 53 268 53 c 2
 460 53 l 2
 468.879882812 53 476 60.1201171875 476 69 c 2
 476 195 l 2
 476 203.879882812 468.879882812 211 460 211 c 2
 268 211 l 2
406 241 m 1025
249 32 m 1025
249 144 m 1025
249 64 m 1025
EndSplineSet
EndChar

StartChar: uniF119
Encoding: 116 61721 114
Width: 512
LayerCount: 2
Fore
SplineSet
80 352 m 2
 432 352 l 2
 458.3203 352 480 330.3203 480 304 c 2
 480 80 l 2
 480 53.6797 458.3203 32 432 32 c 2
 80 32 l 2
 53.6797 32 32 53.6797 32 80 c 2
 32 304 l 2
 32 330.3203 53.6797 352 80 352 c 2
80 320 m 2
 70.95996 320 64 313.04004 64 304 c 2
 64 80 l 2
 64 70.95996 70.95996 64 80 64 c 2
 432 64 l 2
 441.04004 64 448 70.95996 448 80 c 2
 448 240 l 1
 80 240 l 1
 80 272 l 1
 448 272 l 1
 448 304 l 2
 448 313.04004 441.04004 320 432 320 c 2
 80 320 l 2
EndSplineSet
Validated: 1
EndChar

StartChar: uniF109
Encoding: 117 61705 115
Width: 512
LayerCount: 2
Fore
SplineSet
131.008 368 m 1
 130.9601484 368 l 1
 157.0246484 368 l 1
 160.4806984 357.5039 l 1
 191.5197984 272 l 1
 192.0002674 272 l 1
 192.0002674 271.007812 l 1
 206.9924674 229.503912 l 1
 208.0002774 227.007822 l 1
 208.0002774 208.000022 l 1
 176.0002774 208.000022 l 1
 176.0002774 221.503922 l 1
 169.5041874 240.000022 l 1
 118.4963874 240.000022 l 1
 112.0002974 221.503922 l 1
 112.0002974 208.000022 l 1
 80.0002974 208.000022 l 1
 80.0002974 227.007822 l 1
 80.9924854 229.503912 l 1
 96.0002854 270.992212 l 1
 96.0002854 272.000022 l 1
 96.5120044 272.000022 l 1
 127.4886044 357.503922 l 1
 131.008 368 l 1
352 368 m 1
 384 368 l 1
 384 69.008 l 1
 425.5039 110.4963 l 1
 448 88.0002 l 1
 379.5195 19.008 l 1
 368 8.0002 l 1
 356.4805 18.9924 l 1
 288 88.0002 l 1
 310.4961 110.4963 l 1
 352 68.9924 l 1
 352 368.0004 l 1
 352 368 l 1
144 309.504 m 1
 130.4961 272.0001 l 1
 157.5039 272.0001 l 1
 144 309.504 l 1
80 176 m 1
 207.984 176 l 1
 207.984 137.5039 l 1
 203.50353 132.48046 l 1
 118.99183 47.99996 l 1
 207.99963 47.99996 l 1
 207.99963 15.99996 l 1
 79.99963 15.99996 l 1
 79.99963 54.49606 l 1
 84.4801 59.5195 l 1
 169.0074 144 l 1
 79.9996 144 l 1
 79.9996 176 l 1
 80 176 l 1
EndSplineSet
Validated: 5
EndChar

StartChar: uniF1CE
Encoding: 118 61902 116
Width: 512
Flags: HW
LayerCount: 2
Fore
SplineSet
80 368 m 1
 432 368 l 1
 432 272 l 1
 80 272 l 1
 80 368 l 1
176 336 m 1
 176 304 l 1
 400 304 l 1
 400 336 l 1
 176 336 l 1
80 240 m 1
 432 240 l 1
 432 144 l 1
 80 144 l 1
 80 240 l 1
336 208 m 5
 336 176 l 5
 400 176 l 5
 400 208 l 5
 336 208 l 5
80 112 m 1
 432 112 l 1
 432 16 l 1
 80 16 l 1
 80 112 l 1
256 80 m 1
 256 48 l 1
 400 48 l 1
 400 80 l 1
 256 80 l 1
EndSplineSet
EndChar

StartChar: uniF14D
Encoding: 119 61773 117
Width: 512
VWidth: 2048
Flags: HW
LayerCount: 2
Fore
SplineSet
42.208984375 182.583007812 m 4
 42.9482421875 264.706054688 78.916015625 326.456054688 150.11328125 367.833007812 c 4
 183.087890625 386.99609375 218.641601562 396.534179688 256.7734375 396.446289062 c 132
 294.91796875 396.358398438 330.455078125 386.629882812 363.383789062 367.259765625 c 132
 396.313476562 347.890625 422.328125 321.775390625 441.426757812 288.9140625 c 132
 460.525390625 256.051757812 470.032226562 220.440429688 469.9453125 182.080078125 c 132
 469.859375 143.719726562 460.163085938 108.12890625 440.856445312 75.30859375 c 132
 421.55078125 42.4892578125 395.466796875 16.529296875 362.604492188 -2.5703125 c 132
 329.743164062 -21.6689453125 294.131835938 -31.17578125 255.771484375 -31.0888671875 c 132
 217.411132812 -31.0029296875 181.8203125 -21.306640625 149 -2 c 132
 116.1796875 17.306640625 90.2197265625 43.390625 71.12109375 76.251953125 c 132
 52.0224609375 109.114257812 42.384765625 144.557617188 42.208984375 182.583007812 c 4
347.935546875 25.705078125 m 4
 408.073242188 61.896484375 438.048828125 114.35546875 437.862304688 183.083007812 c 4
 437.775390625 215.40234375 427.298828125 249.204101562 406.432617188 284.48828125 c 132
 385.567382812 319.772460938 351.60546875 344.215820312 304.547851562 357.8203125 c 4
 255.546875 371.084960938 209.4453125 365.005859375 166.244140625 339.581054688 c 4
 105.018554688 303.548828125 74.4990234375 250.984375 74.6865234375 181.889648438 c 132
 74.873046875 112.793945312 105.200195312 60.7001953125 165.666015625 25.609375 c 132
 226.1328125 -9.4814453125 286.889648438 -9.4501953125 347.935546875 25.705078125 c 4
274.115234375 223.1328125 m 5
 355.899414062 304.91796875 l 5
 378.608398438 282.208984375 l 5
 296.82421875 200.423828125 l 5
 304.29296875 181.852539062 303.524414062 167.977539062 294.517578125 158.799804688 c 4
 269.536132812 133.34375 246.302734375 130.786132812 224.818359375 151.126953125 c 4
 216.436523438 160.375 212.305664062 171.0234375 212.426757812 183.071289062 c 4
 212.618164062 202.012695312 221.44921875 215.49609375 238.919921875 223.521484375 c 4
 251.020507812 228.091796875 262.751953125 227.961914062 274.115234375 223.1328125 c 5
256.2734375 194.720703125 m 4
 248.775390625 193.559570312 245.16796875 189.37109375 245.452148438 182.157226562 c 132
 245.736328125 174.943359375 249.486328125 171.477539062 256.700195312 171.76171875 c 132
 263.9140625 172.045898438 267.379882812 175.794921875 267.095703125 183.008789062 c 132
 266.811523438 190.22265625 263.204101562 194.126953125 256.2734375 194.720703125 c 4
398.645507812 248.83984375 m 5
 417.626953125 207.202148438 418.612304688 165.022460938 401.602539062 122.30078125 c 4
 393.186523438 102.395507812 381.413085938 84.8779296875 366.28125 69.7470703125 c 5
 343.352539062 92.6767578125 l 5
 384.9921875 134.31640625 393.666992188 181.997070312 369.376953125 235.719726562 c 5
 398.645507812 248.83984375 l 5
309.411132812 295.685546875 m 5
 255.932617188 319.865234375 208.651367188 311.626953125 167.567382812 270.971679688 c 4
 143.4765625 245.728515625 131.501953125 215.92578125 131.641601562 181.563476562 c 132
 131.78125 147.201171875 144.299804688 117.572265625 169.1953125 92.6767578125 c 5
 146.265625 69.7470703125 l 5
 114.869140625 101.142578125 99.232421875 138.658203125 99.3544921875 182.294921875 c 132
 99.4765625 225.931640625 112.08203125 260.263671875 137.170898438 285.291992188 c 4
 194.12109375 342.104492188 255.907226562 355.325195312 322.53125 324.954101562 c 5
 309.411132812 295.685546875 l 5
EndSplineSet
EndChar

StartChar: uniF19C
Encoding: 120 61852 118
Width: 512
Flags: HW
LayerCount: 2
Fore
SplineSet
343.026367188 167.651367188 m 5
 85.212890625 167.651367188 l 5
 85.212890625 199.92578125 l 5
 343.026367188 199.92578125 l 5
 343.026367188 167.651367188 l 5
484.40234375 -2 m 5
 28 -2 l 5
 28 113.100585938 l 6
 28 127.142578125 36.4501953125 136.661132812 46.43359375 141.001953125 c 4
 50.083984375 142.588867188 54.046875 143.375976562 58.2744140625 143.375976562 c 6
 452.127929688 143.375976562 l 5
 452.127929688 173.715820312 l 5
 105.72265625 347.029296875 l 5
 120.349609375 375.77734375 l 5
 467.655273438 202.124023438 l 6
 476.452148438 197.450195312 484.40234375 187.633789062 484.40234375 174.952148438 c 6
 484.40234375 -2 l 5
452.127929688 30.275390625 m 5
 452.127929688 111.100585938 l 5
 60.2744140625 111.100585938 l 5
 60.2744140625 30.275390625 l 5
 452.127929688 30.275390625 l 5
84.5498046875 70.6875 m 4
 84.5498046875 79.3701171875 92.0048828125 86.8251953125 100.6875 86.8251953125 c 4
 109.370117188 86.8251953125 116.825195312 79.3701171875 116.825195312 70.6875 c 4
 116.825195312 62.0048828125 109.370117188 54.5498046875 100.6875 54.5498046875 c 4
 92.0048828125 54.5498046875 84.5498046875 62.0048828125 84.5498046875 70.6875 c 4
EndSplineSet
EndChar

StartChar: uniF13C
Encoding: 121 61756 119
Width: 512
Flags: HW
LayerCount: 2
Fore
SplineSet
256 400 m 0
 370.688 400 464 306.6885 464 192 c 0
 464 77.3115 370.6885 -16 256 -16 c 0
 141.3115 -16 48 77.3115 48 192 c 0
 48 306.6885 141.3115 400 256 400 c 0
  Spiro
    256 400 o
    360.806 371.615 o
    435.614 296.806 o
    464 192 o
    435.615 87.1939 o
    360.806 12.3854 o
    256 -16 o
    151.194 12.3854 o
    76.3854 87.1939 o
    48 192 o
    76.3854 296.806 o
    151.194 371.615 o
    0 0 z
  EndSpiro
256 368 m 0
 158.6084 368 80 289.3916 80 192 c 0
 80 94.6084 158.6084 16 256 16 c 0
 353.3916 16 432 94.6084 432 192 c 0
 432 289.3916 353.3916 368 256 368 c 0
  Spiro
    256 368 o
    167.163 344.059 o
    103.941 280.837 o
    80 192 o
    103.941 103.163 o
    167.163 39.9413 o
    256 16 o
    344.837 39.9413 o
    408.059 103.163 o
    432 192 o
    408.059 280.837 o
    344.837 344.059 o
    0 0 z
  EndSpiro
364.790039062 180.66796875 m 5
 364.768554688 180.646484375 l 5
 245.272460938 180.623046875 l 5
 245.329101562 300.153320312 l 5
 212.74609375 300.15234375 l 5
 212.74609375 164.388671875 l 5
 213.119140625 148.469726562 l 5
 229.026367188 148.0859375 l 5
 364.790039062 148.0859375 l 5
 364.790039062 180.66796875 l 5
  Spiro
    364.791 180.668 v
    364.768 180.646 v
    245.272 180.623 v
    245.329 300.153 v
    212.746 300.153 v
    212.746 164.388 v
    213.119 148.47 v
    229.026 148.086 v
    364.79 148.086 v
    0 0 z
  EndSpiro
EndSplineSet
EndChar

StartChar: uniF115
Encoding: 122 61717 120
Width: 512
Flags: HW
LayerCount: 2
Fore
SplineSet
256 382.496 m 5
 256 382.511625 l 5
 267.5195 371.536025 l 5
 403.5195 235.536025 l 5
 380.4804 212.496025 l 5
 272.0004 321.008025 l 5
 272.0004 2.49999999937e-05 l 5
 240.0004 2.49999999937e-05 l 5
 240.0004 321.024025 l 5
 131.5204 212.463025 l 5
 108.4813 235.503025 l 5
 244.4813 371.503025 l 5
 256 382.496 l 5
EndSplineSet
EndChar

StartChar: uniF11F
Encoding: 123 61727 121
Width: 512
VWidth: 2048
Flags: HW
LayerCount: 2
Fore
SplineSet
199.137695312 81.1005859375 m 2
 186.764648438 81.599609375 176.279296875 85.91796875 167.681640625 94.056640625 c 0
 163.620117188 98.5380859375 160.459960938 103.239257812 158.200195312 108.159179688 c 0
 156.009765625 113.95703125 154.8515625 119.7421875 154.725585938 125.512695312 c 2
 154.725585938 379.990234375 l 2
 155.224609375 392.36328125 159.54296875 402.848632812 167.681640625 411.446289062 c 0
 172.163085938 415.5078125 176.864257812 418.66796875 181.784179688 420.927734375 c 0
 187.58203125 423.118164062 193.3671875 424.276367188 199.137695312 424.40234375 c 2
 312.239257812 424.40234375 l 2
 324.612304688 423.903320312 335.09765625 419.584960938 343.6953125 411.446289062 c 0
 347.756835938 406.96484375 350.916992188 402.263671875 353.176757812 397.34375 c 0
 355.3671875 391.545898438 356.525390625 385.760742188 356.651367188 379.990234375 c 2
 356.651367188 125.512695312 l 2
 356.15234375 113.139648438 351.833984375 102.654296875 343.6953125 94.056640625 c 0
 339.213867188 89.9951171875 334.512695312 86.8349609375 329.592773438 84.5751953125 c 0
 323.794921875 82.384765625 318.009765625 81.2265625 312.239257812 81.1005859375 c 2
 199.137695312 81.1005859375 l 2
199.137695312 392.127929688 m 1
 191.639648438 390.966796875 187.59375 386.920898438 187 379.990234375 c 2
 187 125.512695312 l 1
 188.161132812 118.014648438 192.20703125 113.96875 199.137695312 113.375976562 c 2
 312.239257812 113.375976562 l 1
 319.737304688 114.537109375 323.783203125 118.583007812 324.376953125 125.512695312 c 2
 324.376953125 379.990234375 l 1
 323.215820312 387.48828125 319.169921875 391.534179688 312.239257812 392.127929688 c 2
 199.137695312 392.127929688 l 1
369.9375 81.57421875 m 0
 377.237304688 94.8095703125 381.2265625 112.456054688 381.90625 134.513671875 c 0
 382.1484375 142.375976562 381.822265625 162.938476562 380.926757812 196.201171875 c 1
 380.926757812 198.201171875 l 1
 413.202148438 198.201171875 l 1
 413.202148438 116.235351562 l 2
 412.6796875 90.8828125 403.721679688 69.279296875 386.329101562 51.4228515625 c 0
 367.775390625 33.771484375 346.171875 24.814453125 321.516601562 24.5498046875 c 2
 271.826171875 24.5498046875 l 1
 271.826171875 0.2744140625 l 1
 328.376953125 0.2744140625 l 1
 328.376953125 -32 l 1
 183 -32 l 1
 183 0.2744140625 l 1
 239.55078125 0.2744140625 l 1
 239.55078125 24.5498046875 l 1
 189.860351562 24.5498046875 l 2
 164.5078125 25.072265625 142.904296875 34.0302734375 125.047851562 51.4228515625 c 0
 107.396484375 69.9765625 98.439453125 91.580078125 98.1748046875 116.235351562 c 2
 98.1748046875 198.201171875 l 1
 130.450195312 198.201171875 l 1
 130.450195312 196.201171875 l 1
 129.184570312 149.193359375 l 2
 129.184570312 133.884765625 130.22265625 119.956054688 132.299804688 107.40625 c 0
 134.2265625 97.49609375 137.2734375 88.8857421875 141.439453125 81.57421875 c 0
 146.430664062 74.0390625 152.489257812 68.0537109375 159.61328125 63.619140625 c 0
 167.895507812 59.236328125 177.977539062 56.9716796875 189.860351562 56.8251953125 c 2
 321.516601562 56.8251953125 l 2
 334.067382812 57.1162109375 344.149414062 59.380859375 351.763671875 63.619140625 c 0
 359.561523438 68.71875 365.620117188 74.7041015625 369.9375 81.57421875 c 0
EndSplineSet
EndChar

StartChar: uniF159
Encoding: 124 61785 122
Width: 512
LayerCount: 2
Fore
SplineSet
334 406.992 m 1
 333.984375 406.992 l 1
 345.503875 395.5193 l 1
 374.496075 366.4802 l 1
 430.496075 366.4802 l 1
 430.496075 310.4802 l 1
 459.519475 281.5193 l 1
 471.007775 269.9998 l 1
 459.007775 259.0076 l 1
 430.496075 231.9998 l 1
 430.496075 174.5115 l 1
 374.496075 174.5115 l 1
 345.536075 147.0242 l 1
 334.015575 136.0154 l 1
 323.024375 147.0076 l 1
 299.024375 171.0076 l 1
 112.015375 -15.4714 l 1
 101.007575 -26.9919 l 1
 89.519275 -15.5036 l 1
 48.495875 25.5042 l 1
 37.007575 36.4808 l 1
 48.480275 48.0003 l 1
 235.007275 234.9923 l 1
 211.007275 258.9923 l 1
 199.999475 269.9845 l 1
 210.975075 281.504 l 1
 238.495575 310.5118 l 1
 238.495575 366.5118 l 1
 295.999475 366.5118 l 1
 322.991675 394.9923 l 1
 334 406.992 l 1
334.48 361.008 m 1
 334.495625 360.992375 l 1
 314.015125 339.504075 l 1
 309.535635 334.496265 l 1
 270.495635 334.496265 l 1
 270.495635 297.536265 l 1
 266.015165 293.024545 l 1
 244.495665 270.528445 l 1
 257.999565 257.040145 l 1
 319.007365 318.511845 l 1
 330.495665 329.551845 l 1
 341.503465 318.511845 l 1
 382.495665 277.551845 l 1
 394.015165 266.032345 l 1
 382.495665 255.040145 l 1
 321.007365 194.032345 l 1
 334.495665 180.511845 l 1
 356.991765 202.032345 l 1
 361.503485 206.511835 l 1
 398.495685 206.511835 l 1
 398.495685 245.519635 l 1
 403.519125 250.032335 l 1
 425.024025 270.511835 l 1
 403.024025 292.496235 l 1
 398.511325 297.504045 l 1
 398.511325 334.496245 l 1
 361.519125 334.496245 l 1
 356.495685 339.007965 l 1
 334.48 361.008 l 1
330.48 284.496 m 1
 330.51125 284.511625 l 1
 82.51125 36.511625 l 1
 101.00735 18.496025 l 1
 348.49535 266.016025 l 1
 330.48 284.496 l 1
304 112 m 1
 336 112 l 1
 336 96 l 1
 352 96 l 1
 352 64 l 1
 336 64 l 1
 336 48 l 1
 304 48 l 1
 304 64 l 1
 288 64 l 1
 288 96 l 1
 304 96 l 1
 304 112 l 1
400 80 m 1
 432 80 l 1
 432 48 l 1
 464 48 l 1
 464 16 l 1
 432 16 l 1
 432 -16 l 1
 400 -16 l 1
 400 16 l 1
 368 16 l 1
 368 48 l 1
 400 48 l 1
 400 80 l 1
EndSplineSet
Validated: 5
EndChar

